<svg id="Layer_1" data-name="Layer 1" xmlns="http://www.w3.org/2000/svg" xmlns:xlink="http://www.w3.org/1999/xlink" viewBox="0 0 836.28504 826.39954"><defs><style>.cls-1,.cls-6,.cls-7{fill:none;}.cls-2{clip-path:url(#clip-path);}.cls-3{opacity:0.3;isolation:isolate;}.cls-4{clip-path:url(#clip-path-2);}.cls-5{clip-path:url(#clip-path-3);}.cls-6,.cls-7{stroke:#1c4359;stroke-width:4.58289px;}.cls-7{stroke-linecap:round;stroke-linejoin:round;}</style><clipPath id="clip-path" transform="translate(-377.36697 -2.29372)"><rect class="cls-1" x="377.367" y="0.00006" width="836.28497" height="56.59607"/></clipPath><clipPath id="clip-path-2" transform="translate(-377.36697 -2.29372)"><rect class="cls-1" x="369" y="-38" width="853" height="111"/></clipPath><clipPath id="clip-path-3" transform="translate(-377.36697 -2.29372)"><rect class="cls-1" x="377" width="837" height="57"/></clipPath></defs><g class="cls-2"><g class="cls-3"><g class="cls-4"><g class="cls-5"><path class="cls-6" d="M378.45718,5.82324c41.70429,22.55884,153.47171,57.52515,266.90738,16.91913,141.79456-50.75732,258.56653,20.3028,366.99768,27.07044,86.74482,5.41424,169.59882-27.0705,200.18048-43.98957" transform="translate(-377.36697 -2.29372)"/></g></g></g></g><path class="cls-7" d="M775.76176,192.04483a9.16533,9.16533,0,0,0-9.18274-9.153l-75.48334.14161a9.16437,9.16437,0,0,0-9.14746,9.17956l.41706,271.4119a9.16816,9.16816,0,0,0,9.17492,9.152l273.6493-.24292a9.15983,9.15983,0,0,0,9.15747-9.18412l-.3996-181.78436a9.16584,9.16584,0,0,0-9.18274-9.14563l-75.48016.1416a9.166,9.166,0,0,0-9.14881,9.18872l.21857,87.94242a9.16576,9.16576,0,0,1-9.174,9.18866l-86.01758-.07926a9.16586,9.16586,0,0,1-9.1571-9.15344Z" transform="translate(-377.36697 -2.29372)"/><path class="cls-7" d="M1187.14784,825.47146l-212.69449.42621-84.63129.16034a9.166,9.166,0,0,1-9.18274-9.16577l.00415-256.95331a9.1663,9.1663,0,0,1,9.14881-9.16577l75.47375-.14209a9.16571,9.16571,0,0,1,9.18317,9.17493L974.287,722.87894a9.16568,9.16568,0,0,0,9.19787,9.17492l109.73081-.385a9.16862,9.16862,0,0,0,9.1337-9.17041l-.05133-393.20431a9.16542,9.16542,0,0,1,9.14834-9.16715l75.48789-.1416a9.16565,9.16565,0,0,1,9.18295,9.15933l.15835,315.50882.211,158.10968c-.10374,12.82189.8998,20.71484-9.33871,22.70819" transform="translate(-377.36697 -2.29372)"/><path class="cls-7" d="M419.36717,548.32126,390.54075,168.54373a9.163,9.163,0,0,1,9.13831-9.85956h74.426a9.16366,9.16366,0,0,1,9.13831,8.47187l28.92725,381.06445a9.02682,9.02682,0,0,0,.3894,2.03479l54.399,174.31927a9.16138,9.16138,0,0,0,8.74865,6.439h100.104a9.16617,9.16617,0,0,0,9.16577-9.16577V558.42654a9.16325,9.16325,0,0,1,9.16577-9.16577h73.18915a9.16442,9.16442,0,0,1,9.16577,9.16577V817.23605a9.16738,9.16738,0,0,1-9.16577,9.16577H506.25413a9.17051,9.17051,0,0,1-8.80835-6.62689L419.69712,550.1636A9.29932,9.29932,0,0,1,419.36717,548.32126Z" transform="translate(-377.36697 -2.29372)"/></svg>