<svg version="1.1" xmlns="http://www.w3.org/2000/svg" xmlns:xlink="http://www.w3.org/1999/xlink" viewBox="93.239 220.717 90.878 58.603"><path fill-rule="evenodd" clip-rule="evenodd" fill="none" d="m93.239 220.717 90.878.266v30.262H168.89v28.075l-75.651-.011z"></path><path fill-rule="evenodd" clip-rule="evenodd" fill="none" d="m101.694 222.172 80.744-.205v28.212h-17.276v27.459h-63.468z"></path><clipPath id="a"><path fill-rule="evenodd" clip-rule="evenodd" fill="none" d="m93.239 220.717 90.878.266v30.262H168.89v28.075l-75.651-.011z"></path></clipPath><g clip-path="url(#a)"><path fill-rule="evenodd" clip-rule="evenodd" fill="#eebd7b" d="M101.694 277.638h63.468v1.455h-63.468zm0-56.921h63.468v1.455h-63.468zm63.468 30.507v-1.045H126l-.327.327.718.718h11.46zm-63.468 27.831V250.96h-1.455v28.096h1.455m0-37.19v-21.148h-1.455v21.149h1.455zm0-21.149v-20.133h-1.455v20.133h1.455m-1.455-29.226h1.455v-3.327h-1.455v3.327zm1.455 69.189h18.867v1.046h-18.867zm17.822-2.538 1.045-1.046-.74-.74-.305.307v1.479m6.896-6.897.02-.02h-.04l.02.02z"></path><path fill-rule="evenodd" clip-rule="evenodd" fill="#eebd7b" d="M120.561 260.68v-3.584l-1.045 1.046v2.538zm5.138-10.2.3-.301h.745v-2.32H125.7v2.32zm0-28.308h1.045v16.367H125.7zm-10.321 17.413h11.366v-1.046h-11.366v1.046m-7.502 0h.137v-1.046h-6.32v1.046h6.183zm11.458 20.913v-3.637h-7.275v3.637h7.275m-5.91-.364h-.91v-2.91h.91v2.911m4.546 0v-2.91h.91v2.91h-.91m-.455 0h-3.637v-2.91h3.637v2.91zm-12.002-27.234v-7.274h-3.638v7.274h3.638m-3.274-.454v-.91h2.91v.91h-2.91m2.91-1.364h-2.91v-3.637h2.91v3.637m0-4.092h-2.91v-.91h2.91v.91zm61.778 24.233h16.035v-1.045h-16.346v1.045zm1.326-29.257h14.709v-1.046h-16.346v1.046h1.319zm.612 57.649v-8.525h-2.183l-.036.637h-1.419v7.297h1.455v.59z"></path><path fill-rule="evenodd" clip-rule="evenodd" fill="#eebd7b" d="m168.84 244.499.05 11.625h-2.183l-.036-.636h-1.419l-.05-10.99zm.05-16.417V214.22h-1.71l-.036.636h-1.892v13.227z"></path><path fill="none" stroke="#eebd7b" stroke-width=".25" stroke-linecap="round" stroke-linejoin="round" stroke-miterlimit="10" d="m100.239 241.866-4.547 7.874m30.72 1.505-2.141 7.993m2.473-11.379 4.138-7.166m-22.869-1.108 6.379 3.682"></path><path fill="none" stroke="#eebd7b" stroke-width=".2" stroke-linecap="round" stroke-linejoin="round" stroke-miterlimit="10" d="M166.07 228.082h.546m-.546 16.368h.546m0-8.694h-.545m-.001 0v1.019m0 0h.546m0 0v-1.019m0-7.165h-.545m-.001 0v-.509m0 0h.546m0 0v.51m0 15.348h-.545m-.001 0v.51m0 0h.546m0 0v-.51m-.546 0-3.582-6.205m4.128-1.979v-7.165m-.546 0v7.165m-.09 35.972V255.36m.636 16.368V255.36m0 0h-.636m.636 16.368h-.636m.636 7.274h-.636"></path><path fill="none" stroke="#eebd7b" stroke-width=".15" stroke-linecap="round" stroke-linejoin="round" stroke-miterlimit="10" d="M103.603 269.818a.455.455 0 0 1-.455-.454m3.638 0a.455.455 0 0 1-.455.454m-.001-3.637c.252 0 .456.204.456.455m-3.638 0c0-.251.204-.455.455-.455"></path><path fill="none" stroke="#eebd7b" stroke-width=".15" stroke-linecap="round" stroke-linejoin="round" stroke-miterlimit="10" d="M101.694 272.182h5.455v-6.365h-5.455m4.182 6.001v-2m-.454 2v-2m-.455 2v-2m-.455 2v-2m-.454 2v-2"></path><path fill="none" stroke="#eebd7b" stroke-width=".15" stroke-linecap="round" stroke-linejoin="round" stroke-miterlimit="10" d="M103.603 271.818v-2h2.728v2"></path><path fill="none" stroke="#eebd7b" stroke-width=".15" stroke-linecap="round" stroke-linejoin="round" stroke-miterlimit="10" d="M106.786 269.366v2.452h-3.638v-2.448m0-2.734v2.728m3.638 0v-2.728m-.456-.455h-2.727m.227 1.819h.728m-.364.363v-.727m0 .546a.182.182 0 1 1 0-.364.182.182 0 0 1 0 .364z"></path><path fill="none" stroke="#eebd7b" stroke-width=".15" stroke-linecap="round" stroke-linejoin="round" stroke-miterlimit="10" d="M104.194 268.272a.273.273 0 1 1 0-.546.273.273 0 0 1 0 .546zm6.789-44.778a13.551 13.551 0 0 1-3.3 0m3.3 0a.19.19 0 0 0 .167-.191m-.128 3.53a1.515 1.515 0 0 1-.075.448 1.573 1.573 0 0 1-.27.503 1.693 1.693 0 0 1-.691.518 1.806 1.806 0 0 1-.864.125 1.77 1.77 0 0 1-.56-.157 1.68 1.68 0 0 1-.47-.33 1.589 1.589 0 0 1-.41-.737 1.52 1.52 0 0 1-.04-.377"></path><path fill="none" stroke="#eebd7b" stroke-width=".15" stroke-linecap="round" stroke-linejoin="round" stroke-miterlimit="10" d="M110.945 226.831a1.475 1.475 0 0 1-.241.784 1.566 1.566 0 0 1-.34.376 1.638 1.638 0 0 1-.694.33 1.67 1.67 0 0 1-.851-.034 1.643 1.643 0 0 1-.525-.271 1.52 1.52 0 0 1-.447-.567 1.453 1.453 0 0 1-.127-.526c-.002-.032-.002-.064-.002-.096m-.205-3.524a.19.19 0 0 0 .17.191m1.649-.773c-.087 0-.158.072-.158.161s.07.16.158.16c.087 0 .157-.071.157-.16s-.07-.16-.157-.16zm1.818.582v-1.131m-3.637 0v1.131"></path><path fill="none" stroke="#eebd7b" stroke-width=".15" stroke-linecap="round" stroke-linejoin="round" stroke-miterlimit="10" d="M111.022 223.487v3.346l-.32-2.766h-2.741l-.32 2.759m3.305.007-.32-2.766m-2.909 2.759.32-2.76m-.396-.581v3.391m-5.947 6.207h5.455v5.456m-5.455 0 5.455-5.456m.001 5.456-5.456-5.456"></path><path fill="none" stroke="#eebd7b" stroke-width=".15" stroke-linecap="round" stroke-linejoin="round" stroke-miterlimit="10" d="M104.422 233.083a2.728 2.728 0 1 0 0 5.456 2.728 2.728 0 0 0 0-5.456zm13.198-9.737a.455.455 0 0 0-.455-.455m0 2.728a.455.455 0 0 0 .455-.455m-3.637 0c0 .252.203.455.455.455m0-2.728a.455.455 0 0 0-.455.455"></path><path fill="none" stroke="#eebd7b" stroke-width=".15" stroke-linecap="round" stroke-linejoin="round" stroke-miterlimit="10" d="M113.528 222.172v3.81h4.547v-3.81m-3.637.719h2.727m.455.455v1.818m-.455.455h-2.728m-.454-.455v-1.818m1.818.59v-.23m.364-.133h-.23m-.134-.133v-.23m-.133.363h-.23"></path><circle fill="none" stroke="#eebd7b" stroke-width=".15" stroke-linecap="round" stroke-linejoin="round" stroke-miterlimit="10" cx="115.801" cy="223.573" r=".28"></circle><circle fill="none" stroke="#eebd7b" stroke-width=".15" stroke-linecap="round" stroke-linejoin="round" stroke-miterlimit="10" cx="115.801" cy="223.573" r=".2"></circle><path fill="none" stroke="#eebd7b" stroke-width=".15" stroke-linecap="round" stroke-linejoin="round" stroke-miterlimit="10" d="M119.334 237.63h6.365m-6.365-15.458v15.458m3.182-13.922a.23.23 0 1 0 0 .461m0 .001a.23.23 0 1 0 0-.462m-1.335-.843c-.637 0-1.154.517-1.154 1.154m4.979.001c0-.638-.517-1.155-1.155-1.155m-3.824 12.917c0 .638.517 1.155 1.154 1.155m2.67 0c.638 0 1.155-.517 1.155-1.155m-1.155 1.155h-2.67m-1.154-1.155v-11.763m1.154-1.154h2.67m1.155 1.155v11.762m-6.946 36.4h-5.455v5.456m5.455 0v-5.456m-1.409 3.132v.455m0 .646v.455m.778-.778h-.455m-.646 0h-.455m-1.859-.778v.455m0 .646v.455m-.777-.778h.454m.647 0h.454m1.859-1.586v-.455m0-.646v-.455m.778.778h-.455m-.646 0h-.455m-1.859.778v-.455m0-.646v-.455m-.777.778h.454m.647 0h.454m14.18-1.546h-5.456v5.456"></path><path fill="none" stroke="#eebd7b" stroke-width=".15" stroke-linecap="round" stroke-linejoin="round" stroke-miterlimit="10" d="M128.972 277.638v-5.456l-5.456 5.456m5.456 0-5.456-5.456m2.728 3.21v-.964m-.482.482h.964m-19.576-2.728h5.455m-5.455 4.638v-4.638m0 0v5.456m10.91-5.456h5.456m-16.366-6.365v-4.091"></path><path fill="none" stroke="#eebd7b" stroke-width=".15" stroke-miterlimit="10" d="M159.406 228.798v-6.101H145.56v3.208m1.067 2.825.451.234.227-.127.262.27h.743l.106.188.322-.105.189.218.412-.15 1.743.51.97-.346h.625m-6.636-.796.699.099m-1.273-.048.889-.14m-.703 5.817.671-.25m-.86.326.895.68m-.517 2.694-.413.6m-.011-6.584.347-.338m-.412.048.577-.3m13.403 6.35.2.8m-.263-1.563.387 1.45m-.437-2.337.387.887m-.297-5.115v3.914m.143-6.52v2.68m-13.555 3.44v2.355m.059-6.027v2.583m-.222-5.25v2.24m-.175-2.683v-2.53m13.817 13.291v1.443H145.56v-1.779"></path><path fill="none" stroke="#eebd7b" stroke-width=".15" stroke-miterlimit="10" d="m145.198 228.49 1.202-.193.871.223.596.278h.965l.763-.205h.854v.149h1.449l1.003-.278h.872l1.116.222h2.139l.669-.241 1.263.353h.891l.177.194-.162.472-.149.334v.46l.264.366v.357l-.217.208v.723l.334.936-.172.413.125.15-.263.184.253.597-.196.645v2.116l.338.528v.626l-.627.528v.56h-.726l-1.517-.429h-1.22l-.395.395h-2.506l-.593-.414h-.833l-.37.369h-.833l-.948-.393-1.412.37-.601-.255-1.296.3-.924-.345v-.74h-.255l.276-.431-.24-.376.25-.613-.113-.206.194-.739-.228-1.4.137-.228-.115-.228.207-1.205-.437-1.22.29-1.019-.234-.763.235-.491-.151-.643m13.107-3.241v.295m-.152-.533-.39.19m.457-.246h-.324m.39.017-.2.257m-.238 2.54v-.275m-.02.408-.313-.503m.095.457-.438-.373h-.143l.105.145.266.152m.325.236-.59-.265m-.715.086h.543m-1.218-.238.694.342m-3.209-.944h.562l.409-.124.494.2.581.277.659.475m-3-1.246h.237m-.79-.077.534.343h.199v-.056h-.18l-.144-.133v-.238m-.057-.41h.514m-.494-.144.275-.123m.733-1.902.487.18m-.629.115.114.343m-.114-.506.152.363h.096v-.057l-.134-.201m-.284-.217v.693m-3.798 2.527.817.271-.12-.143.501.175.535-.217m-3.27-.023h.872m-1.395.229.664-.186m3.706-.018-.281-.147h-.068v.101l.525.14m-.018-.072-.518-.393m.608.393-.26-.382m-.135-2.47-.19.45m.202-.608-.741.562v.19h.156l.394-.504m-4.899 1.269.224.168m-.247-.269h.484m-.27-1.011.225.315m-.315-.518.607.484h.146l-.247-.225-.349-.248h.382m-.461 2.841h.518m-.641-.202.337-.348m-.349.472.754-.314"></path><path fill="none" stroke="#eebd7b" stroke-width=".15" stroke-miterlimit="10" d="m153.258 223.694 1.526.11.892.25 1.429.397.802.377.489.044-.06.214.13.457-.155.551-.315.487-.14.502.085.551.043.334-.095.345-.173-.17-.635-.177-.469.127-.698-.194-.683-.4-.553-.156-.608-.17-.648.013-.575-.158-.408-.322-.243-.262.325-.115.11-.395-.03-.466.166-.589.42-.55.107-.381-.036-.254"></path><path fill="none" stroke="#eebd7b" stroke-width=".15" stroke-miterlimit="10" d="m146.67 224.278 1.498-.303h2.41l.874.15.481-.092v.224l.25.405v.571l-.175.557v.52l.23.508.132.31v.356l-.213-.115h-.66l-.416.246h-.725l-.766-.203h-1.204l-.62.187h-.598l-.479-.2-.304-.185.28-.2v-.41l-.151-.443v-.608l.256-.642v-.4l-.1-.233"></path><path fill="none" stroke="#eebd7b" stroke-width=".15" stroke-miterlimit="10" d="M158.96 224.534a22.101 22.101 0 0 0-13.251-.163m12.544 14.975.331-.1.172.563-.332.1zm-12.259-.041.337.08-.136.573-.337-.081zm12.419-15.535.187-.56.33.11-.188.56zm-12.653-.648.329-.11.187.562-.329.107z"></path><path fill="none" stroke="#eebd7b" stroke-width=".15" stroke-miterlimit="10" d="M146.297 239.525a30.87 30.87 0 0 0 11.996-.05"></path><path fill="none" stroke="#eebd7b" stroke-width=".15" stroke-miterlimit="10" d="M146.221 239.846c4.018.792 8.157.774 12.168-.052m.069-16.158a34.738 34.738 0 0 0-12.216-.165"></path><path fill="none" stroke="#eebd7b" stroke-width=".15" stroke-miterlimit="10" d="M158.546 223.37a34.68 34.68 0 0 0-12.392-.167m13.209-.463h2.665v2.664h-2.665zm-16.43 0h2.665v2.664h-2.665zm13.351 25.44h-10.38m10.38.325h-10.38m-.001-.445v.445m10.381 0v-.445m-6.002.965h1.624m4.378-.965h-10.38m11.376 1.405h1.19m0 0v-1.405m0 0h-1.19m0 0v1.405m1.19-1.269h-1.19m1.593 1.654h-15.56m15.56-2.288h-15.56m15.56 2.288v-2.288m-8.591 1.463a13.065 13.065 0 0 1-3.789-.52m9.202 0a13.07 13.07 0 0 1-3.789.52m-6.998.44h-1.189m.001 0v-1.405m0 0h1.188m0 0v1.405m-1.188-1.269h1.188m-1.594 1.654v-2.288m-5.662.001h5.662v2.287h-5.662zm5.662.392h-5.662m5.662 0-5.662 1.895m0-1.895 5.662 1.895m21.19-1.895-5.662 1.895m0-1.895 5.662 1.895m-5.586-2.287h5.662v2.287h-5.662zm5.662.392h-5.662m-8.321 27.565h10.38m-10.38.324h10.38m.001-.444v.444m-10.381 0v-.445m6.003.965h-1.625m-4.378-.964h10.38m-11.375 1.404h-1.19m0 0v-1.405m0 .001h1.19m0 0v1.404m-1.19-1.269h1.19m-1.594 1.653h15.559m-15.559-2.288h15.559m-15.559 2.288v-2.287m8.592 1.463c1.29.013 2.573-.164 3.788-.52m-9.201 0a13.07 13.07 0 0 0 3.788.52m6.998.44h1.189m0 0v-1.405m0 .001h-1.189m0 0v1.404m1.189-1.269h-1.189m1.594 1.653v-2.287m-30.138 2.681v-13.437h8.078v13.436h-8.078"></path><path fill="none" stroke="#eebd7b" stroke-width=".15" stroke-miterlimit="10" d="M133.877 264.593h7.18v12.54h-7.18zm-2.454 2.752-.498-.097m.498 1.862-.505.084m.062-2.574a15.47 15.47 0 0 0 0 3.319m.443-.726-.498.097m-.026-1.342h.524m0 .517h-.524m0 .106h.524m.087-2.034-.087.014m0 3.419.086.013m-.086-.376-.457.109m.457-2.286-.499-.085m.499.707h-.525m.525-1.142-.46-.102m-.31-.463a8.177 8.177 0 0 0 .025 3.808m.302-3.553-.327-.255m.327 3.574-.302.234m.302-3.449.443.104m-.443 3.008.443-.104m.088.207v.209m1.918-.104-1.918-.105m0 .209 1.918.295m-2.006-.456v-3.418m.088.048v-.207m1.918.105-1.918.102m0-.207 1.918-.296m-2.006 6.291-.498-.096m.498 1.86-.505.083m.062-2.572a15.478 15.478 0 0 0 0 3.32m.443-.729-.498.097m-.026-1.341h.524m0 .519h-.524m0 .105h.524m.087-2.036-.087.016m0 3.417.086.016m-.086-.376-.457.108m.457-2.286-.499-.084m.499.704h-.525m.525-1.141-.46-.103m-.31-.462a8.19 8.19 0 0 0 .025 3.81m.302-3.554-.327-.256m.327 3.576-.302.234m.302-3.451.443.103m-.443 3.01.443-.104m.088.208v.205m1.918-.103L131.51 275m.001.205 1.918.298m-2.006-.455v-3.419m.088.049v-.209m1.918.104-1.918.105m0-.208 1.918-.297m10.084-3.828.497-.098m-.497 1.863.504.084m-.061-2.574a15.47 15.47 0 0 1 0 3.319m-.443-.726.497.097m.026-1.342h-.523m0 .517h.523m0 .106h-.523m-.088-2.034.088.014m0 3.419-.086.013m.086-.376.455.109m-.455-2.286.499-.085m-.499.707h.524m-.524-1.142.46-.102m.31-.463a8.195 8.195 0 0 1-.025 3.808m-.302-3.553.327-.255m-.327 3.574.302.234m-.302-3.449-.443.104m.443 3.008-.443-.104m-.09.207v.209m-1.916-.104 1.916-.105m0 .209-1.916.295m2.006-.456v-3.418m-.09.048v-.207m-1.916.105 1.916.102m0-.207-1.916-.296m2.006 6.291.497-.097m-.497 1.861.504.083m-.061-2.572a15.478 15.478 0 0 1 0 3.32m-.443-.729.497.097m.026-1.341h-.523m0 .519h.523m0 .105h-.523m-.088-2.036.088.016m0 3.417-.086.016m.086-.376.455.108m-.455-2.286.499-.084m-.499.704h.524m-.524-1.141.46-.103m.31-.462a8.205 8.205 0 0 1-.025 3.81m-.302-3.554.327-.256m-.327 3.576.302.234m-.302-3.451-.443.103m.443 3.01-.443-.104m-.09.208v.205m-1.916-.103 1.916-.102m0 .205-1.916.298m2.006-.455v-3.419m-.09.049v-.209m-1.916.104 1.916.105m0-.208-1.916-.297"></path><g fill="none" stroke="#eebd7b" stroke-width=".15" stroke-miterlimit="10"><path d="M147.133 255.367c-.054-.323-.118-.627-.19-1.001-.38-1.215-1.451-.633-1.451-.027v4.784s.065.543.48.543h1.015s.349.05.42-1.024"></path><path d="M145.492 254.213v-1.088s.11-.785.825-.86c.47-.077 3.184-.582 8.644-.582s8.197.505 8.665.581c.716.076.827.861.827.861v1.088"></path><path d="M146.805 254.024c1.226.546 3.883.342 4.359.342.625 0 .584-.053.602-.054m0-1.792a.618.618 0 0 0-.055-.002h-4.825c-.457.026-.703.278-.703.733a.645.645 0 0 0 .122.403"></path><path d="M149.017 254.944c1.166.053 2.497.037 2.772-.072v-.56m-4.89-.224s-.068.455.49.682c.123.05.372.121.81.154m3.59.933v-3.336s3.842-.149 6.365 0v6.982s.47.151 1.832.126c1.362-.025 2.635-.328 2.635-.328m-15.299-.001s1.274.304 2.635.329c1.363.025 1.832-.126 1.832-.126v-2.122"></path><path d="M164.453 254.34v4.783s-.067.543-.48.543h-1.017s-1.005.14.046-5.3c.38-1.215 1.451-.633 1.451-.027z"></path><path d="M163.14 254.024c-1.229.546-3.885.342-4.36.342-.626 0-.584-.053-.603-.054m0-1.792a.62.62 0 0 1 .055-.002h4.825c.457.026.703.278.703.733a.644.644 0 0 1-.122.403m-16.554 1.723c.62-.272 1.512-.657 1.512-.657s.245-.177.312 0 .493 1.442.493 1.442"></path><path d="M148.893 257.764s-1.348.625-1.48.878c-.135.253-1.119-2.605-1.119-2.605s.023-.305.225-.405c.061-.033.286-.133.565-.255m4.719 1.961c.213-.421.69-.998.365-1.226a7.334 7.334 0 0 1-.373-.255"></path><path d="M151.795 255.857c-.564-.397-1.558-1.105-1.659-1.011 0 0-1.205 2.176-1.317 2.48-.111.303.066.506.178.506.111 0 1.743 1.114 1.943 1.165.2.051.566-1.074.863-1.66m-.037-3.025s.247.104.604.13c.357.026 5.426.094 5.784-.13v.56c.448.177 3.941.085 4.4-.102.558-.227.492-.682.492-.682"></path><path d="M151.789 254.872s.447.152 1.05.177c.482.019 3.555.025 4.78-.025.304-.014.535-.152.535-.152m-6.365 4.631s.514.176 1.386.176c.87 0 3.707.027 3.707.027s1.183.025 1.272-.203"></path></g><path fill="none" stroke="#eebd7b" stroke-width=".15" stroke-miterlimit="10" stroke-dasharray="1,1" d="M162.447 259.221v7.572h-15.095v-7.68"></path><path fill="none" stroke="#eebd7b" stroke-width=".15" stroke-miterlimit="10" d="M129.514 237.397v-15.25m.274 15.251v-15.25m-1.831 8.808a.205.205 0 0 0-.258.13.205.205 0 0 0 .129.256c.02.005.043.01.065.01m3.364-.007a13.265 13.265 0 0 0-3.364.007m3.364-.007a.196.196 0 0 0 .213-.176.196.196 0 0 0-.176-.216h-.033m-3.304.003a13.38 13.38 0 0 0 3.304-.003"></path><path fill="none" stroke="#eebd7b" stroke-width=".15" stroke-miterlimit="10" d="M129.179 231.14c0 .029.188.05.42.05.232 0 .42-.021.42-.05 0-.03-.188-.054-.42-.054-.232 0-.42.024-.42.054m-1.212-1.141a.204.204 0 0 0-.128.387c.022.007.043.01.064.01"></path><path fill="none" stroke="#eebd7b" stroke-width=".15" stroke-miterlimit="10" d="M131.268 230.39a13.348 13.348 0 0 0-3.365.005m3.365-.005a.197.197 0 1 0 .004-.394"></path><path fill="none" stroke="#eebd7b" stroke-width=".15" stroke-miterlimit="10" d="M127.967 229.999c1.098.138 2.208.136 3.305-.003"></path><path fill="none" stroke="#eebd7b" stroke-width=".15" stroke-miterlimit="10" d="M129.19 230.184c0 .028.188.053.42.053.232 0 .421-.025.421-.053 0-.03-.19-.054-.421-.054-.232 0-.42.025-.42.054m-1.272-1.101a.202.202 0 0 0-.255.13.202.202 0 0 0 .192.266m3.363-.005a13.238 13.238 0 0 0-3.363.005m3.363-.005c.109.01.203-.07.215-.18a.2.2 0 0 0-.21-.213"></path><path fill="none" stroke="#eebd7b" stroke-width=".15" stroke-miterlimit="10" d="M127.918 229.083c1.097.138 2.208.136 3.305-.002"></path><path fill="none" stroke="#eebd7b" stroke-width=".15" stroke-miterlimit="10" d="M129.142 229.268c0 .03.187.053.42.053.23 0 .418-.024.418-.053 0-.03-.187-.053-.419-.053-.232 0-.42.023-.42.053m-1.191-1.178a.204.204 0 1 0-.065.397"></path><path fill="none" stroke="#eebd7b" stroke-width=".15" stroke-miterlimit="10" d="M131.249 228.48a13.293 13.293 0 0 0-3.364.005m3.364-.005a.195.195 0 0 0 .214-.178.195.195 0 0 0-.178-.213c-.009-.002-.02-.002-.031-.002"></path><path fill="none" stroke="#eebd7b" stroke-width=".15" stroke-miterlimit="10" d="M127.95 228.09a13.23 13.23 0 0 0 3.304-.003"></path><path fill="none" stroke="#eebd7b" stroke-width=".15" stroke-miterlimit="10" d="M129.172 228.273c0 .03.188.054.42.054.23 0 .42-.025.42-.054 0-.029-.19-.051-.42-.051-.232 0-.42.022-.42.05m-1.215-1.137a.203.203 0 1 0-.064.396"></path><path fill="none" stroke="#eebd7b" stroke-width=".15" stroke-miterlimit="10" d="M131.257 227.525a13.223 13.223 0 0 0-3.364.005m3.364-.005a.197.197 0 1 0 .005-.392m-3.305.002c1.097.136 2.207.136 3.304-.003"></path><path fill="none" stroke="#eebd7b" stroke-width=".15" stroke-miterlimit="10" d="M129.179 227.318c0 .028.188.052.42.052.232 0 .42-.024.42-.052 0-.029-.188-.054-.42-.054-.232 0-.42.025-.42.054m-1.265-1.265a.2.2 0 0 0-.255.128.204.204 0 0 0 .128.257c.022.007.043.01.064.01m3.364-.005a13.267 13.267 0 0 0-3.364.005m3.364-.005a.197.197 0 0 0 .036-.392h-.032m-3.305.002c1.098.138 2.208.135 3.305-.002"></path><path fill="none" stroke="#eebd7b" stroke-width=".15" stroke-miterlimit="10" d="M129.138 226.236c0 .029.189.05.42.05s.42-.021.42-.05-.188-.051-.42-.051-.42.022-.42.051m-1.162-1.243a.204.204 0 1 0-.129.386c.02.005.042.009.064.009m3.363-.006a13.275 13.275 0 0 0-3.363.006m3.363-.006c.109.01.206-.07.215-.177a.197.197 0 0 0-.179-.215c-.009 0-.02-.002-.031 0m-3.303.003a13.35 13.35 0 0 0 3.303-.003"></path><path fill="none" stroke="#eebd7b" stroke-width=".15" stroke-miterlimit="10" d="M129.199 225.175c0 .03.188.053.419.053.23 0 .419-.023.419-.053 0-.028-.188-.052-.42-.052-.23 0-.418.024-.418.052m-1.229-1.143a.205.205 0 0 0-.129.388c.021.005.041.01.064.01"></path><path fill="none" stroke="#eebd7b" stroke-width=".15" stroke-miterlimit="10" d="M131.268 224.424a13.232 13.232 0 0 0-3.363.005m3.363-.005a.197.197 0 0 0 .04-.392.124.124 0 0 0-.036-.002m-3.302.002a13.18 13.18 0 0 0 3.302-.002"></path><path fill="none" stroke="#eebd7b" stroke-width=".15" stroke-miterlimit="10" d="M129.192 224.217c0 .029.188.052.42.052.23 0 .419-.023.419-.052 0-.03-.19-.053-.42-.053-.231 0-.419.023-.419.053m-1.22-1.322a.204.204 0 1 0-.064.397"></path><path fill="none" stroke="#eebd7b" stroke-width=".15" stroke-miterlimit="10" d="M131.272 223.284a13.364 13.364 0 0 0-3.364.008m3.364-.008a.197.197 0 0 0 .037-.391.067.067 0 0 0-.032 0m-3.305.002a13.23 13.23 0 0 0 3.305-.002"></path><path fill="none" stroke="#eebd7b" stroke-width=".15" stroke-miterlimit="10" d="M129.195 223.079c0 .028.188.054.421.054.23 0 .419-.026.419-.054 0-.029-.188-.052-.419-.052-.233 0-.421.023-.421.052m3.056 14.318H126.9v-15.29"></path><path fill="none" stroke="#eebd7b" stroke-width=".15" stroke-miterlimit="10" d="M127.967 235.886a.204.204 0 1 0-.064.398"></path><path fill="none" stroke="#eebd7b" stroke-width=".15" stroke-miterlimit="10" d="M131.268 236.278a13.216 13.216 0 0 0-3.365.004m3.365-.004a.2.2 0 0 0 .213-.18.195.195 0 0 0-.176-.213.057.057 0 0 0-.033-.002m-3.305.003c1.098.138 2.208.135 3.305-.003"></path><path fill="none" stroke="#eebd7b" stroke-width=".15" stroke-miterlimit="10" d="M129.19 236.07c0 .029.188.052.42.052.232 0 .421-.023.421-.052 0-.03-.19-.054-.421-.054-.232 0-.42.025-.42.054m-1.272-1.1a.204.204 0 1 0-.063.399"></path><path fill="none" stroke="#eebd7b" stroke-width=".15" stroke-miterlimit="10" d="M131.218 235.362a13.182 13.182 0 0 0-3.363.004m3.363-.004a.2.2 0 0 0 .215-.178.196.196 0 0 0-.178-.214c-.01-.003-.021-.003-.032-.003"></path><path fill="none" stroke="#eebd7b" stroke-width=".15" stroke-miterlimit="10" d="M127.918 234.97a13.27 13.27 0 0 0 3.305-.003"></path><path fill="none" stroke="#eebd7b" stroke-width=".15" stroke-miterlimit="10" d="M129.142 235.154c0 .03.187.054.42.054.23 0 .418-.024.418-.054s-.187-.054-.419-.054c-.232 0-.42.025-.42.054m-1.191-1.178a.202.202 0 0 0-.257.13.202.202 0 0 0 .128.256.185.185 0 0 0 .064.012m3.364-.007a13.22 13.22 0 0 0-3.364.007m3.364-.007a.195.195 0 0 0 .214-.179.195.195 0 0 0-.178-.212.063.063 0 0 0-.031 0m-3.304 0a13.23 13.23 0 0 0 3.304 0"></path><path fill="none" stroke="#eebd7b" stroke-width=".15" stroke-miterlimit="10" d="M129.172 234.16c0 .03.188.055.42.055.23 0 .42-.024.42-.054 0-.029-.19-.052-.42-.052-.232 0-.42.023-.42.052m-1.215-1.14a.202.202 0 0 0-.258.13.205.205 0 0 0 .129.257c.02.006.043.01.065.01m3.364-.007a13.19 13.19 0 0 0-3.364.007m3.364-.007c.107.01.203-.07.213-.178a.196.196 0 0 0-.209-.214m-3.304.002c1.097.136 2.207.136 3.304-.002"></path><path fill="none" stroke="#eebd7b" stroke-width=".15" stroke-miterlimit="10" d="M129.179 233.205c0 .029.188.052.42.052.232 0 .42-.023.42-.052 0-.028-.188-.053-.42-.053-.232 0-.42.025-.42.053m-1.265-1.265a.201.201 0 0 0-.255.128.203.203 0 0 0 .128.257c.022.006.043.01.064.01"></path><path fill="none" stroke="#eebd7b" stroke-width=".15" stroke-miterlimit="10" d="M131.215 232.327a13.461 13.461 0 0 0-3.364.007m3.364-.007a.194.194 0 0 0 .214-.176.198.198 0 0 0-.178-.216h-.032m-3.305.005c1.098.137 2.208.135 3.305-.005"></path><path fill="none" stroke="#eebd7b" stroke-width=".15" stroke-miterlimit="10" d="M129.138 232.123c0 .028.189.052.42.052s.42-.024.42-.052c0-.03-.188-.052-.42-.052s-.42.023-.42.052m3.113 5.274v-15.29m-30.761 32.494h10.316v6H101.49zm0 1.03h10.316m-10.316 0 10.316 4.97m0-4.971-10.316 4.972"></path><path fill="none" stroke="#eebd7b" stroke-width=".25" stroke-linecap="round" stroke-linejoin="round" stroke-miterlimit="10" d="M168.799 279.638v-8.547m0 0h-2.183m0 0v.637m0 0h-1.454m0 0v5.91m0 1.455v.454m0-.545h1.454m0 0v.636m2.183-23.641v-4.773m0-1.045v-5.73m0 .001h-2.183m-.546 0h-.908m0 0v5.729m0 1.045v4.137m0-.001h1.454m0 0v.637m0 0h2.183m0-27.915v-6.115m0-1.046v-6.706m-3.637 7.957v5.91m0 0h.909m.545 0h2.183m0 0v8.277m0 19.638v15.094m-3.637.637V255.36m0-19v-8.278m0 49.556h-63.468m0 1.455h63.468m0-58.376h-63.468m0 1.455h63.468m0 28.007h-38.418m-1.045.301-.026.026m0 0 .74.74m.02-.022h38.729m-64.923-50.64v41.282m0 0h1.455m0 0v-2.281m0-1.046v-16.367m-1.455 28.787v28.096m0 0h1.455m0 0v-1.364m0 1.856v-.454m0-1.455v-15.912m0-1.046v-9.721m0 0h-1.455m68.56.265h14.162m-.001 0v-1.045m0 0H168.8m14.16-29.258H168.8m-.001 1.046h14.162m-.001 0v-1.046m-81.266-.204v-11.73m0 52.739h18.867m-1.045-1.046h-17.822m18.128-4.323-.306.306m1.045.433-.74-.74m6.591-5.111.02-.02m-6.916 5.438v4.017m1.045 1.046v-4.63m6.183-6.917v-2.32m0 0H125.7m-.001 0v2.621m0-28.308v16.367m1.045 1.046v-17.413m-25.05 17.413h6.319m0 0v-1.046m0 0h-6.32m13.685 1.046h11.366m-1.045-1.046h-10.32m-.001 0v1.046m67.787-18.664v-.454m-.727 0v.454m0 0h.727m0 1.501v27.302m-.727-27.302v27.302m.727-27.302v-.455m0 0h-.727m0 0v.455m0 0h.727m0 27.757v-.455m0 0h-.727m0 0v.455m0 0h.727m-63.831 6.681h-7.275m.001 0v3.638m0 0h7.274m0 0v-3.637m-6.82.364h.91m-.001 0v2.91m0-.001h-.909m0 0v-2.91m6.366 2.91h-.91m0 0v-2.91m0 .001h.91m0 0v2.91m-1.365-.001h-3.637m0 0v-2.91m0 .001h3.637m0 0v2.91m-12.366-29.052h-2.91m.001 0v-3.637m0 0h2.909m0 0v3.637m0 1.364h-2.91m.001 0v-.91m0 0h2.909m0 0v.91m-2.909-6.365h2.909m0 0v.909m0-.001h-2.91m.001 0v-.908m-.365 6.819h3.638m0 0v-7.274m0 0h-3.638m0 0v7.274m66.924 3.459h-2.182m-.547 0h-.908"></path><path d="M131.263 257.738h-.007l-.394.213-.06-.234.496-.266h.263v2.272h-.298v-1.985zm2.603-.287v.203l-.989 2.069h-.317l.985-2.009v-.008h-1.111v-.255h1.432zm.22 2.702c.077-.207.172-.58.21-.835l.343-.036a4.343 4.343 0 0 1-.332.85l-.22.02zm2.122-2.485c-.062-.004-.142 0-.23.014a.923.923 0 0 0-.79.807h.01a.677.677 0 0 1 .55-.261c.402 0 .685.29.685.733 0 .416-.283.8-.755.8-.486 0-.804-.377-.804-.968 0-.447.16-.8.384-1.023a1.23 1.23 0 0 1 .728-.336 1.51 1.51 0 0 1 .222-.018v.252zm-.087 1.31c0-.324-.185-.52-.467-.52a.506.506 0 0 0-.44.28.257.257 0 0 0-.036.136c.007.373.178.65.5.65.266 0 .443-.22.443-.545zm2.062-1.527v.203l-.99 2.069h-.317l.986-2.009v-.008h-1.112v-.255h1.433zm-3.331-18.271h-.007l-.395.213-.06-.235.497-.265h.263v2.271h-.298v-1.984zm1.202 1.632c.088.055.29.142.503.142.395 0 .517-.25.513-.44-.002-.318-.29-.454-.586-.454h-.171v-.23h.17c.224 0 .507-.116.507-.385 0-.181-.115-.342-.398-.342a.83.83 0 0 0-.454.15l-.08-.224c.118-.087.35-.174.594-.174.447 0 .65.265.65.54 0 .235-.14.434-.42.536v.007c.28.055.507.265.507.584 0 .363-.283.68-.828.68a1.16 1.16 0 0 1-.591-.153l.084-.237zm1.621.782c.077-.206.172-.58.21-.835l.343-.035a4.343 4.343 0 0 1-.332.85l-.221.02zm2.335-1.59c0 .773-.286 1.198-.79 1.198-.442 0-.743-.415-.75-1.167 0-.761.328-1.18.789-1.18.48 0 .752.425.752 1.15zm-1.232.035c0 .591.181.926.46.926.315 0 .465-.367.465-.947 0-.559-.143-.926-.46-.926-.27 0-.465.33-.465.947zm2.186-.859h-.007l-.394.213-.06-.235.496-.265h.263v2.271h-.298v-1.984zm-29.695 7.521h-.866l-.088.584c.052-.007.101-.014.185-.014.175 0 .35.039.49.122a.648.648 0 0 1 .325.584c0 .443-.354.775-.846.775a1.11 1.11 0 0 1-.566-.14l.077-.233c.094.056.279.125.485.125.29 0 .538-.188.538-.492-.003-.294-.2-.503-.653-.503-.13 0-.23.014-.315.024l.148-1.09h1.086v.258zm.339 2.443c.077-.206.171-.58.21-.835l.342-.035a4.343 4.343 0 0 1-.332.85l-.22.02zm.826-.43v-.188l.241-.235c.58-.552.842-.846.846-1.188 0-.23-.113-.444-.451-.444a.773.773 0 0 0-.483.193l-.098-.217a.997.997 0 0 1 .644-.23c.49 0 .695.334.695.66 0 .42-.304.758-.783 1.22l-.182.167v.007h1.021v.255h-1.45zm3.151-2.013h-.866l-.088.584c.053-.007.102-.014.186-.014.174 0 .35.039.489.122a.648.648 0 0 1 .325.584c0 .443-.353.775-.846.775a1.11 1.11 0 0 1-.566-.14l.077-.233c.095.056.28.125.485.125.29 0 .539-.188.539-.492-.003-.294-.2-.503-.654-.503-.129 0-.23.014-.314.024l.147-1.09h1.086v.258zm-2.525-10.74v-.618h-1.055v-.203l1.013-1.45h.332v1.412h.318v.241h-.318v.618h-.29zm0-.86v-.758c0-.118.004-.237.01-.356h-.01a6.42 6.42 0 0 1-.189.335l-.555.773v.007h.744zm.744 1.289c.077-.205.172-.58.21-.834l.343-.035a4.343 4.343 0 0 1-.332.85l-.221.02zm1.776-.429v-.618h-1.054v-.203l1.012-1.45h.332v1.412h.319v.241h-.319v.618h-.29zm0-.86v-.758c0-.118.004-.237.011-.356h-.01c-.07.132-.127.231-.19.335l-.555.773v.007h.744zm.846.86v-.188l.241-.235c.58-.551.842-.845.846-1.188 0-.23-.112-.444-.451-.444a.773.773 0 0 0-.483.193l-.097-.217a.997.997 0 0 1 .643-.23c.49 0 .695.335.695.66 0 .419-.304.758-.783 1.22l-.181.167v.007h1.02v.255h-1.45zm51.42 5.397v-.619h-1.055v-.203l1.013-1.45h.332v1.412h.318v.241h-.318v.619h-.29zm0-.86v-.759c0-.118.004-.237.01-.356h-.01c-.07.133-.126.231-.189.336l-.555.772v.007h.744zm.744 1.289c.077-.206.172-.58.21-.835l.343-.035a4.343 4.343 0 0 1-.332.85l-.221.02zm2.122-2.484c-.062-.004-.142 0-.23.014a.923.923 0 0 0-.79.807h.01a.677.677 0 0 1 .55-.262c.402 0 .685.29.685.734 0 .416-.283.8-.755.8-.487 0-.804-.377-.804-.968 0-.447.16-.8.384-1.024.188-.185.44-.3.727-.335a1.51 1.51 0 0 1 .223-.018v.252zm-.087 1.31c0-.325-.185-.52-.468-.52a.506.506 0 0 0-.44.28.257.257 0 0 0-.035.136c.007.373.178.65.5.65.265 0 .443-.22.443-.546zm.66.392c.088.056.29.143.503.143.396 0 .518-.251.514-.44-.003-.318-.29-.455-.587-.455h-.17v-.23h.17c.224 0 .507-.116.507-.384 0-.182-.115-.343-.399-.343a.83.83 0 0 0-.454.15l-.08-.223c.118-.088.35-.175.594-.175.447 0 .65.266.65.541 0 .234-.14.434-.42.535v.007c.28.056.507.266.507.584 0 .363-.283.68-.828.68a1.16 1.16 0 0 1-.59-.153l.083-.237zm2.489-2.072c-.256.342-.44.797-.44 1.429 0 .622.192 1.069.44 1.418h-.242c-.22-.29-.458-.737-.458-1.418.004-.689.238-1.136.458-1.43h.242zm.896.44h-.008l-.394.213-.06-.234.496-.266h.263v2.272h-.298v-1.985zm1.026 2.414c.078-.206.172-.58.21-.835l.343-.035a4.343 4.343 0 0 1-.332.85l-.22.02zm.9-.782c.088.056.29.143.503.143.395 0 .517-.251.513-.44-.002-.318-.29-.455-.586-.455h-.171v-.23h.17c.224 0 .507-.116.507-.384 0-.182-.115-.343-.398-.343a.83.83 0 0 0-.454.15l-.08-.223c.118-.088.35-.175.594-.175.447 0 .65.266.65.541 0 .234-.14.434-.42.535v.007c.28.056.507.266.507.584 0 .363-.283.68-.828.68a1.16 1.16 0 0 1-.591-.153l.084-.237zm1.901.135c.066.008.143 0 .248-.01a.856.856 0 0 0 .475-.22.994.994 0 0 0 .3-.604h-.01a.668.668 0 0 1-.534.244c-.41 0-.671-.307-.671-.695 0-.43.31-.807.775-.807s.751.377.751.957c0 .5-.167.85-.39 1.066a1.14 1.14 0 0 1-.662.304c-.11.018-.209.02-.282.018v-.252zm.112-1.306c0 .283.17.483.436.483a.508.508 0 0 0 .447-.239.199.199 0 0 0 .029-.111c0-.388-.144-.685-.465-.685-.262 0-.447.23-.447.552zm1.419 1.946c.248-.345.439-.8.439-1.428 0-.626-.188-1.073-.44-1.42h.238c.223.287.458.734.458 1.423 0 .684-.235 1.129-.458 1.425h-.237z" fill="#eebd7b"></path></g></svg>