<svg version="1.1" xmlns="http://www.w3.org/2000/svg" xmlns:xlink="http://www.w3.org/1999/xlink" viewBox="91.328 0.08 77.471 79.898"><path fill-rule="evenodd" clip-rule="evenodd" fill="none" d="m91.366.08-.038 51.647h3.878v.038h4.92v5.644h-4.909l.046 22.569 73.536-.768V.08z"></path><path fill-rule="evenodd" clip-rule="evenodd" fill="none" d="M92.783 3.762h42.872l3.638-.717h26.596v12.992l-.455 4.269-.272 57.654h-63.468V50.272h-8.911z"></path><clipPath id="a"><path fill-rule="evenodd" clip-rule="evenodd" fill="none" d="m91.366.08-.038 51.647h3.878v.038h4.92v5.644h-4.909l.046 22.569 73.536-.768V.08z"></path></clipPath><g clip-path="url(#a)"><path fill-rule="evenodd" clip-rule="evenodd" fill="#eebd7b" d="M92.888 57.182h7.35v-.113H83.873v.113h8.91zm7.351-.795v-.114H93.76v.114h6.479m-8.911 0h1.75v-.114h-9.206v.114h7.456zm2.432-.114h.114v-4.546h-.114v4.544zm-.795-4.546h.113v4.546h-.113zm-1.637 0h1.455V3.762h-1.455v46.51zm8.911 56.239h1.455v-5.91h-1.455v5.91m1.455-15.003V66.876h-1.455v26.087h1.455m0-35.18v-7.511h-1.455v7.512h1.455zm13.639 20.177h1.045V61.32h-1.045v16.515zm-12.957-26.642v-1.046h-.682v1.046h.682m13.507 0h1.046v-1.046h-7.188v1.046h6.142zM92.888 36.633h22.995v-1.046h-23.1v1.046z"></path><path fill-rule="evenodd" clip-rule="evenodd" fill="#eebd7b" d="M116.378 50.272h.55V35.587h-1.045v14.685zM68.232 35.587h23.096v1.046H68.232zm59.285 43.827h37.645V77.96h-63.468v1.454h14.684zm0 0h1.046v13.094h-1.046zM93.76 51.727h6.479v-1.455h-7.456v1.455h.295zm-2.432 0v-1.455h-7.456v1.455h4.38zm34.921 10.638v-3.081h-1.046v3.081h1.046m0-11.356v-.828h-1.046v.828h1.046z"></path><path fill-rule="evenodd" clip-rule="evenodd" fill="#eebd7b" d="M116.378 62.365h8.825V61.32h-8.825v.534zm19.277-13.23h1.046V29.768h-1.046v19.367m0-27.642h1.046V20.13h-1.046v1.364z"></path><path fill-rule="evenodd" clip-rule="evenodd" fill="#eebd7b" d="M137.851 50.181h27.31v-1.046h-39.958v1.046h1.046zm-44.886-9.729h7.274v-3.637h-7.274v3.637m6.819-.364h-.91v-2.91h.91v2.91m-5.456 0h-.909v-2.91h.91v2.91m.454 0v-2.91h3.637v2.91h-3.637zm71.833 38.076h16.346v1.046h-16.346zM77.052.08h30.072v2.183l-.637.036v1.419H77.643V2.263h-.59zm91.747 41.669v14.969h-2.182l-.036-.637h-1.42V42.34h1.456v-.591z"></path><path fill-rule="evenodd" clip-rule="evenodd" fill="#eebd7b" d="M168.799 85.688V71.777h-2.182l-.036.636h-1.42v13.275zm0-69.247h-10.185v2.183l.637.036v1.419h9.548z"></path><path fill-rule="evenodd" clip-rule="evenodd" fill="#eebd7b" d="M168.799 17.184v9.542h-2.182l-.036-.637h-1.42v-8.905zM139.293.08h-17.141v2.183l.636.036v1.419h16.505z"></path><path fill-rule="evenodd" clip-rule="evenodd" fill="#eebd7b" d="M135.655 1.684h3.638V20.08h-3.638z"></path><path fill-rule="evenodd" clip-rule="evenodd" fill="#eebd7b" d="M137.95 16.441h5.57v2.183l-.636.036v1.419h-4.934zM92.783 51.318h1.14v5.502h-1.14z"></path><path fill-rule="evenodd" clip-rule="evenodd" fill="#eebd7b" d="M83.38 56.273h17.045v.91H83.38z"></path><path fill="none" stroke="#eebd7b" stroke-width=".25" stroke-linecap="round" stroke-linejoin="round" stroke-miterlimit="10" d="m126.249 51.01 4.137 7.165m-13.457-9.04 7.166-4.137m-21.719 6.32L108.754 55m26.901-33.507-4.137 7.166m-31.279 29.125-4.547 7.874"></path><path fill="none" stroke="#eebd7b" stroke-width=".2" stroke-linecap="round" stroke-linejoin="round" stroke-miterlimit="10" d="M106.422 2.944h16.367m-16.367-.637h16.367m0 0v.637m-16.367-.637v.637m52.829 16.276v-.546m-16.367.546v-.546m8.693 0v.546m0 0h-1.018m0 0v-.546m0 0h1.018m7.165 0v.546m0 0h.51m-.001 0v-.546m0 0h-.51m-15.348 0v.546m0 0h-.509m0 0v-.546m0 0h.51m-.001.546 6.206 3.582m9.143-3.582h-7.165m0-.546h7.165m7.238 23.732V26.04m.636 16.366V26.04m0 0h-.636m.636 16.366h-.636m0 30.052V56.091m.636 16.367V56.091m0 0h-.636m.636 16.367h-.636"></path><path fill="none" stroke="#eebd7b" stroke-width=".15" stroke-linecap="round" stroke-linejoin="round" stroke-miterlimit="10" d="M91.328 48.453h-1.141m54.745 36.417h-5.455v-5.456"></path><path fill="none" stroke="#eebd7b" stroke-width=".15" stroke-linecap="round" stroke-linejoin="round" stroke-miterlimit="10" d="M144.932 79.414v5.456l-5.455-5.456m5.455 0-5.455 5.456"></path><path fill="none" stroke="#eebd7b" stroke-width=".15" stroke-linecap="round" stroke-linejoin="round" stroke-miterlimit="10" d="M139.477 82.142a2.728 2.728 0 1 0 5.455 0 2.728 2.728 0 0 0-5.455 0zm-20.143 3.274v-6.002m0 0v8.184h8.183"></path><path fill="none" stroke="#eebd7b" stroke-width=".15" stroke-linecap="round" stroke-linejoin="round" stroke-miterlimit="10" d="M120.097 79.414v7.42h7.42m-1.127-6.293 1.127-1.127m-2.352 1.445-5.068-1.445m-10.765.56a.159.159 0 0 0-.158.16c0 .09.07.161.158.161a.159.159 0 0 0 .157-.16c0-.09-.07-.161-.157-.161zm1.818.582v-1.142m-3.637 0v1.142m6.001-1.142v3.82h4.547v-3.82m-17.636-42.781v6.365m0 0h15.458m-13.922-3.183a.23.23 0 1 0 .462 0m0 0a.23.23 0 0 0-.462 0m-.843 1.335c0 .638.517 1.155 1.155 1.155m0-4.979c-.638 0-1.155.517-1.155 1.154m12.917 3.825c.638 0 1.155-.517 1.155-1.155m0-2.67c0-.637-.517-1.154-1.155-1.154m1.155 1.154v2.67m-1.155 1.155h-11.762m-1.155-1.155v-2.67m1.155-1.154h11.762m.666 11.127a.455.455 0 0 0 .455-.454m-2.728 0c0 .25.203.454.454.454m0-3.637a.455.455 0 0 0-.454.455m2.728-.001a.455.455 0 0 0-.455-.454"></path><path fill="none" stroke="#eebd7b" stroke-width=".15" stroke-linecap="round" stroke-linejoin="round" stroke-miterlimit="10" d="M115.883 44.362h-3.819v4.546h3.819m-.727-3.638V48m-.455.453h-1.819m-.454-.454V45.27m.454-.454h1.819m-.591 1.819h.23m.134.363v-.23m.133-.133h.23m-.363-.134v-.23"></path><path fill="none" stroke="#eebd7b" stroke-width=".15" stroke-linecap="round" stroke-linejoin="round" stroke-miterlimit="10" d="M114.474 46.914a.28.28 0 1 0 0-.56.28.28 0 0 0 0 .56z"></path><path fill="none" stroke="#eebd7b" stroke-width=".15" stroke-linecap="round" stroke-linejoin="round" stroke-miterlimit="10" d="M114.474 46.834a.2.2 0 1 0 0-.4.2.2 0 0 0 0 .4zm-20.359-1.85a13.567 13.567 0 0 1 0 3.3m0-3.3a.191.191 0 0 0-.191-.168m3.529.128a1.589 1.589 0 0 1 .45.076 1.575 1.575 0 0 1 .502.27 1.695 1.695 0 0 1 .518.69 1.8 1.8 0 0 1 .124.864 1.778 1.778 0 0 1-.156.56 1.675 1.675 0 0 1-.33.47 1.587 1.587 0 0 1-.737.41 1.518 1.518 0 0 1-.377.04"></path><path fill="none" stroke="#eebd7b" stroke-width=".15" stroke-linecap="round" stroke-linejoin="round" stroke-miterlimit="10" d="M97.452 45.021a1.458 1.458 0 0 1 .563.123 1.545 1.545 0 0 1 .597.459 1.637 1.637 0 0 1 .255.445 1.677 1.677 0 0 1 .11.505 1.686 1.686 0 0 1-.181.87 1.6 1.6 0 0 1-.325.43 1.517 1.517 0 0 1-.4.267 1.424 1.424 0 0 1-.527.127c-.032.001-.064.002-.096.001m-3.524.205a.19.19 0 0 0 .191-.169m-.773-1.649c0 .087.072.157.16.157s.162-.07.162-.157-.072-.157-.161-.157-.16.07-.16.157zm.582-1.819h-1.141m0 3.637h1.14"></path><path fill="none" stroke="#eebd7b" stroke-width=".15" stroke-linecap="round" stroke-linejoin="round" stroke-miterlimit="10" d="M94.108 44.944h3.346l-2.767.32v2.741l2.76.32m.006-3.305-2.766.32m2.76 2.909-2.76-.32m-.581.396h3.391m.741-18.194h5.456v5.456"></path><path fill="none" stroke="#eebd7b" stroke-width=".15" stroke-linecap="round" stroke-linejoin="round" stroke-miterlimit="10" d="M98.238 35.587V30.13l5.456 5.456m-5.456.001 5.456-5.456"></path><path fill="none" stroke="#eebd7b" stroke-width=".15" stroke-linecap="round" stroke-linejoin="round" stroke-miterlimit="10" d="M103.694 32.86a2.728 2.728 0 1 0-5.456 0 2.728 2.728 0 0 0 5.456 0zm2.364.817c0 .252.204.455.455.455m0-3.637a.455.455 0 0 0-.455.455m3.637 0a.455.455 0 0 0-.454-.455m-.001 3.637a.455.455 0 0 0 .455-.455"></path><path fill="none" stroke="#eebd7b" stroke-width=".15" stroke-linecap="round" stroke-linejoin="round" stroke-miterlimit="10" d="M103.694 35.587V30.13h6.365v5.456m-6.001-4.182h2m-2 .455h2m-2 .455h2m-2 .454h2m-2 .455h2"></path><path fill="none" stroke="#eebd7b" stroke-width=".15" stroke-linecap="round" stroke-linejoin="round" stroke-miterlimit="10" d="M104.058 33.677h2V30.95h-2"></path><path fill="none" stroke="#eebd7b" stroke-width=".15" stroke-linecap="round" stroke-linejoin="round" stroke-miterlimit="10" d="M106.51 30.495h-2.452v3.637h2.448m2.734 0h-2.727m0-3.637h2.728m.454.455v2.727m-1.818-.227v-.727m-.364.363h.727m-.545 0a.182.182 0 1 0 .364 0 .182.182 0 0 0-.364 0z"></path><path fill="none" stroke="#eebd7b" stroke-width=".15" stroke-linecap="round" stroke-linejoin="round" stroke-miterlimit="10" d="M107.604 33.086a.273.273 0 1 0 .546 0 .273.273 0 0 0-.546 0zm26.415 46.328v5.456h5.455v-5.456M91.328 24.676h-5.456V19.22h5.456m1.455 5.456h5.455V19.22h-5.455m3.132 1.41h.454m.647 0h.455m-.779-.779v.455m0 .647v.454m-.777 1.859h.454m.647 0h.455m-.779.778v-.454m0-.647v-.455m-1.586-1.858h-.455m-.646 0h-.454m.777-.779v.455m0 .647v.454m.778 1.859h-.455m-.646 0h-.454m.777.778v-.454m0-.647v-.455m-3-8.724h-5.456V8.31h5.456l-5.456 5.455m0-5.456 5.456 5.455m1.455 0h5.455V8.31h-5.455l5.455 5.455m0-5.456-5.455 5.455m3.21-2.728h-.965m.482.483v-.965m2.728 14.122v5.455m0-10.911v-5.456m11.821 16.367h6.87m0 5.514V30.13"></path><path fill="none" stroke="#eebd7b" stroke-width=".15" stroke-miterlimit="10" d="M119.172 62.494v15.25m.274-15.25v15.25m-1.83-8.808a.206.206 0 0 1-.258-.13.205.205 0 0 1 .128-.257.284.284 0 0 1 .065-.009m3.364.007a13.29 13.29 0 0 1-3.364-.007m3.364.007a.196.196 0 0 1 .214.176.196.196 0 0 1-.177.216h-.032m-3.304-.003a13.357 13.357 0 0 1 3.304.003"></path><path fill="none" stroke="#eebd7b" stroke-width=".15" stroke-miterlimit="10" d="M118.837 68.752c0-.03.189-.05.42-.05.233 0 .421.02.421.05 0 .03-.188.054-.42.054-.232 0-.42-.024-.42-.054m-1.212 1.141a.204.204 0 0 1-.128-.387.215.215 0 0 1 .064-.01m3.365.005c-1.117.14-2.248.14-3.365-.005m3.365.005a.197.197 0 0 1 .036.394.136.136 0 0 1-.032 0"></path><path fill="none" stroke="#eebd7b" stroke-width=".15" stroke-miterlimit="10" d="M117.626 69.893a13.202 13.202 0 0 1 3.305.002"></path><path fill="none" stroke="#eebd7b" stroke-width=".15" stroke-miterlimit="10" d="M118.848 69.708c0-.029.189-.053.42-.053.233 0 .422.024.422.053 0 .029-.19.054-.422.054-.231 0-.42-.025-.42-.054m-1.271 1.101a.202.202 0 0 1-.255-.13.202.202 0 0 1 .192-.267m3.362.005c-1.116.142-2.247.14-3.362-.005m3.362.005a.2.2 0 0 1 .216.18.2.2 0 0 1-.21.214"></path><path fill="none" stroke="#eebd7b" stroke-width=".15" stroke-miterlimit="10" d="M117.577 70.809a13.229 13.229 0 0 1 3.305.002"></path><path fill="none" stroke="#eebd7b" stroke-width=".15" stroke-miterlimit="10" d="M118.8 70.624c0-.03.188-.053.42-.053.232 0 .42.023.42.053s-.188.053-.42.053c-.232 0-.42-.024-.42-.053m-1.192 1.178a.203.203 0 0 1-.128-.386.186.186 0 0 1 .064-.012"></path><path fill="none" stroke="#eebd7b" stroke-width=".15" stroke-miterlimit="10" d="M120.907 71.41a13.3 13.3 0 0 1-3.363-.003m3.363.003c.11-.008.207.07.215.18a.195.195 0 0 1-.178.212c-.009.002-.02.002-.032.002m-3.304-.002a13.224 13.224 0 0 1 3.304.002"></path><path fill="none" stroke="#eebd7b" stroke-width=".15" stroke-miterlimit="10" d="M118.831 71.62c0-.03.188-.055.42-.055.23 0 .419.024.419.054 0 .029-.188.05-.419.05-.232 0-.42-.021-.42-.05m-1.215 1.138a.204.204 0 1 1-.064-.396"></path><path fill="none" stroke="#eebd7b" stroke-width=".15" stroke-miterlimit="10" d="M120.915 72.367c-1.117.142-2.248.14-3.364-.005m3.364.005a.197.197 0 1 1 .005.392m-3.304-.002a13.313 13.313 0 0 1 3.304.002"></path><path fill="none" stroke="#eebd7b" stroke-width=".15" stroke-miterlimit="10" d="M118.837 72.574c0-.029.189-.053.42-.053.233 0 .421.024.421.053 0 .028-.188.054-.42.054-.232 0-.42-.026-.42-.054m-1.265 1.264a.2.2 0 0 1-.255-.128.204.204 0 0 1 .128-.257.211.211 0 0 1 .064-.009"></path><path fill="none" stroke="#eebd7b" stroke-width=".15" stroke-miterlimit="10" d="M120.874 73.45a13.265 13.265 0 0 1-3.364-.006m3.364.006a.197.197 0 0 1 .036.39h-.032m-3.305-.002a13.317 13.317 0 0 1 3.305.003"></path><path fill="none" stroke="#eebd7b" stroke-width=".15" stroke-miterlimit="10" d="M118.797 73.656c0-.029.189-.051.42-.051s.42.022.42.05c0 .03-.188.052-.42.052s-.42-.023-.42-.051m-1.162 1.242a.203.203 0 1 1-.129-.386.265.265 0 0 1 .064-.008m3.362.006a13.27 13.27 0 0 1-3.362-.006m3.362.006a.197.197 0 1 1 .037.392c-.009 0-.02.002-.032 0m-3.302-.004a13.35 13.35 0 0 1 3.302.004"></path><path fill="none" stroke="#eebd7b" stroke-width=".15" stroke-miterlimit="10" d="M118.858 74.716c0-.029.188-.052.418-.052.232 0 .42.023.42.052 0 .028-.188.052-.42.052-.23 0-.418-.024-.418-.052m-1.229 1.144a.205.205 0 1 1-.065-.399"></path><path fill="none" stroke="#eebd7b" stroke-width=".15" stroke-miterlimit="10" d="M120.927 75.468c-1.117.14-2.246.14-3.363-.005m3.363.005a.197.197 0 0 1 .04.392.124.124 0 0 1-.036.002m-3.302-.002a13.174 13.174 0 0 1 3.302.002"></path><path fill="none" stroke="#eebd7b" stroke-width=".15" stroke-miterlimit="10" d="M118.85 75.675c0-.03.189-.053.42-.053.23 0 .42.024.42.053 0 .03-.19.053-.42.053-.231 0-.42-.023-.42-.053m-1.219 1.322a.204.204 0 1 1-.064-.397m3.364.007a13.37 13.37 0 0 1-3.364-.008m3.364.008a.197.197 0 0 1 .037.391.067.067 0 0 1-.032 0m-3.305-.001a13.234 13.234 0 0 1 3.305.001"></path><path fill="none" stroke="#eebd7b" stroke-width=".15" stroke-miterlimit="10" d="M118.854 76.813c0-.029.188-.054.421-.054.23 0 .419.025.419.054 0 .029-.189.052-.419.052-.233 0-.421-.023-.421-.052m3.056-14.319h-5.352v15.29"></path><path fill="none" stroke="#eebd7b" stroke-width=".15" stroke-miterlimit="10" d="M117.626 64.005a.204.204 0 1 1-.064-.397"></path><path fill="none" stroke="#eebd7b" stroke-width=".15" stroke-miterlimit="10" d="M120.927 63.614a13.21 13.21 0 0 1-3.365-.004m3.365.004a.2.2 0 0 1 .213.179.195.195 0 0 1-.177.213.056.056 0 0 1-.032.002"></path><path fill="none" stroke="#eebd7b" stroke-width=".15" stroke-miterlimit="10" d="M117.626 64.005a13.257 13.257 0 0 1 3.305.003"></path><path fill="none" stroke="#eebd7b" stroke-width=".15" stroke-miterlimit="10" d="M118.848 63.821c0-.028.189-.052.42-.052.233 0 .422.024.422.052 0 .03-.19.054-.422.054-.231 0-.42-.024-.42-.054m-1.271 1.1a.204.204 0 1 1-.063-.398"></path><path fill="none" stroke="#eebd7b" stroke-width=".15" stroke-miterlimit="10" d="M120.876 64.53c-1.116.143-2.247.14-3.362-.004m3.362.004a.2.2 0 0 1 .216.178.196.196 0 0 1-.179.214c-.009.003-.02.003-.031.003m-3.305-.004a13.272 13.272 0 0 1 3.305.004"></path><path fill="none" stroke="#eebd7b" stroke-width=".15" stroke-miterlimit="10" d="M118.8 64.738c0-.03.188-.054.42-.054.232 0 .42.024.42.054 0 .029-.188.053-.42.053-.232 0-.42-.024-.42-.053m-1.192 1.177a.203.203 0 0 1-.256-.13.202.202 0 0 1 .128-.256.186.186 0 0 1 .064-.011m3.363.006a13.22 13.22 0 0 1-3.363-.006m3.363.006c.11-.01.207.07.215.18a.195.195 0 0 1-.178.212.064.064 0 0 1-.032 0m-3.304-.001a13.23 13.23 0 0 1 3.304.001"></path><path fill="none" stroke="#eebd7b" stroke-width=".15" stroke-miterlimit="10" d="M118.831 65.73c0-.03.188-.053.42-.053.23 0 .419.024.419.054 0 .028-.188.052-.419.052-.232 0-.42-.024-.42-.052m-1.215 1.139a.202.202 0 0 1-.258-.129.205.205 0 0 1 .128-.258.246.246 0 0 1 .065-.01"></path><path fill="none" stroke="#eebd7b" stroke-width=".15" stroke-miterlimit="10" d="M120.915 66.48a13.195 13.195 0 0 1-3.364-.006m3.364.006a.2.2 0 0 1 .214.179.196.196 0 0 1-.209.214m-3.304-.003a13.325 13.325 0 0 1 3.304.003"></path><path fill="none" stroke="#eebd7b" stroke-width=".15" stroke-miterlimit="10" d="M118.837 66.686c0-.028.189-.051.42-.051.233 0 .421.023.421.051 0 .03-.188.053-.42.053-.232 0-.42-.024-.42-.053m-1.265 1.266a.2.2 0 0 1-.255-.128.203.203 0 0 1 .128-.257.213.213 0 0 1 .064-.01m3.364.007a13.462 13.462 0 0 1-3.364-.007m3.364.007a.193.193 0 0 1 .214.177.198.198 0 0 1-.178.215h-.032m-3.305-.004a13.215 13.215 0 0 1 3.305.004"></path><path fill="none" stroke="#eebd7b" stroke-width=".15" stroke-miterlimit="10" d="M118.797 67.769c0-.028.189-.052.42-.052s.42.024.42.052c0 .029-.188.051-.42.051s-.42-.022-.42-.051m3.113-5.275v15.29"></path><g fill="none" stroke="#eebd7b" stroke-width=".15" stroke-miterlimit="10"><path d="M128.041 75.284v-4.507s.061-.512.441-.513h.936s.924-.131-.04 4.997c-.351 1.144-1.337.595-1.337.023zm8.679-.026v-4.483s-.061-.51-.441-.51h-.934s-.925-.13.04 4.97c.35 1.14 1.336.593 1.336.023z"></path><path d="M135.564 75.654c-.796-.313-2.198-.343-3.198-.326h-.005c-1.002-.018-2.404.015-3.2.324m6.885.257c.08.1.122.217.117.35 0 .395-.301.57-.68.638-.406.13-1.945.182-3.12.204h.123c-1.176-.021-2.714-.073-3.121-.205-.378-.066-.68-.243-.68-.639a.501.501 0 0 1 .118-.348m6.54-.813s-.228-.091-.56-.113c-.33-.023-5.028-.084-5.357.113m5.855-.487s-.417-.131-.98-.156c-.451-.017-3.316-.021-4.459.025a1.198 1.198 0 0 0-.355.068m5.612-4.008a5.41 5.41 0 0 0-1.114-.108c-.816 0-3.475-.022-3.475-.022s-.538-.01-.893.05"></path><path d="M136.72 75.258v1.286s-.021.418-.29.484c-.915.226-3 .38-4.026.418-1.726.067-3.965-.44-3.965-.44-.453-.132-.4-.463-.4-.463v-1.285"></path></g><path fill="none" stroke="#eebd7b" stroke-width=".15" stroke-miterlimit="10" d="M157.272 71.6v6.101h-13.846v-3.207m1.067-2.827.451-.233.227.127.262-.27h.743l.106-.188.322.105.189-.217.413.15 1.742-.51.97.345h.625m-6.636.796.699-.098m-1.273.047.889.14m-.703-5.817.671.25m-.86-.326.895-.68m-.517-2.694-.413-.6m-.011 6.584.347.338m-.411-.047.576.298m13.403-6.347.2-.801m-.264 1.563.388-1.451m-.436 2.339.387-.888m-.299 5.114v-3.913m.145 6.52v-2.68m-13.555-3.441v-2.355m.058 6.028v-2.583m-.221 5.25V69.28m-.176 2.685v2.529m13.817-13.291V59.76h-13.817v1.78"></path><path fill="none" stroke="#eebd7b" stroke-width=".15" stroke-miterlimit="10" d="m143.064 71.908 1.202.193.872-.223.596-.278h.964l.763.205h.854v-.149h1.45l1.003.279h.872l1.115-.223h2.139l.669.242 1.264-.354h.89l.177-.194-.162-.472-.149-.334v-.46l.264-.366v-.356l-.217-.208v-.723l.334-.936-.172-.414.125-.15-.263-.184.253-.596-.196-.646v-2.116l.338-.528v-.626l-.627-.528v-.56h-.726l-1.517.429h-1.22l-.395-.394h-2.505l-.594.413h-.833l-.37-.369h-.833l-.948.394-1.412-.372-.601.257-1.296-.3-.924.344v.74h-.255l.276.431-.24.376.25.614-.113.205.194.74-.227 1.4.136.228-.115.228.207 1.204-.437 1.22.29 1.019-.234.763.235.492-.15.643m13.105 3.24v-.294m-.151.533-.39-.192m.456.247h-.323m.39-.017-.2-.257m-.238-2.54v.276m-.02-.409-.313.504m.094-.458-.436.373h-.144l.105-.145.266-.151m.324-.237-.59.266m-.715-.087h.544m-1.219.24.695-.343m-3.209.943h.562l.409.125.494-.202.581-.276.659-.475m-3 1.247h.238m-.791.076.534-.343h.199v.056h-.18l-.143.133v.238m-.058.411h.514m-.494.143.275.123m.733 1.903.487-.18m-.629-.116.115-.343m-.115.507.152-.364h.096v.057l-.133.201m-.286.218v-.694m-3.797-2.525.817-.273-.12.143.501-.174.535.216m-3.271.023h.873m-1.395-.229.664.186m3.706.018-.281.147h-.068v-.101l.526-.14m-.02.072-.516.393m.607-.393-.26.382m-.135 2.47-.19-.449m.202.607-.741-.562v-.19h.157l.394.505m-4.9-1.27.225-.168m-.248.269h.484m-.27 1.011.225-.314m-.315.517.607-.484h.146l-.247.226-.348.247h.381m-.46-2.841h.517m-.641.202.337.348m-.349-.472.754.315"></path><path fill="none" stroke="#eebd7b" stroke-width=".15" stroke-miterlimit="10" d="m151.124 76.704 1.526-.11.892-.25 1.429-.397.802-.377.489-.044-.06-.214.13-.457-.155-.551-.315-.487-.14-.502.085-.551.043-.334-.095-.344-.173.169-.634.177-.47-.127-.698.194-.683.401-.553.155-.608.17-.648-.013-.574.159-.41.321-.242.262.325.115.11.395-.029.467.165.588.42.55.107.382-.036.253"></path><path fill="none" stroke="#eebd7b" stroke-width=".15" stroke-miterlimit="10" d="m144.536 76.12 1.498.303h2.41l.874-.149.481.092v-.225l.25-.405v-.57l-.175-.558v-.52l.23-.508.132-.309v-.357l-.213.115h-.659l-.417-.246h-.724l-.767.203h-1.204l-.62-.187h-.598l-.479.2-.304.185.28.2v.41l-.151.443v.608l.256.643v.4l-.1.232"></path><path fill="none" stroke="#eebd7b" stroke-width=".15" stroke-miterlimit="10" d="M156.827 75.865a22.101 22.101 0 0 1-13.252.162m12.544-14.975.171-.563.332.1-.172.564zm-12.259.042.337-.081-.136-.573-.337.081zm12.419 15.534.33-.11.187.561-.33.11zm-12.652.649.328.108.187-.56-.328-.108z"></path><path fill="none" stroke="#eebd7b" stroke-width=".15" stroke-miterlimit="10" d="M144.164 60.874a30.87 30.87 0 0 1 11.995.048"></path><path fill="none" stroke="#eebd7b" stroke-width=".15" stroke-miterlimit="10" d="M144.087 60.552a30.786 30.786 0 0 1 12.168.053m.069 16.158c-4.03.776-8.166.831-12.216.164"></path><path fill="none" stroke="#eebd7b" stroke-width=".15" stroke-miterlimit="10" d="M156.412 77.029c-4.087.8-8.285.854-12.392.166m13.21-2.201h2.664v2.665h-2.665zm-16.43 0h2.664v2.665h-2.665zm22.426-21.866a1.927 1.927 0 0 1-3.718 1.012"></path><path fill="none" stroke="#eebd7b" stroke-width=".15" stroke-miterlimit="10" d="M161.808 55.257a1.681 1.681 0 1 1-.881-3.245 1.681 1.681 0 0 1 .881 3.245z"></path><path fill="none" stroke="#eebd7b" stroke-width=".15" stroke-miterlimit="10" d="M157.721 50.282h7.43v2.286h-7.43zm-2.142 1.668h-8.592m8.592-.325h-8.592m0 .445v-.445m8.592 0v.445m-4.969-.964h1.345m3.624.964h-8.592m9.414-1.404h.985m0 0v1.404m0 0h-.985m0 0v-1.404m.985 1.269h-.985m1.32-1.653h-12.876m12.876 2.286h-12.876m12.876-2.286v2.286m-7.111-1.462a9.064 9.064 0 0 0-3.134.52m7.614-.001a9.068 9.068 0 0 0-3.135-.52m-5.791-.439h-.984m0 0v1.404m0 0h.984m0 0v-1.404m-.984 1.269h.984m-1.319-1.653v2.286m-4.685-2.288h4.685v2.288h-4.686zm4.685 1.896h-4.686m4.686 0-4.686-1.896m.001 1.896 4.685-1.896m-37.89-31.498V5.346h8.078v13.436h-8.078"></path><path fill="none" stroke="#eebd7b" stroke-width=".15" stroke-miterlimit="10" d="M107.403 5.794h7.18v12.54h-7.18zm-2.453 2.752-.499-.097m.499 1.861-.505.085m.06-2.575a15.472 15.472 0 0 0 0 3.32m.445-.726-.499.097m-.026-1.341h.524m.001.516h-.525m0 .106h.524m.088-2.034-.088.014m.001 3.418.085.014m-.085-.376-.458.109m.458-2.287-.5-.084m.5.707h-.526m.526-1.141-.46-.103m-.31-.463a8.18 8.18 0 0 0 .025 3.808m.3-3.554-.326-.254m.326 3.574-.3.234m.3-3.449.444.104m-.444 3.008.444-.104m.089.207v.209m1.917-.104-1.917-.105m0 .209 1.917.295m-2.005-.456V7.77m.088.048v-.207m1.917.104-1.917.103m0-.207 1.917-.297m-2.005 6.292-.499-.097m.499 1.861-.505.083m.06-2.573a15.479 15.479 0 0 0 0 3.32m.445-.728-.499.097m-.026-1.341h.524m.001.519h-.525m0 .105h.524m.088-2.036-.088.016m.001 3.417.085.016m-.085-.376-.458.108m.458-2.287-.5-.083m.5.704h-.526m.526-1.141-.46-.103m-.31-.463a8.193 8.193 0 0 0 .025 3.81m.3-3.554-.326-.256m.326 3.576-.3.235m.3-3.452.444.104m-.444 3.01.444-.104m.089.207v.206m1.917-.103-1.917-.102m0 .205 1.917.297m-2.005-.454V12.83m.088.049v-.21m1.917.104-1.917.106m0-.209 1.917-.296m10.085-3.828.496-.098m-.496 1.862.503.085m-.061-2.575a15.496 15.496 0 0 1 0 3.32m-.442-.726.496.097m.026-1.342h-.523m.001.517h.522m0 .106h-.523m-.088-2.034.088.014m.001 3.418-.087.014m.087-.376.454.109m-.454-2.287.498-.084m-.498.707h.523m-.523-1.142.46-.102m.31-.463a8.193 8.193 0 0 1-.026 3.808m-.302-3.554.327-.254m-.327 3.574.302.234m-.302-3.449-.443.104m.443 3.008-.443-.104m-.089.207v.208m-1.917-.103 1.917-.105m0 .208-1.917.296m2.007-.456V7.77m-.09.048v-.207m-1.917.104 1.917.103m0-.207-1.917-.297m2.007 6.292.496-.097m-.496 1.861.503.083m-.061-2.573a15.502 15.502 0 0 1 0 3.32m-.442-.728.496.097m.026-1.341h-.523m.001.519h.522m0 .105h-.523m-.088-2.036.088.016m.001 3.417-.087.016m.087-.376.454.108m-.454-2.287.498-.083m-.498.704h.523m-.523-1.141.46-.103m.31-.463a8.202 8.202 0 0 1-.026 3.81m-.302-3.554.327-.256m-.327 3.576.302.235m-.302-3.452-.443.104m.443 3.01-.443-.104m-.089.207v.206m-1.917-.103 1.917-.102m0 .205-1.917.297m2.007-.454V12.83m-.09.049v-.21m-1.917.104 1.917.106m0-.209-1.917-.296M145.34 82.4v-1.086s.112-.785.826-.861c.47-.077 3.184-.582 8.644-.582s8.197.505 8.665.582c.715.076.827.86.827.86v1.088"></path><g fill="none" stroke="#eebd7b" stroke-width=".15" stroke-miterlimit="10"><path d="M131.388 19.911c.323.048.627.105 1.001.169 1.215.337.634 1.29.027 1.29h-4.784s-.543-.058-.543-.427v-.903s-.05-.31 1.024-.374"></path><path d="M132.543 21.37h1.087s.785-.099.86-.734c.077-.417.582-2.831.582-7.686 0-4.854-.505-7.288-.581-7.704-.076-.637-.861-.736-.861-.736h-1.087"></path><path d="M132.731 20.202c-.546-1.09-.464-3.5-.464-3.923 0-.556-.11-1.082.203-1.25m1.809-.052c.001.016 0-.016 0 0l-.042 5.153c-.025.407-.278.626-.733.626a.703.703 0 0 1-.403-.109"></path><path d="M131.81 18.236c-.052-1.038-.035-2.22.1-3.207h.56m.198 5.091s-.455.06-.683-.437c-.05-.109-.12-.33-.154-.72m-1.453-3.986h3.9s.105-2.622-.016-4.03h-6.982s-.179-1.253-.154-2.465c.025-1.21.329-2.343.329-2.343m0 13.603s-.304-1.132-.329-2.342a17.922 17.922 0 0 1 .14-2.423h2.12"></path><path d="M132.416 4.51h-4.784s-.543.06-.543.427v.904s-.14.894 5.3-.04c1.215-.338.634-1.291.027-1.291z"></path><path d="M132.731 5.678c-.546 1.092-.492 3.768-.492 4.19 0 .557.08 1.06.08 1.077m1.943.002c.002-.017-.025-.889-.025-.905v-4.29c-.025-.407-.278-.626-.733-.626a.7.7 0 0 0-.403.109m-1.723 14.72c.272-.552.657-1.345.657-1.345s.178-.218 0-.277c-.177-.06-1.442-.438-1.442-.438"></path><path d="M128.991 18.346s-.625 1.198-.878 1.316c-.253.12 2.606.994 2.606.994s.304-.02.405-.2c.032-.054.132-.254.254-.501m-1.991-4.978c.755-.454.83-.322 1.256.456.02.034.12.16.255.332"></path><path d="M130.898 15.765c.397.502 1.105 1.386 1.011 1.475 0 0-2.176 1.072-2.48 1.171-.303.1-.506-.058-.506-.157 0-.1-1.113-1.55-1.164-1.729-.052-.178 1.043-1.284 1.628-1.548m3.056 0s-.121-.004-.147-.322c-.026-.316-.2-3.392.024-3.71l-.402-.193c-.178-.399-.12-4.145.067-4.553.228-.496.683-.438.683-.438"></path><path d="m131.918 14.977-.212-.14c-.019-.429-.064-2.293-.014-3.383a.736.736 0 0 1 .226-.458m-4.653 3.981s-.176.052-.189-.439c-.02-.773-.027-3.296-.027-3.296s.003-.217.23-.295"></path></g><path fill="none" stroke="#eebd7b" stroke-width=".15" stroke-miterlimit="10" d="M146.566 48.844h17.378m0-8.056h-2.666m-1.244 7.468.448-.267c.14.198.4.308 1.173.375a6.081 6.081 0 0 0 1.756-.108"></path><path fill="none" stroke="#eebd7b" stroke-width=".15" stroke-miterlimit="10" d="m163.41 48.256-.277-.858s.1-1.682.278-3.2c.223-1.899 0-2.876 0-2.876m-.001 0s-.341.27-1.462 0c-1.107-.267-1.578.216-1.578.216l-.692-.216m0 0 .2 1.155m-.2-.177.356.355m-13.202 6.135v-7.735m0 0h11.601m0 0 1.6 1.6m.001 0v6.134m-1.601-7.734v1.6m1.601 0h-1.6m1.6 6.135v-1.813m0 1.6h-13.202m0 0v.212m-.266.055v-8.056m0 0h17.378m0 0v8.056m-24.267-18.283v18.574m-.357-18.574v18.574m1.795-11.731a.205.205 0 0 0 .258-.13.205.205 0 0 0-.129-.257.283.283 0 0 0-.065-.009m-3.364.007a13.29 13.29 0 0 0 3.364-.007m-3.364.007a.196.196 0 1 0-.037.392h.032"></path><path fill="none" stroke="#eebd7b" stroke-width=".15" stroke-miterlimit="10" d="M141.115 37.404a13.4 13.4 0 0 0-3.305.002"></path><path fill="none" stroke="#eebd7b" stroke-width=".15" stroke-miterlimit="10" d="M139.894 37.22c0-.03-.19-.05-.42-.05-.233 0-.422.02-.422.05 0 .03.189.054.421.054.232 0 .42-.024.42-.054m1.212 1.14a.204.204 0 0 0 .128-.387.21.21 0 0 0-.065-.008"></path><path fill="none" stroke="#eebd7b" stroke-width=".15" stroke-miterlimit="10" d="M137.804 37.97c1.116.14 2.247.138 3.364-.005m-3.364.005a.197.197 0 0 0-.214.18.2.2 0 0 0 .21.213"></path><path fill="none" stroke="#eebd7b" stroke-width=".15" stroke-miterlimit="10" d="M141.105 38.36a13.202 13.202 0 0 0-3.306.003"></path><path fill="none" stroke="#eebd7b" stroke-width=".15" stroke-miterlimit="10" d="M139.883 38.176c0-.029-.19-.053-.42-.053-.233 0-.422.024-.422.053 0 .03.189.054.421.054.232 0 .42-.025.42-.054m1.272 1.1a.202.202 0 0 0 .255-.129.202.202 0 0 0-.192-.266m-3.363.005c1.116.142 2.248.139 3.363-.005m-3.363.005a.198.198 0 0 0-.215.179.2.2 0 0 0 .21.214"></path><path fill="none" stroke="#eebd7b" stroke-width=".15" stroke-miterlimit="10" d="M141.154 39.276a13.234 13.234 0 0 0-3.305.003"></path><path fill="none" stroke="#eebd7b" stroke-width=".15" stroke-miterlimit="10" d="M139.93 39.092c0-.03-.188-.053-.42-.053-.231 0-.419.023-.419.053s.188.053.42.053c.231 0 .42-.023.42-.053m1.191 1.178a.203.203 0 0 0 .129-.386.19.19 0 0 0-.065-.012"></path><path fill="none" stroke="#eebd7b" stroke-width=".15" stroke-miterlimit="10" d="M137.823 39.879c1.117.14 2.247.14 3.363-.004m-3.363.004a.197.197 0 1 0-.036.392l.031.001m3.304-.002a13.268 13.268 0 0 0-3.304.002"></path><path fill="none" stroke="#eebd7b" stroke-width=".15" stroke-miterlimit="10" d="M139.899 40.087c0-.03-.187-.053-.42-.053-.23 0-.418.023-.418.053 0 .029.188.051.418.051.233 0 .42-.022.42-.051m1.216 1.138a.203.203 0 1 0 .064-.396"></path><path fill="none" stroke="#eebd7b" stroke-width=".15" stroke-miterlimit="10" d="M137.815 40.836a13.29 13.29 0 0 0 3.364-.006m-3.364.006a.197.197 0 1 0-.005.392"></path><path fill="none" stroke="#eebd7b" stroke-width=".15" stroke-miterlimit="10" d="M141.115 41.225a13.323 13.323 0 0 0-3.305.002"></path><path fill="none" stroke="#eebd7b" stroke-width=".15" stroke-miterlimit="10" d="M139.894 41.042c0-.029-.19-.053-.42-.053-.233 0-.422.024-.422.053 0 .028.189.054.421.054.232 0 .42-.026.42-.054m1.265 1.264a.201.201 0 0 0 .255-.127.205.205 0 0 0-.129-.258.205.205 0 0 0-.063-.009m-3.364.005a13.23 13.23 0 0 0 3.364-.005m-3.364.005a.198.198 0 0 0-.214.179.194.194 0 0 0 .177.213h.033"></path><path fill="none" stroke="#eebd7b" stroke-width=".15" stroke-miterlimit="10" d="M141.158 42.306a13.361 13.361 0 0 0-3.305.003"></path><path fill="none" stroke="#eebd7b" stroke-width=".15" stroke-miterlimit="10" d="M139.934 42.124c0-.028-.19-.05-.42-.05-.232 0-.42.022-.42.05 0 .028.188.051.42.051.23 0 .42-.023.42-.051m1.162 1.243a.203.203 0 1 0 .129-.386.26.26 0 0 0-.064-.009m-3.363.006a13.26 13.26 0 0 0 3.363-.006m-3.363.006a.196.196 0 1 0-.037.392c.01 0 .02.002.032 0"></path><path fill="none" stroke="#eebd7b" stroke-width=".15" stroke-miterlimit="10" d="M141.096 43.367a13.347 13.347 0 0 0-3.303.003"></path><path fill="none" stroke="#eebd7b" stroke-width=".15" stroke-miterlimit="10" d="M139.873 43.185c0-.03-.188-.053-.419-.053-.231 0-.42.023-.42.053 0 .028.189.052.42.052.23 0 .42-.024.42-.052m1.228 1.143a.205.205 0 0 0 .128-.388.252.252 0 0 0-.064-.01"></path><path fill="none" stroke="#eebd7b" stroke-width=".15" stroke-miterlimit="10" d="M137.804 43.936c1.116.14 2.246.14 3.362-.005m-3.362.005a.2.2 0 0 0-.215.178.198.198 0 0 0 .176.214.117.117 0 0 0 .034.002m3.303-.002a13.138 13.138 0 0 0-3.303.002"></path><path fill="none" stroke="#eebd7b" stroke-width=".15" stroke-miterlimit="10" d="M139.88 44.142c0-.028-.188-.052-.42-.052-.23 0-.42.024-.42.052 0 .03.19.054.42.054.232 0 .42-.023.42-.054m1.22 1.322a.202.202 0 0 0 .256-.128.205.205 0 0 0-.192-.268"></path><path fill="none" stroke="#eebd7b" stroke-width=".15" stroke-miterlimit="10" d="M137.8 45.075c1.116.139 2.247.138 3.364-.007m-3.364.007a.197.197 0 1 0-.004.392"></path><path fill="none" stroke="#eebd7b" stroke-width=".15" stroke-miterlimit="10" d="M141.1 45.464a13.226 13.226 0 0 0-3.305.003"></path><path fill="none" stroke="#eebd7b" stroke-width=".15" stroke-miterlimit="10" d="M139.877 45.28c0-.027-.188-.053-.421-.053-.231 0-.42.026-.42.054 0 .029.189.052.42.052.233 0 .42-.023.42-.052m1.278 1.21a.205.205 0 0 0 .128-.389.197.197 0 0 0-.064-.01"></path><path fill="none" stroke="#eebd7b" stroke-width=".15" stroke-miterlimit="10" d="M137.854 46.1a13.29 13.29 0 0 0 3.364-.007m-3.364.007a.198.198 0 0 0-.215.178.198.198 0 0 0 .21.214"></path><path fill="none" stroke="#eebd7b" stroke-width=".15" stroke-miterlimit="10" d="M141.154 46.491a13.153 13.153 0 0 0-3.305.001"></path><path fill="none" stroke="#eebd7b" stroke-width=".15" stroke-miterlimit="10" d="M139.931 46.304c0-.028-.188-.051-.42-.051-.232 0-.42.023-.42.051 0 .031.188.055.42.055.232 0 .42-.024.42-.055m-3.111-15.743h5.353v18.427"></path><path fill="none" stroke="#eebd7b" stroke-width=".15" stroke-miterlimit="10" d="M141.115 31.518a.204.204 0 0 0 .258-.13.201.201 0 0 0-.129-.255.222.222 0 0 0-.065-.011m-3.364.007c1.117.14 2.248.137 3.364-.007m-3.364.007a.197.197 0 0 0-.214.176c-.01.11.07.206.177.215h.032m3.305-.002a13.32 13.32 0 0 0-3.305.002"></path><path fill="none" stroke="#eebd7b" stroke-width=".15" stroke-miterlimit="10" d="M139.894 31.335c0-.03-.19-.052-.42-.052-.233 0-.422.022-.422.052 0 .028.189.05.421.05.232 0 .42-.022.42-.05m1.212 1.139a.206.206 0 0 0 .256-.129.205.205 0 0 0-.193-.269"></path><path fill="none" stroke="#eebd7b" stroke-width=".15" stroke-miterlimit="10" d="M137.804 32.082c1.117.143 2.247.14 3.364-.004m-3.364.004a.2.2 0 0 0-.214.18c-.01.107.07.203.177.212a.057.057 0 0 0 .032.003"></path><path fill="none" stroke="#eebd7b" stroke-width=".15" stroke-miterlimit="10" d="M141.105 32.474a13.248 13.248 0 0 0-3.306.003"></path><path fill="none" stroke="#eebd7b" stroke-width=".15" stroke-miterlimit="10" d="M139.883 32.29c0-.029-.19-.053-.42-.053-.233 0-.422.024-.422.052 0 .03.189.055.421.055.232 0 .42-.025.42-.055m1.272 1.101a.203.203 0 1 0 .064-.398m-3.364.006a13.19 13.19 0 0 0 3.363-.004m-3.363.004a.2.2 0 0 0-.215.178.195.195 0 0 0 .178.214.13.13 0 0 0 .032.003m3.305-.003a13.266 13.266 0 0 0-3.305.003"></path><path fill="none" stroke="#eebd7b" stroke-width=".15" stroke-miterlimit="10" d="M139.93 33.206c0-.03-.188-.053-.42-.053-.231 0-.419.023-.419.053 0 .029.188.054.42.054.231 0 .42-.025.42-.054m1.191 1.177a.203.203 0 0 0 .257-.13.201.201 0 0 0-.128-.255.188.188 0 0 0-.065-.012m-3.363.007c1.117.14 2.247.14 3.363-.007m-3.363.007a.196.196 0 0 0-.214.179.196.196 0 0 0 .178.212c.009.003.02.003.031 0"></path><path fill="none" stroke="#eebd7b" stroke-width=".15" stroke-miterlimit="10" d="M141.122 34.383a13.193 13.193 0 0 0-3.304.001"></path><path fill="none" stroke="#eebd7b" stroke-width=".15" stroke-miterlimit="10" d="M139.899 34.2c0-.031-.187-.055-.42-.055-.23 0-.418.024-.418.054 0 .028.188.052.418.052.233 0 .42-.024.42-.052m1.216 1.14a.203.203 0 0 0 .258-.13.206.206 0 0 0-.129-.258.246.246 0 0 0-.065-.01"></path><path fill="none" stroke="#eebd7b" stroke-width=".15" stroke-miterlimit="10" d="M137.815 34.949c1.117.141 2.248.138 3.364-.007m-3.364.007a.2.2 0 0 0-.214.178.196.196 0 0 0 .21.214"></path><path fill="none" stroke="#eebd7b" stroke-width=".15" stroke-miterlimit="10" d="M141.115 35.339a13.311 13.311 0 0 0-3.305.002"></path><path fill="none" stroke="#eebd7b" stroke-width=".15" stroke-miterlimit="10" d="M139.894 35.154c0-.028-.19-.05-.42-.05-.233 0-.422.022-.422.05 0 .03.189.054.421.054.232 0 .42-.025.42-.054m1.265 1.266a.202.202 0 0 0 .255-.128.203.203 0 0 0-.129-.257.205.205 0 0 0-.063-.01"></path><path fill="none" stroke="#eebd7b" stroke-width=".15" stroke-miterlimit="10" d="M137.857 36.033c1.117.137 2.248.136 3.364-.007m-3.364.007a.193.193 0 0 0-.214.175.198.198 0 0 0 .177.216h.033m3.305-.004a13.204 13.204 0 0 0-3.305.004"></path><path fill="none" stroke="#eebd7b" stroke-width=".15" stroke-miterlimit="10" d="M139.934 36.237c0-.029-.19-.052-.42-.052-.232 0-.42.023-.42.052 0 .028.188.051.42.051.23 0 .42-.023.42-.05m-3.114-5.677v18.427m4.308-1.521a.201.201 0 0 0 .257-.13.201.201 0 0 0-.128-.257.206.206 0 0 0-.064-.012"></path><path fill="none" stroke="#eebd7b" stroke-width=".15" stroke-miterlimit="10" d="M137.829 47.078c1.117.137 2.247.136 3.364-.007m-3.364.007a.194.194 0 0 0-.215.177.2.2 0 0 0 .21.213"></path><path fill="none" stroke="#eebd7b" stroke-width=".15" stroke-miterlimit="10" d="M141.128 47.467a13.272 13.272 0 0 0-3.305.001"></path><path fill="none" stroke="#eebd7b" stroke-width=".15" stroke-miterlimit="10" d="M139.906 47.282c0-.029-.188-.053-.42-.053-.233 0-.42.024-.42.053 0 .03.187.052.42.052.232 0 .42-.023.42-.052m21.057-18.849a2.13 2.13 0 1 0-3.799 1.929"></path><path fill="none" stroke="#eebd7b" stroke-width=".15" stroke-miterlimit="10" d="M157.164 30.362a2.13 2.13 0 1 0 3.8-1.93"></path><path fill="none" stroke="#eebd7b" stroke-width=".15" stroke-miterlimit="10" d="M156.777 30.559a2.565 2.565 0 1 0 4.574-2.323m-9.466-7.39h12.817v5.83h-12.817zm4.892 9.713.387-.197m4.186-2.126-.387.197m-29.487 5.244h3.776v11.685h-3.776zm.001-3.421h3.775v3.421h-3.775zm.353 3.421v-3.536m.08 3.536 3.24-3.393m-3.24.053 3.264 3.34m-3.697 11.746h3.776v3.422h-3.776zm.353 3.421v-3.536m.08 3.537 3.241-3.393m-3.241.052 3.264 3.34M101.64 71.49h13.458v6H101.64zm0 1.03h13.458m-13.458 0 13.458 4.97m0-4.97-13.458 4.97"></path><path fill="none" stroke="#eebd7b" stroke-width=".25" stroke-linecap="round" stroke-linejoin="round" stroke-miterlimit="10" d="M168.799 85.688V79.21m0-1.046v-6.342m0 0h-2.183m0 0v.636m0 0h-1.454m0 0v5.502m0 1.454v6.274m3.637-28.96V41.77m0 0h-2.183m0 0v.636m0 0h-1.454m0 0v6.73m0 1.045v5.91m0 0h1.454m0 0v.637m0 0h2.183m0-30.052V16.492m-3.637 3.638v5.91m0 0h1.454m0 0v.636m0 0h2.183m0 0V41.77m0 14.958v15.094m-3.637.636V56.091m0-13.685V26.04m3.637-9.548h-10.184m0 0v2.182m.636.546v.91m0 0h5.91m-21.641-3.638h-4.227M136.7 20.13h6.184m0 0v-.91m.509-.546h.128m-.001 0v-2.182m7.548 0h7.865m.318 3.638h-8.183M139.293.125h-17.14m-.001 0v2.182m0 0h.637m0 0v1.455m0 0h12.866M107.058.125H77.052m.636 3.637h13.64m1.455 0h13.639m0 0V2.307m0 0h.636m0 0V.125m0 0h15.094m.637 3.637h-16.367m29.233 0v12.73m3.638 0V.125M83.872 57.182h16.367m0-.909h-6.365m-.909 0h-9.093m10.002 0v-4.546m-.909 0v4.546M91.328 3.762v31.825m0 1.046v13.639m1.455 0v-13.64m0-1.045V3.762m8.911 89.201V79.414m0-1.454V66.876m0 0h-1.455m0 0v26.087m1.455-35.179v-6.466m-1.455.409v4.546m0 .909v.602m0 0h1.455m13.639 3.536v16.64m1.045 0V62.365m-.495-12.093h-6.142m-.001 0v1.046m0 0h7.189m-15.235 0h.682m0 0v-1.046m-9.593-13.639h23.1m1.046-1.046H92.783m24.146 15.731V35.587m-1.046 1.046v13.639M91.328 35.587H67.186m1.046 1.046h23.096m77.471 42.577h14.162m-17.799-1.25h-48.784m-1.045 0h-13.64m.001 1.454h25.823m1.046 0h36.599m-36.599 13.094V79.414m-1.046 0v12.048m-25.141-41.19h-9.593m1.091 1.455h6.365m-16.367 0h9.093m-1.637-1.455h-8.911m42.786.738h1.046m0 0v-.829m-1.046 9.103v2.036m1.046 1.045v-3.081m0 0h-1.046m0 2.036h-9.87m1.045 1.045h9.87m9.407-45.873v5.001m0 0h1.046m-.001 0V20.13m-1.045 9.638v19.367m1.045 0V29.768m0 0h-1.045m-9.406 20.413h38.913m0-1.046H136.7m-1.045 0h-10.452m0 0v1.874m40.231-47.964h-25.687m25.687-.728h-25.687m25.687.728h.455m0 0v-.728m0 0h-.455m0 0v.728m-26.141 0h.454m0 0v-.728m0 0h-.454m0 0v.728m26.596 12.992V3.045m.727 12.992V2.762m-.727 13.275v.455m0 0h.727m0 0v-.455m0 0h-.727m0-13.73v.455m0 0h.727m0 0v-.455m0 0h-.727m-65.65 34.508h-7.274m0 0v3.637m0 0h7.274m0 0v-3.637m-6.819.363h.908m0 0v2.91m0 0h-.909m.001 0v-2.91m6.364 2.91h-.91m.001 0v-2.91m0 0h.909m0 0v2.91m-1.364 0h-3.637m0 0v-2.91m0 0h3.637m0 0v2.91m52.648-19.958v-1m0-.547v-2.091"></path><path d="M103.057 46.744c.088.056.29.143.503.143.395 0 .517-.251.513-.44-.003-.318-.29-.455-.586-.455h-.171v-.23h.17c.224 0 .507-.115.507-.384 0-.183-.115-.343-.398-.343a.83.83 0 0 0-.454.15l-.08-.223c.118-.088.35-.175.593-.175.448 0 .65.266.65.541 0 .235-.14.434-.42.535v.007c.28.056.508.266.508.584 0 .364-.283.68-.828.68a1.16 1.16 0 0 1-.591-.152l.084-.238zm1.621.783c.077-.207.172-.58.21-.835l.343-.036a4.343 4.343 0 0 1-.332.85l-.221.02zm1.776-.43v-.618H105.4v-.203l1.012-1.45h.332v1.411h.319v.242h-.319v.618h-.29zm0-.86v-.758c0-.118.004-.238.011-.357h-.01c-.07.133-.127.232-.19.336l-.555.773v.006h.744zm2.321-1.412v.204l-.99 2.068h-.317l.985-2.009v-.008h-1.111v-.255h1.433zm-2.069 16.483h-.866l-.088.584c.053-.008.102-.015.186-.015.174 0 .35.04.489.122a.648.648 0 0 1 .325.584c0 .444-.353.776-.846.776a1.11 1.11 0 0 1-.566-.14l.077-.233c.095.055.28.125.486.125.29 0 .538-.189.538-.493-.003-.294-.2-.503-.654-.503-.129 0-.23.014-.314.025l.147-1.091h1.086v.259zm.339 2.442c.077-.206.172-.58.21-.835l.343-.035a4.343 4.343 0 0 1-.332.85l-.22.02zm2.301-2.701v.203l-.99 2.068h-.317l.986-2.008v-.008h-1.112v-.255h1.433zm1.831 1.111c0 .773-.287 1.199-.79 1.199-.443 0-.744-.415-.751-1.167 0-.762.328-1.181.789-1.181.48 0 .752.426.752 1.15zm-1.233.035c0 .591.181.926.46.926.315 0 .465-.367.465-.947 0-.559-.143-.926-.46-.926-.27 0-.465.33-.465.947zm20.44.281h-.007l-.394.213-.06-.235.496-.265h.263v2.271h-.298v-1.984zm2.079 1.984v-.618h-1.055v-.203l1.013-1.45h.332V63.6h.318v.241h-.318v.618h-.29zm0-.86v-.758c0-.118.004-.237.01-.356h-.01c-.07.132-.126.231-.188.335l-.556.773v.007h.744zm.744 1.29c.077-.206.172-.58.21-.835l.343-.035a4.343 4.343 0 0 1-.332.85l-.22.02zm1.004-.647c.067.007.144 0 .25-.01a.856.856 0 0 0 .474-.22.996.996 0 0 0 .3-.605h-.01a.668.668 0 0 1-.534.245c-.41 0-.671-.307-.671-.696 0-.43.31-.806.775-.806s.751.377.751.957c0 .5-.167.85-.39 1.066a1.14 1.14 0 0 1-.662.304c-.111.017-.209.02-.283.017v-.252zm.112-1.306c0 .283.171.482.437.482a.508.508 0 0 0 .447-.238.199.199 0 0 0 .029-.111c0-.388-.144-.685-.465-.685-.262 0-.448.23-.448.552zm2.173-.461h-.007l-.394.213-.06-.235.496-.265h.263v2.271h-.298v-1.984zm9.998-50.172v-.618h-1.054v-.203l1.012-1.45h.332v1.412h.319v.24h-.319v.619h-.29zm0-.86v-.758c0-.118.004-.238.011-.357h-.01c-.07.133-.127.232-.19.336l-.555.773v.007h.744zm.744 1.29c.078-.206.172-.58.21-.835l.343-.036a4.343 4.343 0 0 1-.332.85l-.22.02zm2.124-2.484c-.064-.005-.144 0-.232.013a.923.923 0 0 0-.789.807h.01a.677.677 0 0 1 .549-.261c.402 0 .684.29.684.733 0 .416-.282.8-.754.8-.486 0-.803-.377-.803-.968 0-.447.16-.8.383-1.023.189-.186.44-.301.727-.336.092-.014.168-.018.225-.018v.252zm-.088 1.31c0-.325-.186-.52-.468-.52a.506.506 0 0 0-.44.279.257.257 0 0 0-.036.136c.007.373.178.65.5.65.266 0 .444-.22.444-.545zm.766.527c.065.007.142 0 .247-.01a.856.856 0 0 0 .475-.22.996.996 0 0 0 .3-.605h-.01a.668.668 0 0 1-.534.244c-.41 0-.671-.306-.671-.695 0-.43.31-.807.775-.807s.751.377.751.957c0 .5-.167.85-.39 1.067a1.14 1.14 0 0 1-.662.303c-.11.018-.209.021-.282.018v-.252zm.11-1.307c0 .284.171.483.437.483a.508.508 0 0 0 .447-.238.199.199 0 0 0 .029-.112c0-.387-.144-.684-.465-.684-.262 0-.447.23-.447.551zm2.272-.9c-.256.34-.44.796-.44 1.428 0 .622.192 1.07.44 1.419h-.241c-.22-.29-.458-.738-.458-1.42.004-.688.237-1.135.458-1.428h.241zm.896.44h-.007l-.395.212-.06-.234.497-.266h.262v2.272h-.297V10.32zm1.027 2.414c.077-.206.172-.58.21-.835l.343-.036a4.343 4.343 0 0 1-.332.85l-.221.02zm1.776-.43v-.618h-1.054v-.203l1.012-1.45h.332v1.412h.319v.24h-.319v.619h-.29zm0-.86v-.758c0-.118.004-.238.011-.357h-.01c-.07.133-.127.232-.19.336l-.555.773v.007h.744zm1.513-1.124h-.007l-.394.212-.06-.234.496-.266h.263v2.272h-.298V10.32zm1.042 2.407c.248-.346.44-.8.44-1.429 0-.626-.19-1.073-.44-1.419h.237c.224.286.458.733.458 1.422 0 .685-.234 1.129-.458 1.426h-.237zm-46.822 11.802h-.007l-.395.212-.06-.234.497-.266h.263v2.272h-.298v-1.984zm1.306 1.767c.067.007.144 0 .25-.01a.856.856 0 0 0 .474-.22.996.996 0 0 0 .3-.605h-.01a.668.668 0 0 1-.534.244c-.41 0-.671-.306-.671-.695 0-.43.31-.807.775-.807s.751.377.751.957c0 .5-.167.85-.39 1.067a1.14 1.14 0 0 1-.661.303c-.112.018-.21.021-.284.018v-.252zm.113-1.307c0 .284.17.483.436.483a.508.508 0 0 0 .447-.238.199.199 0 0 0 .029-.112c0-.387-.144-.684-.465-.684-.262 0-.447.23-.447.551zm1.404 1.954c.077-.206.172-.58.21-.835l.343-.036a4.343 4.343 0 0 1-.332.85l-.221.02zm2.122-2.485c-.062-.004-.143 0-.23.014a.923.923 0 0 0-.79.807h.01a.677.677 0 0 1 .55-.261c.401 0 .685.29.685.733 0 .416-.284.8-.755.8-.487 0-.804-.377-.804-.968 0-.447.16-.8.384-1.023a1.23 1.23 0 0 1 .727-.336 1.51 1.51 0 0 1 .223-.018v.252zm-.087 1.31c0-.324-.185-.52-.468-.52a.506.506 0 0 0-.44.28.257.257 0 0 0-.035.136c.007.373.177.65.5.65.265 0 .443-.22.443-.545zm2.097-.415c0 .772-.287 1.198-.79 1.198-.444 0-.744-.415-.751-1.167 0-.762.328-1.18.789-1.18.48 0 .752.425.752 1.149zm-1.234.035c0 .59.182.926.461.926.315 0 .465-.368.465-.948 0-.558-.143-.925-.46-.925-.27 0-.466.329-.466.947zm30.623 9.607c.067.007.144 0 .25-.01a.856.856 0 0 0 .474-.22.994.994 0 0 0 .3-.605h-.01a.668.668 0 0 1-.534.244c-.41 0-.671-.306-.671-.695 0-.43.31-.806.775-.806s.751.376.751.957c0 .5-.167.85-.39 1.066a1.14 1.14 0 0 1-.661.304c-.112.017-.21.02-.284.017v-.252zm.113-1.306c0 .283.17.482.436.482a.508.508 0 0 0 .448-.238.199.199 0 0 0 .028-.112c0-.387-.144-.684-.465-.684-.262 0-.447.23-.447.552zm1.404 1.953c.077-.206.172-.58.21-.835l.343-.035a4.343 4.343 0 0 1-.332.85l-.221.02zm2.301-2.702v.204l-.99 2.068h-.317l.986-2.009v-.008h-1.112v-.254h1.433zm.321 2.272v-.188l.241-.235c.58-.552.842-.845.846-1.188 0-.23-.112-.444-.451-.444a.773.773 0 0 0-.483.193l-.097-.217a.997.997 0 0 1 .643-.23c.49 0 .696.334.696.66 0 .42-.305.758-.784 1.22l-.181.167v.007h1.02v.255h-1.45z" fill="#eebd7b"></path></g></svg>