<svg version="1.1" xmlns="http://www.w3.org/2000/svg" xmlns:xlink="http://www.w3.org/1999/xlink" viewBox="94.197 77.96 90.031 31.494"><path fill-rule="evenodd" clip-rule="evenodd" fill="none" d="m94.299 77.96 89.929.204v31.29H94.197z"></path><path fill-rule="evenodd" clip-rule="evenodd" fill="none" d="m101.694 79.414 80.744-.204v28.96l-80.808-.002z"></path><clipPath id="a"><path fill-rule="evenodd" clip-rule="evenodd" fill="none" d="m94.299 77.96 89.929.204v31.29H94.197z"></path></clipPath><g clip-path="url(#a)"><path fill-rule="evenodd" clip-rule="evenodd" fill="#eebd7b" d="M100.239 128.516h.114V109.42h-.114v11.067zm.795 0h.114v-9.207h-.114v9.207m.114-9.889v-9.206h-.114v9.206h.114z"></path><path fill-rule="evenodd" clip-rule="evenodd" fill="#eebd7b" d="M106.24 109.42v-1.454h-6.001v1.455h4.546z"></path><path fill-rule="evenodd" clip-rule="evenodd" fill="#eebd7b" d="M104.785 128.516h1.455V109.42h-1.455v16.375zm60.377-19.096v-1.454H106.24v1.455h31.611zm-64.923-1.454h1.455v-5.91h-1.455v5.91m1.455-15.003V66.876h-1.455v26.087h1.455m0-35.18v-7.511h-1.455v7.512h1.455zm13.639 20.177h1.045V61.32h-1.045v16.515zm12.184 1.454h37.645V77.96h-63.468v1.454h14.684zm0 0h1.046v13.094h-1.046z"></path><path fill-rule="evenodd" clip-rule="evenodd" fill="#eebd7b" d="M107.15 92.508v-1.046h-5.456v1.046h5.455m7.366 0h13.002v-1.046h-13.002v1.046zm2.773 15.458v-5.91h-1.046v5.91h1.046m-1.046-14.185h1.046v-1.273h-1.046v1.273zm14.003 15.648h1.046v17.412h-1.046zM102.24 91.28h3.273v-7.274h-3.638v7.275h.364m2.91-.455h-2.91v-.91h2.91v.91m0-1.364h-2.91v-3.637h2.91v3.637m-2.91-4.092v-.91h2.91v.91h-2.91zm65.251 23.858h15.313v-1.046h-16.187v1.046zm-.874-31.064h16.346v1.046h-16.346z"></path><path fill-rule="evenodd" clip-rule="evenodd" fill="#eebd7b" d="M168.799 85.688V71.777h-2.182l-.036.636h-1.42v13.275zm-3.638 16.367h3.638v13.3h-3.638zm-64.967 7.152h.954v19.468h-.954z"></path><path fill="none" stroke="#eebd7b" stroke-width=".25" stroke-linecap="round" stroke-linejoin="round" stroke-miterlimit="10" d="m100.239 92.963-4.547 7.874m11.458-8.329 6.378 3.683m3.76-2.41 4.137 7.166"></path><path fill="none" stroke="#eebd7b" stroke-width=".2" stroke-linecap="round" stroke-linejoin="round" stroke-miterlimit="10" d="M166.07 85.688h.546m-.546 16.367h.546m0-8.692h-.545m-.001 0v1.018m0 0h.546m0 0v-1.018m0-7.165h-.545m-.001 0v-.51m0 0h.546m0 0v.51m0 15.348h-.545m-.001 0v.51m0-.001h.546m0 0v-.509m-.546 0-3.582-6.205m4.128-1.978v-7.165m-.546 0v7.165"></path><path fill="none" stroke="#eebd7b" stroke-width=".15" stroke-linecap="round" stroke-linejoin="round" stroke-miterlimit="10" d="M144.932 84.87h-5.455v-5.456"></path><path fill="none" stroke="#eebd7b" stroke-width=".15" stroke-linecap="round" stroke-linejoin="round" stroke-miterlimit="10" d="M144.932 79.414v5.456l-5.455-5.456m5.455 0-5.455 5.456"></path><path fill="none" stroke="#eebd7b" stroke-width=".15" stroke-linecap="round" stroke-linejoin="round" stroke-miterlimit="10" d="M139.477 82.142a2.728 2.728 0 1 0 5.455 0 2.728 2.728 0 0 0-5.455 0zm-13.62-1.362a.28.28 0 1 0 0 .56.28.28 0 0 0 0-.56z"></path><path fill="none" stroke="#eebd7b" stroke-width=".15" stroke-linecap="round" stroke-linejoin="round" stroke-miterlimit="10" d="M125.857 80.86a.2.2 0 1 0 0 .4.2.2 0 0 0 0-.4zm-6.523 4.556v-6.002m0 0v8.184h8.183m-1.443-5.832 1.443 5.068"></path><path fill="none" stroke="#eebd7b" stroke-width=".15" stroke-linecap="round" stroke-linejoin="round" stroke-miterlimit="10" d="M120.097 79.414v7.42h7.42m-1.66-5.41v-.23m.363-.134h-.23m-.133-.133v-.23m-.133.363h-.23m-.141.52-5.256 5.254m6.293-6.293 1.127-1.127m-2.352 1.445-5.068-1.445m-9.114 1.333a13.567 13.567 0 0 1-3.3 0m3.3 0a.19.19 0 0 0 .167-.191m-.128 3.529a1.518 1.518 0 0 1-.075.45 1.58 1.58 0 0 1-.27.502 1.684 1.684 0 0 1-.691.518 1.787 1.787 0 0 1-1.151.07 1.695 1.695 0 0 1-.742-.433 1.589 1.589 0 0 1-.41-.736 1.516 1.516 0 0 1-.04-.28c-.002-.033-.002-.065-.002-.098"></path><path fill="none" stroke="#eebd7b" stroke-width=".15" stroke-linecap="round" stroke-linejoin="round" stroke-miterlimit="10" d="M110.945 84.084a1.471 1.471 0 0 1-.241.784 1.564 1.564 0 0 1-.34.376 1.631 1.631 0 0 1-.446.255 1.699 1.699 0 0 1-1.375-.071 1.596 1.596 0 0 1-.429-.325 1.501 1.501 0 0 1-.356-.658 1.453 1.453 0 0 1-.038-.27c-.002-.032-.002-.063-.002-.095m-.205-3.524a.19.19 0 0 0 .17.191m1.649-.773a.159.159 0 0 0-.158.16c0 .09.07.161.158.161a.159.159 0 0 0 .157-.16c0-.09-.07-.161-.157-.161zm1.818.582v-1.142m-3.637 0v1.142"></path><path fill="none" stroke="#eebd7b" stroke-width=".15" stroke-linecap="round" stroke-linejoin="round" stroke-miterlimit="10" d="M111.022 80.74v3.345l-.32-2.766h-2.741l-.32 2.76m3.305.006-.32-2.766m-2.909 2.759.32-2.759m-.396-.581v3.39m9.965-3.532a.455.455 0 0 0-.455-.454m0 2.728a.455.455 0 0 0 .455-.455m-3.637 0c0 .251.203.455.455.455m0-2.728a.455.455 0 0 0-.455.454"></path><path fill="none" stroke="#eebd7b" stroke-width=".15" stroke-linecap="round" stroke-linejoin="round" stroke-miterlimit="10" d="M113.514 79.414v3.82h4.547v-3.82m-3.637.728h2.727m.455.454v1.819m-.455.455h-2.727m-.455-.455v-1.819m1.819.591v-.23m.362-.133h-.23m-.132-.134v-.23m-.134.364h-.23"></path><path fill="none" stroke="#eebd7b" stroke-width=".15" stroke-linecap="round" stroke-linejoin="round" stroke-miterlimit="10" d="M116.067 80.824a.28.28 0 1 0-.56 0 .28.28 0 0 0 .56 0z"></path><path fill="none" stroke="#eebd7b" stroke-width=".15" stroke-linecap="round" stroke-linejoin="round" stroke-miterlimit="10" d="M115.987 80.824a.2.2 0 1 0-.4 0 .2.2 0 0 0 .4 0zm14.485 8.047a.455.455 0 0 1-.454-.455m3.637 0a.455.455 0 0 1-.455.455m0-3.637c.251 0 .455.203.455.454m-3.637 0c0-.25.203-.454.454-.454"></path><path fill="none" stroke="#eebd7b" stroke-width=".15" stroke-linecap="round" stroke-linejoin="round" stroke-miterlimit="10" d="M128.563 91.235h5.456V84.87h-5.456m4.183 6.001v-2m-.456 2v-2m-.454 2v-2m-.454 2v-2m-.455 2v-2"></path><path fill="none" stroke="#eebd7b" stroke-width=".15" stroke-linecap="round" stroke-linejoin="round" stroke-miterlimit="10" d="M130.472 90.871v-2h2.728v2"></path><path fill="none" stroke="#eebd7b" stroke-width=".15" stroke-linecap="round" stroke-linejoin="round" stroke-miterlimit="10" d="M133.655 88.419v2.452h-3.637v-2.448m0-2.735v2.728m3.637 0v-2.728m-.455-.454h-2.728m.228 1.818h.727m-.364.364v-.727m0 .545a.182.182 0 1 1 0-.364.182.182 0 0 1 0 .364z"></path><path fill="none" stroke="#eebd7b" stroke-width=".15" stroke-linecap="round" stroke-linejoin="round" stroke-miterlimit="10" d="M131.063 87.325a.273.273 0 1 1 0-.546.273.273 0 0 1 0 .546zm-15.367 23.235v-1.14m-3.636 0v1.14m6.015-1.14v3.82h4.546v-3.82m7.624.009h-6.365m0 0v15.458m10.139-45.473v5.456h5.455v-5.456m-1.409 3.133V83m0 .647v.455m.778-.778h-.455m-.646 0h-.455m-1.859-.777V83m0 .647v.455m-.778-.778h.455m.646 0h.455m1.859-1.586v-.455m0-.646v-.455m.778.778h-.455m-.646 0h-.455m-1.859.778v-.455m0-.646v-.455m-.778.778h.455m.646 0h.455m-8.006 21.55h-5.456v5.456"></path><path fill="none" stroke="#eebd7b" stroke-width=".15" stroke-linecap="round" stroke-linejoin="round" stroke-miterlimit="10" d="M128.2 107.966v-5.456l-5.456 5.456m5.456 0-5.456-5.456m2.727 3.21v-.964m-.481.482h.963m-8.665-2.728h5.456m5.456 0h5.455m0 0v5.456"></path><path fill="none" stroke="#eebd7b" stroke-width=".15" stroke-miterlimit="10" d="M151.467 105.872h10.381m-10.381.325h10.381m0-.445v.445m-10.381 0v-.445m6.003.965h-1.625m-4.378-.965h10.381m-11.376 1.405h-1.19m.001 0v-1.405m0 0h1.189m0 0v1.405m-1.189-1.269h1.189m-1.594 1.653h15.56m-15.56-2.287h15.56m-15.56 2.287v-2.287m8.592 1.463a13.05 13.05 0 0 0 3.789-.52m-9.202 0a13.07 13.07 0 0 0 3.788.52m6.999.44h1.188m0 0v-1.405m0 0h-1.188m0 0v1.405m1.188-1.269h-1.188m1.593 1.653v-2.287m-26.369 2.633.017-9.625 6.698-.007-.017 9.624-6.698.008"></path><path fill="none" stroke="#eebd7b" stroke-width=".15" stroke-miterlimit="10" d="m138.6 107.162-.019-8.429 5.706-.006.02 8.429zm-2.737-5.845-.551-.098m.568 1.955-.558.094m.044-2.71a15.517 15.517 0 0 0 .03 3.493m.484-.768-.55.107m-.04-1.412.579-.005m.005.545-.58.005m.001.111.58-.005m.078-2.143-.097.016m.031 3.598.095.014m-.098-.395-.505.119m.485-2.411-.552-.084m.558.74-.58.005m.57-1.207-.51-.104m-.348-.484a8.213 8.213 0 0 0 .064 4.008m.3-3.743-.364-.265m.394 3.758-.33.25m.301-3.633.491.105m-.463 3.17.49-.113m.1.216.002.22m2.118-.127-2.12-.093m.002.22 2.122.292m-2.222-.46-.031-3.598m.098.05-.002-.218m2.121.091-2.119.127m-.002-.218 2.117-.33m8.903 3.23.55.103m-.55-1.96.558-.089m-.067 2.71a15.523 15.523 0 0 0 0-3.494m-.491.764.55-.102m.03 1.413h-.58m0-.545h.58m0-.111h-.58m-.096 2.142.096-.015m0-3.599-.094-.014m.094.395.506-.114m-.506 2.406.552.09m-.552-.745h.58m-.58 1.202.509.108m.343.487a8.212 8.212 0 0 0-.028-4.008m-.333 3.74.361.268m-.361-3.762.333-.246m-.333 3.63-.49-.11m.49-3.166-.49.11m-.098-.218v-.22m-2.144.08 2.121.093m-.002-.22-2.122-.292m2.244.508v3.599m-.097-.051v.218m-2.111-.139 2.119-.127m.001.219-2.117.33"></path><g fill="none" stroke="#eebd7b" stroke-width=".15" stroke-miterlimit="10"><path d="M146.982 83.555c-.054-.322-.118-.626-.19-1-.38-1.216-1.452-.634-1.452-.027v4.784s.066.542.48.542h1.016s.349.05.42-1.023"></path><path d="M145.34 82.4v-1.086s.112-.785.826-.861c.47-.077 3.184-.582 8.644-.582s8.197.505 8.665.582c.715.076.827.86.827.86v1.088"></path><path d="M146.654 82.212c1.226.546 3.883.342 4.359.342.625 0 .584-.053.602-.054m0-1.79a.596.596 0 0 0-.055-.003h-4.825c-.457.025-.703.277-.703.732a.646.646 0 0 0 .122.404"></path><path d="M148.865 83.133c1.167.053 2.498.036 2.773-.073v-.56m-4.891-.224s-.067.455.491.682c.122.05.372.121.81.154m3.59.934v-3.337s3.842-.148 6.365 0v6.982s.47.151 1.832.126a14.021 14.021 0 0 0 2.635-.328m-15.299 0s1.274.303 2.635.328c1.362.025 1.832-.126 1.832-.126V85.57"></path><path d="M164.302 82.528v4.784s-.067.542-.48.542h-1.017s-1.005.14.046-5.3c.38-1.215 1.451-.633 1.451-.026z"></path><path d="M162.989 82.212c-1.229.546-3.885.342-4.36.342-.626 0-.584-.053-.603-.054m0-1.79a.597.597 0 0 1 .055-.003h4.825c.457.025.703.277.703.732a.643.643 0 0 1-.122.404m-16.555 1.722c.621-.272 1.513-.657 1.513-.657s.245-.177.312 0 .492 1.443.492 1.443m-.507 1.601s-1.348.625-1.48.879c-.135.252-1.119-2.606-1.119-2.606s.023-.304.225-.405c.061-.032.286-.132.564-.255m4.72 1.961c.213-.42.69-.998.365-1.226a7.323 7.323 0 0 1-.373-.254"></path><path d="M151.644 84.046c-.564-.398-1.558-1.105-1.66-1.012 0 0-1.204 2.177-1.316 2.48-.111.303.066.507.177.507.112 0 1.744 1.113 1.944 1.164.2.052.566-1.074.863-1.659m-.037-3.026s.247.104.604.13c.356.026 5.426.094 5.784-.13v.56c.448.177 3.94.086 4.4-.102.558-.227.492-.682.492-.682"></path><path d="M151.638 83.06s.447.153 1.05.177c.482.02 3.555.026 4.78-.024.304-.015.535-.153.535-.153m-6.365 4.631s.514.176 1.386.176c.87 0 3.707.027 3.707.027s1.183.025 1.272-.203"></path></g><path fill="none" stroke="#eebd7b" stroke-width=".15" stroke-miterlimit="10" stroke-dasharray="1,1" d="M162.296 87.41v7.572H147.2v-7.68"></path><path fill="none" stroke="#eebd7b" stroke-width=".15" stroke-miterlimit="10" d="M136.744 124.743h-5.352v-15.29m5.352 15.29v-15.29m-35.103-7.593h14.59v6.001h-14.59zm0 1.03h14.59m-14.59 0 14.59 4.97m-.001-4.97-14.589 4.972"></path><path fill="none" stroke="#eebd7b" stroke-width=".25" stroke-linecap="round" stroke-linejoin="round" stroke-miterlimit="10" d="M168.799 115.331v-6.115m0-1.046v-6.115m0 0h-2.183m-.546 0h-.908m0 0v5.91m0 1.455v5.911m3.637-29.643V79.21m0-1.046v-6.342m-3.637.636v5.502m0 1.454v6.274m0 0h.909m.545 0h2.183m0 0v8.184m-3.637 0v-8.184m-64.923 23.732v19.096m.909-10.003v-9.092m0-.001h-.91m.91 0h3.637m0 0v9.093m1.455 7.283V109.42m0 0h58.922m0-1.454h-47.874m-1.046 0h-14.548m0 0v-5.91m0-.001h-1.455m0 0v7.366m1.455-16.458V79.414m0-1.454V66.876m-1.455 0v26.087m0 0h1.455m67.105 16.253h14.003m0 0v-1.046m0 0h-14.003m-53.466-46.85v16.64m1.045 0V62.365m52.421 16.845h14.162m-.001 0v-1.046m0 0H168.8m-3.638-.204h-48.784m-1.045 0h-13.64m.001 1.454h25.823m1.046 0h36.599m-36.599 13.094V79.414m-1.046 0v12.048m-25.823 1.046h5.455m.001 0v-1.046m0 0h-5.456m12.821 1.046h1.727m1.046 0h11.275m-1.046-1.046h-13.002m0 0v1.046m1.727 0v1.273m0 0h1.046m0 0v-1.273m-1.046 9.547v5.91m1.046.001v-5.91m0-.001h-1.046m14.003 7.374v16.367m1.045 1.045V109.43m0-.001h-1.045m52.193-1.713V79.664m.727 28.052V79.664m-.727-.454v.454m0 0h.727m0 0v-.454m0 0h-.727m0 28.506v.454m0 0h.727m0 0v-.454m0 0h-.727m0 1.5v.455m.727-.001v-.454m0 0h-.727m-77.289-19.754h-2.91m.001 0v-3.637m0 0h2.909m0 0v3.637m0 1.364h-2.91m.001 0v-.91m0 .001h2.909m0 0v.909m-2.909-6.366h2.909m0 0v.91m0 0h-2.91m.001 0v-.91m-.365 6.82h3.638m0 0v-7.274m0 0h-3.638m0 0v7.275m66.924 2.591h-2.182m-.547 0h-.908"></path><path d="M108.563 100.5v-.19l.24-.234c.581-.551.843-.845.847-1.188 0-.23-.113-.443-.452-.443a.773.773 0 0 0-.482.192l-.098-.217a.997.997 0 0 1 .644-.23c.49 0 .695.335.695.66 0 .42-.304.759-.783 1.22l-.182.167v.007h1.02v.255h-1.45zm1.694.429c.077-.206.172-.58.21-.835l.343-.035a4.343 4.343 0 0 1-.332.85l-.221.02zm2.301-2.701v.203l-.99 2.068h-.317l.986-2.009v-.007h-1.112v-.255h1.433zm.322 2.272v-.19l.24-.234c.58-.551.842-.845.846-1.188 0-.23-.112-.443-.451-.443a.773.773 0 0 0-.483.192l-.097-.217a.997.997 0 0 1 .643-.23c.49 0 .696.335.696.66 0 .42-.305.759-.784 1.22l-.181.167v.007h1.02v.255h-1.45zm-.184-11.194c.088.056.29.142.503.142.396 0 .518-.25.514-.44-.003-.317-.29-.454-.587-.454h-.17v-.23h.17c.224 0 .507-.116.507-.384 0-.182-.115-.343-.398-.343a.83.83 0 0 0-.455.15l-.08-.223c.119-.088.35-.175.594-.175.447 0 .65.265.65.54 0 .235-.14.434-.42.536v.007c.28.055.507.265.507.584 0 .363-.283.68-.828.68a1.16 1.16 0 0 1-.59-.153l.083-.237zm1.622.782c.077-.206.171-.58.21-.835l.342-.035a4.343 4.343 0 0 1-.332.85l-.22.02zm1.776-.43v-.618h-1.055v-.203l1.013-1.45h.332v1.412h.318v.241h-.318v.618h-.29zm0-.859v-.759c0-.118.004-.237.01-.356h-.01c-.07.133-.126.231-.189.336l-.555.772v.007h.744zm.846.859v-.188l.24-.234c.58-.552.843-.846.847-1.189 0-.23-.113-.443-.452-.443a.773.773 0 0 0-.482.192l-.098-.217a.997.997 0 0 1 .644-.23c.49 0 .695.335.695.66 0 .419-.305.759-.783 1.22l-.182.168v.007h1.02v.254h-1.45zm19.804 3.699h-.007l-.394.213-.06-.235.496-.265h.263v2.271h-.298v-1.984zm2.079 1.984v-.618h-1.054v-.203l1.012-1.45h.332v1.412h.319v.24h-.319v.619h-.29zm0-.86v-.758c0-.118.004-.237.011-.357h-.01c-.07.133-.127.232-.19.336l-.555.773v.007h.744zm.745 1.289c.077-.205.171-.58.21-.834l.342-.035a4.343 4.343 0 0 1-.332.85l-.22.02zm2.3-2.7v.203l-.989 2.068h-.317l.985-2.009v-.008h-1.111v-.254h1.432zm1.677.258h-.866l-.087.584c.052-.008.1-.014.185-.014.174 0 .35.039.489.122a.648.648 0 0 1 .325.584c0 .443-.354.775-.846.775a1.11 1.11 0 0 1-.566-.14l.077-.234c.095.057.28.126.485.126.29 0 .538-.188.538-.492-.002-.294-.199-.503-.653-.503-.129 0-.23.014-.314.024l.147-1.09h1.086v.258zm24.301 5.432v-.617h-1.055v-.203l1.013-1.45h.332v1.412h.318v.24h-.318v.619h-.29zm0-.858v-.76c0-.117.004-.237.01-.356h-.01c-.07.133-.126.232-.189.336l-.555.773v.007h.744zm.744 1.288c.077-.205.172-.58.21-.834l.343-.036a4.343 4.343 0 0 1-.332.85l-.221.02zm.798-1.005c0-.287.172-.49.451-.609l-.004-.01c-.25-.119-.36-.315-.36-.51 0-.36.304-.605.703-.605.44 0 .66.277.66.559 0 .192-.094.398-.374.531v.01c.283.112.458.311.458.588 0 .394-.339.66-.772.66-.475 0-.762-.282-.762-.614zm1.224-.015c0-.275-.193-.408-.5-.496-.266.077-.41.252-.41.469-.01.23.165.432.455.432.276 0 .455-.17.455-.405zm-.846-1.136c0 .228.17.35.433.42.196-.066.346-.206.346-.412 0-.181-.108-.37-.385-.37-.255 0-.394.167-.394.362zm2.114-.257h-.008l-.394.212-.06-.234.496-.266h.263v2.272h-.298v-1.984zm1.894-.441c-.256.342-.44.797-.44 1.429 0 .622.192 1.07.44 1.419h-.242c-.22-.29-.458-.738-.458-1.42.004-.688.238-1.135.458-1.428h.242zm.896.441h-.008l-.394.212-.06-.234.496-.266h.263v2.272h-.298v-1.984zm1.026 2.413c.078-.205.172-.58.21-.834l.343-.036a4.343 4.343 0 0 1-.332.85l-.22.02zm1.777-.43v-.617h-1.055v-.203l1.013-1.45h.332v1.412h.318v.24h-.318v.619h-.29zm0-.858v-.76c0-.117.004-.237.01-.356h-.01c-.07.133-.126.232-.189.336l-.555.773v.007h.744zm1.796.858v-.617h-1.055v-.203l1.013-1.45h.332v1.412h.318v.24h-.318v.619h-.29zm0-.858v-.76c0-.117.004-.237.01-.356h-.01c-.07.133-.126.232-.189.336l-.555.773v.007h.744zm.759 1.282c.248-.346.439-.8.439-1.429 0-.626-.188-1.073-.44-1.419h.238c.223.286.458.734.458 1.422 0 .685-.235 1.129-.458 1.426h-.237z" fill="#eebd7b"></path></g></svg>