<svg version="1.1" xmlns="http://www.w3.org/2000/svg" xmlns:xlink="http://www.w3.org/1999/xlink" viewBox="94.65 166.363 91.03 58.734"><path fill-rule="evenodd" clip-rule="evenodd" fill="none" d="M94.654 166.363h75.97v28.106h15.056v30.628H94.65z"></path><path fill-rule="evenodd" clip-rule="evenodd" fill="none" d="M102.14 167.835h64.801v28.315h17.49l-.2 27.49-81.369-.277z"></path><clipPath id="a"><path fill-rule="evenodd" clip-rule="evenodd" fill="none" d="M94.654 166.363h75.97v28.106h15.056v30.628H94.65z"></path></clipPath><g clip-path="url(#a)"><path fill="none" stroke="#eebd7b" stroke-width=".15" stroke-miterlimit="10" d="M149.93 194.714v-13.437h8.077v13.437h-8.078"></path><path fill="none" stroke="#eebd7b" stroke-width=".15" stroke-miterlimit="10" d="M150.378 181.726h7.18v12.54h-7.18zm-2.454 2.752-.498-.098m.498 1.862-.505.084m.061-2.574a15.47 15.47 0 0 0 0 3.32m.444-.726-.498.097m-.026-1.343h.524m0 .518h-.524m0 .106h.524m.087-2.035-.087.014m0 3.419.086.013m-.086-.375-.458.108m.458-2.286-.499-.084m.499.707h-.525m.525-1.142-.46-.102m-.31-.463a8.176 8.176 0 0 0 .025 3.807m.301-3.553-.326-.254m.326 3.573-.3.234m.3-3.448.444.104m-.444 3.008.444-.104m.088.206v.21m1.918-.104-1.918-.106m0 .209 1.917.295m-2.005-.455v-3.418m.088.048v-.207m1.918.104-1.918.103m0-.207 1.917-.297m-2.005 6.292-.498-.097m.498 1.86-.505.084m.061-2.573a15.478 15.478 0 0 0 0 3.32m.444-.728-.498.097m-.026-1.341h.524m0 .518h-.524m0 .106h.524m.087-2.037-.087.016m0 3.417.086.016m-.086-.376-.458.108m.458-2.286-.499-.083m.499.704h-.525m.525-1.142-.46-.102m-.31-.463a8.19 8.19 0 0 0 .025 3.81m.301-3.554-.326-.256m.326 3.576-.3.235m.3-3.452.444.104m-.444 3.009.444-.103m.088.207v.206m1.918-.103-1.918-.103m0 .206 1.917.297m-2.005-.455v-3.418m.088.048v-.208m1.918.103-1.918.105m0-.208 1.917-.296m10.085-3.828.497-.098m-.497 1.862.504.084m-.061-2.574a15.47 15.47 0 0 1 0 3.32m-.443-.726.497.097m.026-1.343h-.523m0 .518h.523m0 .106h-.523m-.088-2.035.088.014m0 3.419-.086.013m.086-.375.455.108m-.455-2.286.499-.084m-.499.707h.524m-.524-1.142.46-.102m.31-.464a8.196 8.196 0 0 1-.025 3.808m-.302-3.553.327-.255m-.327 3.574.302.234m-.302-3.448-.443.104m.443 3.008-.443-.104m-.09.206v.209m-1.917-.103 1.917-.106m0 .209-1.917.295m2.007-.455v-3.418m-.09.048v-.207m-1.917.104 1.917.103m0-.207-1.917-.297m2.007 6.291.497-.097m-.497 1.861.504.083m-.061-2.572a15.478 15.478 0 0 1 0 3.32m-.443-.728.497.097m.026-1.341h-.523m0 .518h.523m0 .106h-.523m-.088-2.037.088.016m0 3.417-.086.016m.086-.376.455.108m-.455-2.286.499-.083m-.499.704h.524m-.524-1.142.46-.102m.31-.463a8.205 8.205 0 0 1-.025 3.81m-.302-3.554.327-.256m-.327 3.576.302.234m-.302-3.451-.443.104m.443 3.009-.443-.103m-.09.207v.206m-1.917-.103 1.917-.103m0 .206-1.917.297m2.007-.455v-3.418m-.09.048v-.208m-1.917.103 1.917.105m0-.208-1.917-.296m5.986 11.992a1.927 1.927 0 0 1-3.719 1.013"></path><path fill="none" stroke="#eebd7b" stroke-width=".15" stroke-miterlimit="10" d="M162.575 202.427a1.681 1.681 0 1 1-.881-3.245 1.681 1.681 0 0 1 .881 3.245z"></path><path fill="none" stroke="#eebd7b" stroke-width=".15" stroke-miterlimit="10" d="M158.6 196.707h7.318v3.385H158.6zm-2.393 2.453h-8.59m8.59-.481h-8.59m-.001.658v-.658m8.591 0v.658m-4.967-1.427h1.344m3.623 1.427h-8.59m9.419-1.247h.985m-.006 0v1.247m0 0h-.985m0 .027v-1.273m.985 1.046h-.985m1.57-2.429-12.989-.001m12.877 3.385-13.014-.017m13.126-3.481v3.385m-7.36-2.069c-1.068-.02-2.13.242-3.136.769m7.615 0c-1.006-.527-2.068-.79-3.135-.77m-5.791.181h-.984m0 0v1.247m0 0h.984m0 0v-1.246m-.984 1.046h.984m-1.319-2.447v3.385m-4.686-3.388h4.686v3.387h-4.686zm4.602 3h-4.685m4.685 0-4.464-2.983m-.221 2.983 4.906-2.983m-24.896 24.164h-17.853m17.853-.358h-17.853m11.01 1.796a.205.205 0 0 0 .13.257.205.205 0 0 0 .257-.128.288.288 0 0 0 .009-.066m-.007-3.364a13.232 13.232 0 0 0 .007 3.364m-.007-3.364a.197.197 0 0 0-.392-.036V219m.003 3.306a13.394 13.394 0 0 0-.003-3.305"></path><path fill="none" stroke="#eebd7b" stroke-width=".15" stroke-miterlimit="10" d="M114.056 221.084c.03 0 .05-.19.05-.42 0-.233-.02-.421-.05-.421-.03 0-.054.188-.054.42 0 .232.024.42.054.42m-1.141 1.212a.204.204 0 0 0 .387.128.214.214 0 0 0 .01-.064"></path><path fill="none" stroke="#eebd7b" stroke-width=".15" stroke-miterlimit="10" d="M113.306 218.994a13.38 13.38 0 0 0 .005 3.365m-.005-3.365a.197.197 0 0 0-.393-.036.107.107 0 0 0 0 .032"></path><path fill="none" stroke="#eebd7b" stroke-width=".15" stroke-miterlimit="10" d="M112.915 222.295a13.198 13.198 0 0 0-.002-3.305"></path><path fill="none" stroke="#eebd7b" stroke-width=".15" stroke-miterlimit="10" d="M113.1 221.073c.029 0 .053-.189.053-.42 0-.233-.024-.422-.053-.422-.03 0-.054.19-.054.422 0 .231.025.42.054.42m-1.1 1.271a.202.202 0 0 0 .129.256.202.202 0 0 0 .266-.192"></path><path fill="none" stroke="#eebd7b" stroke-width=".15" stroke-miterlimit="10" d="M112.39 219.044a13.222 13.222 0 0 0 .005 3.364m-.005-3.364a.198.198 0 0 0-.179-.215.2.2 0 0 0-.214.21m.003 3.305a13.228 13.228 0 0 0-.003-3.304"></path><path fill="none" stroke="#eebd7b" stroke-width=".15" stroke-miterlimit="10" d="M112.184 221.12c.03 0 .053-.187.053-.42 0-.23-.023-.419-.053-.419s-.053.188-.053.42c0 .232.023.42.053.42m-1.178 1.192a.203.203 0 0 0 .386.128.187.187 0 0 0 .012-.064"></path><path fill="none" stroke="#eebd7b" stroke-width=".15" stroke-miterlimit="10" d="M111.397 219.014a13.255 13.255 0 0 0 .004 3.363m-.004-3.363a.197.197 0 1 0-.392-.036l-.001.03m.002 3.305a13.272 13.272 0 0 0-.002-3.304"></path><path fill="none" stroke="#eebd7b" stroke-width=".15" stroke-miterlimit="10" d="M111.189 221.09c.03 0 .053-.188.053-.42 0-.23-.023-.419-.053-.419-.029 0-.051.188-.051.419 0 .232.022.42.051.42m-1.138 1.216a.203.203 0 1 0 .396.064m-.007-3.365a13.272 13.272 0 0 0 .006 3.364m-.006-3.364a.197.197 0 1 0-.391-.005m.002 3.306a13.329 13.329 0 0 0-.002-3.305"></path><path fill="none" stroke="#eebd7b" stroke-width=".15" stroke-miterlimit="10" d="M110.234 221.084c.029 0 .053-.19.053-.42 0-.233-.024-.421-.053-.421-.028 0-.054.188-.054.42 0 .232.026.42.054.42m-1.264 1.265a.201.201 0 0 0 .127.255.205.205 0 0 0 .258-.128.207.207 0 0 0 .009-.064m-.005-3.364a13.232 13.232 0 0 0 .005 3.364m-.005-3.364a.197.197 0 0 0-.179-.214.194.194 0 0 0-.213.178v.032m.003 3.305a13.366 13.366 0 0 0-.003-3.305"></path><path fill="none" stroke="#eebd7b" stroke-width=".15" stroke-miterlimit="10" d="M109.152 221.124c.028 0 .05-.189.05-.42 0-.232-.022-.42-.05-.42-.028 0-.051.188-.051.42 0 .231.023.42.051.42m-1.242 1.162a.203.203 0 1 0 .385.13.266.266 0 0 0 .009-.065m-.006-3.363a13.26 13.26 0 0 0 .006 3.363m-.006-3.363a.196.196 0 1 0-.392-.037c0 .01-.002.021 0 .032m.004 3.303a13.352 13.352 0 0 0-.004-3.303"></path><path fill="none" stroke="#eebd7b" stroke-width=".15" stroke-miterlimit="10" d="M108.091 221.064c.03 0 .053-.19.053-.42 0-.23-.023-.419-.053-.419-.028 0-.052.188-.052.42 0 .23.024.419.052.419m-1.143 1.229a.205.205 0 0 0 .388.128.26.26 0 0 0 .01-.064"></path><path fill="none" stroke="#eebd7b" stroke-width=".15" stroke-miterlimit="10" d="M107.34 218.994a13.253 13.253 0 0 0 .004 3.363m-.004-3.363a.2.2 0 0 0-.178-.215.198.198 0 0 0-.214.176.122.122 0 0 0-.002.035m.002 3.303a13.138 13.138 0 0 0-.002-3.303"></path><path fill="none" stroke="#eebd7b" stroke-width=".15" stroke-miterlimit="10" d="M107.134 221.07c.028 0 .052-.188.052-.42 0-.23-.024-.42-.052-.42-.03 0-.054.19-.054.42 0 .232.023.42.054.42m-1.322 1.22a.202.202 0 0 0 .128.257.205.205 0 0 0 .268-.193"></path><path fill="none" stroke="#eebd7b" stroke-width=".15" stroke-miterlimit="10" d="M106.2 218.99a13.391 13.391 0 0 0 .008 3.364m-.008-3.364a.197.197 0 1 0-.392-.004"></path><path fill="none" stroke="#eebd7b" stroke-width=".15" stroke-miterlimit="10" d="M105.812 222.29a13.237 13.237 0 0 0-.003-3.305"></path><path fill="none" stroke="#eebd7b" stroke-width=".15" stroke-miterlimit="10" d="M105.995 221.067c.028 0 .054-.188.054-.421 0-.23-.026-.419-.054-.419-.029 0-.052.188-.052.419 0 .233.023.421.052.421m-1.21 1.277a.205.205 0 0 0 .389.127.194.194 0 0 0 .009-.063m-.007-3.364a13.265 13.265 0 0 0 .007 3.364m-.007-3.364a.198.198 0 0 0-.178-.215.198.198 0 0 0-.214.21m.001 3.305a13.196 13.196 0 0 0-.001-3.305"></path><path fill="none" stroke="#eebd7b" stroke-width=".15" stroke-miterlimit="10" d="M104.971 221.122c.028 0 .052-.189.052-.421 0-.232-.024-.42-.052-.42-.03 0-.054.188-.054.42 0 .232.024.42.054.42m15.744-3.111v5.353h-17.853"></path><path fill="none" stroke="#eebd7b" stroke-width=".15" stroke-miterlimit="10" d="M119.758 222.306a.205.205 0 0 0 .13.257.201.201 0 0 0 .255-.128.22.22 0 0 0 .011-.066m-.007-3.364a13.303 13.303 0 0 0 .007 3.364m-.007-3.364a.197.197 0 0 0-.391-.036V219m.002 3.306a13.317 13.317 0 0 0-.002-3.305"></path><path fill="none" stroke="#eebd7b" stroke-width=".15" stroke-miterlimit="10" d="M119.94 221.084c.031 0 .053-.19.053-.42 0-.233-.022-.421-.052-.421-.028 0-.05.188-.05.42 0 .232.022.42.05.42m-1.139 1.212a.205.205 0 0 0 .129.257.205.205 0 0 0 .269-.193"></path><path fill="none" stroke="#eebd7b" stroke-width=".15" stroke-miterlimit="10" d="M119.194 218.994a13.19 13.19 0 0 0 .004 3.365m-.004-3.365a.2.2 0 0 0-.18-.213.195.195 0 0 0-.213.177.059.059 0 0 0-.002.032"></path><path fill="none" stroke="#eebd7b" stroke-width=".15" stroke-miterlimit="10" d="M118.802 222.295a13.245 13.245 0 0 0-.003-3.305"></path><path fill="none" stroke="#eebd7b" stroke-width=".15" stroke-miterlimit="10" d="M118.987 221.073c.028 0 .052-.189.052-.42 0-.233-.024-.422-.052-.422-.03 0-.055.19-.055.422 0 .231.025.42.055.42m-1.101 1.271a.204.204 0 1 0 .398.064"></path><path fill="none" stroke="#eebd7b" stroke-width=".15" stroke-miterlimit="10" d="M118.278 219.044a13.183 13.183 0 0 0 .004 3.364m-.004-3.364a.2.2 0 0 0-.178-.215.196.196 0 0 0-.214.179c-.003.009-.003.02-.003.032m.003 3.304a13.266 13.266 0 0 0-.003-3.304"></path><path fill="none" stroke="#eebd7b" stroke-width=".15" stroke-miterlimit="10" d="M118.07 221.12c.03 0 .053-.187.053-.42 0-.23-.023-.419-.053-.419-.029 0-.054.188-.054.42 0 .232.025.42.054.42m-1.178 1.192a.203.203 0 0 0 .13.256.2.2 0 0 0 .256-.128.187.187 0 0 0 .012-.064m-.007-3.363a13.26 13.26 0 0 0 .007 3.363m-.007-3.363a.196.196 0 0 0-.18-.215.196.196 0 0 0-.211.179.064.064 0 0 0 0 .03m0 3.305c.14-1.098.137-2.207 0-3.304"></path><path fill="none" stroke="#eebd7b" stroke-width=".15" stroke-miterlimit="10" d="M117.077 221.09c.03 0 .054-.188.054-.42 0-.23-.024-.419-.054-.419-.028 0-.052.188-.052.419 0 .232.024.42.052.42m-1.139 1.216a.203.203 0 0 0 .129.257.206.206 0 0 0 .258-.128.247.247 0 0 0 .01-.066"></path><path fill="none" stroke="#eebd7b" stroke-width=".15" stroke-miterlimit="10" d="M116.327 219.005a13.19 13.19 0 0 0 .007 3.364m-.007-3.364a.2.2 0 0 0-.178-.213.196.196 0 0 0-.214.209m.003 3.305a13.323 13.323 0 0 0-.003-3.305"></path><path fill="none" stroke="#eebd7b" stroke-width=".15" stroke-miterlimit="10" d="M116.122 221.084c.028 0 .05-.19.05-.42 0-.233-.022-.421-.05-.421-.03 0-.054.188-.054.42 0 .232.025.42.054.42m-1.266 1.265a.202.202 0 0 0 .128.255.203.203 0 0 0 .257-.128.209.209 0 0 0 .01-.064"></path><path fill="none" stroke="#eebd7b" stroke-width=".15" stroke-miterlimit="10" d="M115.243 219.047a13.5 13.5 0 0 0 .007 3.364m-.007-3.364a.193.193 0 0 0-.176-.214.198.198 0 0 0-.215.178v.032m.004 3.305a13.203 13.203 0 0 0-.004-3.305"></path><path fill="none" stroke="#eebd7b" stroke-width=".15" stroke-miterlimit="10" d="M115.039 221.124c.028 0 .052-.189.052-.42 0-.232-.024-.42-.052-.42-.028 0-.051.188-.051.42 0 .231.023.42.05.42m5.677-3.114h-17.853m.948 4.308a.201.201 0 0 0 .13.257.2.2 0 0 0 .256-.128.206.206 0 0 0 .012-.064"></path><path fill="none" stroke="#eebd7b" stroke-width=".15" stroke-miterlimit="10" d="M104.198 219.02a13.459 13.459 0 0 0 .007 3.363m-.007-3.363a.194.194 0 0 0-.177-.215.2.2 0 0 0-.213.209"></path><path fill="none" stroke="#eebd7b" stroke-width=".15" stroke-miterlimit="10" d="M103.81 222.318a13.275 13.275 0 0 0-.002-3.304"></path><path fill="none" stroke="#eebd7b" stroke-width=".15" stroke-miterlimit="10" d="M103.994 221.096c.028 0 .053-.188.053-.42 0-.233-.025-.419-.053-.419-.03 0-.052.186-.052.42 0 .231.023.42.052.42"></path><g fill="none" stroke="#eebd7b" stroke-width=".15" stroke-miterlimit="10"><path d="M161.703 219.164c.053.323.118.627.19 1.001.379 1.215 1.451.634 1.451.027v-4.784s-.066-.543-.48-.543h-1.016s-.348-.05-.42 1.024"></path><path d="M163.344 220.319v1.087s-.111.785-.826.86c-.47.077-3.184.583-8.643.583-5.46 0-8.198-.506-8.665-.582-.716-.076-.828-.86-.828-.86v-1.088"></path><path d="M162.03 220.507c-1.226-.546-3.883-.342-4.358-.342-.626 0-.584.054-.603.054m.001 1.791a.64.64 0 0 0 .054.003h4.825c.457-.025.704-.278.704-.733a.645.645 0 0 0-.122-.403"></path><path d="M159.819 219.587c-1.167-.053-2.497-.036-2.773.073v.56m4.891.224s.067-.455-.491-.683c-.122-.049-.372-.12-.809-.154m-3.591-.933v3.336s-3.841.149-6.365 0v-6.982s-.469-.15-1.832-.126c-1.361.025-2.635.329-2.635.329m15.299-.001s-1.273-.303-2.635-.328c-1.362-.025-1.832.126-1.832.126v2.122"></path><path d="M144.382 220.192v-4.784s.067-.543.48-.543h1.017s1.005-.14-.046 5.3c-.379 1.215-1.451.634-1.451.027z"></path><path d="M145.696 220.507c1.228-.546 3.884-.342 4.36-.342.625 0 .584.054.602.054m0 1.791a.645.645 0 0 1-.055.003h-4.825c-.457-.025-.703-.278-.703-.733a.643.643 0 0 1 .122-.403m16.555-1.722c-.62.271-1.512.656-1.512.656s-.245.178-.312 0c-.068-.176-.493-1.442-.493-1.442m.508-1.602s1.347-.625 1.48-.878c.135-.253 1.118 2.606 1.118 2.606s-.023.304-.225.405c-.06.032-.286.132-.564.255m-4.719-1.962c-.213.422-.69.998-.366 1.227.038.02.18.118.373.254"></path><path d="M157.04 218.674c.565.397 1.558 1.105 1.66 1.011 0 0 1.205-2.176 1.316-2.48.112-.303-.066-.506-.177-.506-.112 0-1.744-1.113-1.944-1.164-.2-.052-.566 1.074-.862 1.658m.037 3.027s-.247-.105-.605-.13c-.356-.026-5.426-.095-5.784.13v-.56c-.448-.178-3.94-.086-4.4.101-.557.228-.492.683-.492.683"></path><path d="M157.046 219.66s-.446-.153-1.049-.178c-.483-.018-3.555-.025-4.78.025-.305.015-.536.153-.536.153m6.365-4.632s-.513-.176-1.385-.176c-.87 0-3.707-.026-3.707-.026s-1.184-.025-1.273.202"></path></g><path fill="none" stroke="#eebd7b" stroke-width=".15" stroke-miterlimit="10" stroke-dasharray="1,1" d="M146.389 215.31v-7.572h15.094v7.68"></path><path fill="none" stroke="#eebd7b" stroke-width=".15" stroke-miterlimit="10" d="M130.514 240.29v-15.25m.274 15.25v-15.25m2.464 15.25H127.9V225m5.352 15.29V225"></path><g fill="none" stroke="#eebd7b" stroke-width=".15" stroke-miterlimit="10"><path d="M127.931 220.332v-4.507s.061-.513.441-.513h.936s.924-.132-.04 4.997c-.351 1.144-1.337.595-1.337.023zm8.679-.026v-4.483s-.061-.51-.44-.51h-.935s-.925-.13.04 4.97c.35 1.14 1.336.592 1.336.023z"></path><path d="M135.454 220.702c-.796-.313-2.198-.343-3.198-.327h-.005c-1.002-.017-2.404.016-3.2.325m6.885.257c.08.1.122.217.117.35 0 .395-.301.57-.68.638-.406.13-1.945.182-3.12.204h.123c-1.176-.021-2.714-.073-3.121-.205-.377-.066-.679-.243-.679-.639a.501.501 0 0 1 .117-.348m6.54-.813s-.228-.091-.56-.113c-.33-.023-5.028-.084-5.357.113m5.855-.487s-.417-.131-.98-.156c-.451-.017-3.316-.021-4.459.025a1.198 1.198 0 0 0-.355.068m5.612-4.008a5.41 5.41 0 0 0-1.114-.109c-.816 0-3.475-.02-3.475-.02s-.538-.012-.893.048"></path><path d="M136.61 220.306v1.286s-.021.418-.289.484c-.916.226-3.002.38-4.027.418-1.726.067-3.965-.44-3.965-.44-.453-.132-.4-.463-.4-.463v-1.285"></path></g><path fill="none" stroke="#eebd7b" stroke-width=".15" stroke-miterlimit="10" d="M102.773 205.027h15.385v5.471h-15.385zm0 .599h15.385m-15.385 0 15.385 4.872m0-4.872-15.385 4.873m35.403-37.141h5.523m-5.523-4.694v4.694m0 0v-5.523m11.046 5.523h5.523m-46.53-12.518v5.523"></path><path fill-rule="evenodd" clip-rule="evenodd" fill="#eebd7b" d="M154.103 224.905h12.838v-1.473h-64.249v1.473h21.018zm-52.078-57.07h64.916v-1.472H101.22v1.472h.116zm-.805 116.371h1.472v-30.16h-1.473v30.16m0-39.365h1.473v-21.409h-1.473v21.409zm5.523-77.006h1.473v22.644h-1.473zm63.329 28.315h14.889v-1.059h-16.546v1.059h1.532zm-67.931-5.671h4.602v-1.473h-5.523l.006 1.473h.8zm-.92-24.116h1.472v-23.749h-1.473v23.749m1.473-32.953v-1.841h-1.473v1.84h1.473zm67.379 91.288h14.889v-1.059h-16.546v1.059h1.335z"></path><path fill-rule="evenodd" clip-rule="evenodd" fill="#eebd7b" d="M101.22 223.432h1.472v-20.38h-1.473v20.38m0-29.585h1.473v-3.368h-1.473v3.368zm17.121 17.711h1.059v-7.032h-1.059v7.032m1.059-15.408v-2.303h-1.059v2.303h1.059m0-10.68v-.008l-1.047.009h1.047zm35.042 10.68h12.964v-1.059h-48.006v1.059h12.315zm-46.226 15.408h10.125v-1.059h-15.648v1.059h4.05zm23.38-43.723h1.059v17.627h-1.059zm-13.255 17.627h13.255v-1.058h-14.82v1.058h1.565m-9.826 0h1.726v-1.058h-2.025v1.058h.3zm19.537 56.011v-16.568h-1.058v16.568h.743zm-19.537-64.249h3.567v-7.364H108.4v7.364h.115m3.199-.46h-2.946v-.92h2.946v.92m-1.473-1.38h-1.473V171.7h2.946v3.682h-1.473m-.736-4.142h-.737v-.92h2.946v.92h-2.209zm61.118 60.486v-14.351h-1.73l-.037.644h-1.915v13.707zm0-69.176v12.766h-2.209l-.036-.644h-1.437V163.15h1.473v-.598z"></path><path fill-rule="evenodd" clip-rule="evenodd" fill="#eebd7b" d="M170.623 190.671v10.84h-1.73l-.037-.643h-1.915v-9.598h1.473v-.599z"></path><path fill="#eebd7b" d="M101.127 167.556h1.013v21.818h-1.013z"></path><path fill="#eebd7b" d="M101.633 178.788h5.494v1.014h-5.494z"></path><path fill="none" stroke="#eebd7b" stroke-width=".25" stroke-linecap="round" stroke-linejoin="round" stroke-miterlimit="10" d="M170.623 175.391v15.28m0 19.033v7.686m0-7.686h-1.749m-.552 0h-1.38m-.001 8.284v-8.284m0-18.389v-16.568m3.682 56.979v-7.028m0-1.058v-6.25m0 0h-1.749m-.552.598h-1.38m-.001 0v5.444m0 1.473v6.821m3.682-30.26v-5.316m0-1.059v-4.42m0 0h-2.209m0 0v.644m0 0h-1.473m0 0v3.776m0 1.059v4.718m0 0h1.381m.552.598h1.75m-.001-26.075v-12.886m-3.682.644v3.214m0 1.472v6.912m0 0h1.473m0 0v.644m0 0h2.21m-69.404-7.556v21.171m.92 0v-9.204m0-.922v-11.045m0 11.967h4.602m0-.922h-4.602m64.801 44.552h-64.249m0 1.473h64.25m-.001-58.542h-64.249m-.552 1.472h4.602m1.473 0h58.726m-65.721 35.217v41.79m1.472-3.369v-16.568m4.05-57.07v11.046m0 .921v9.204m1.473 1.473v-22.644m76.745 27.256h-14.337m0 1.059h14.337m0 0v-1.059m-78.218-6.085h-4.602m.552 1.473h5.523m-6.995-47.865v25.221m1.472-1.472v-15.64m82.268 72.917h-14.337m0 1.058h14.337m0 0v-1.059m-83.74-34.633v4.84m0 .001h1.472m0 0v-3.368m0 32.953v-11.874m0-1.058v-7.448m0 0h-1.473m18.18 8.506v-7.032m0 0h-1.059m0 0v5.973m1.059-15.408v-1.244m0 0h-1.059m0 0v2.303m1.059-10.68v-.008m-1.059 0v.009m0-.001h1.059m-1.059 10.68h48.601m0-1.059H119.4m-1.06 15.409h-15.648m0 1.058H119.4m12.195-43.723v16.569m1.059 1.058v-17.627m-24.439 17.627h2.025m0 0v-1.058m0 0h-2.025m8.56 1.058h1.565m1.059 0h13.255m-1.059-1.058h-14.82m0 0v1.058m10.218 39.443v16.568m1.058 1.059v-17.627m57.116-28.295v26.569m-.737-26.569v26.569m.737-26.569v-.46m0 0h-.737m0 0v.46m0 0h.737m0 27.03v-.461m0 0h-.737m0 0v.46m0 .001h.737m0 1.518v-.46m0 0h-.737m0 0v.46m-76.031-55.298v7.364m0 0h3.682m0 0v-7.364m0 0H108.4m.367 1.381v-.92m0-.001h2.946m0 0v.921m0 0h-2.946m2.946 4.603v.92m0 0h-2.946m0 0v-.92m0 0h2.946m0-4.143v3.682m0 0h-2.946m0 0v-3.682m0 0h2.946m7.686 13.769 4.188 7.255m-4.188 3.425 4.188 7.254m-13.347-17.942 5.66 3.268m-14.68 5.117-4.603 7.971"></path><path fill="none" stroke="#eebd7b" stroke-width=".2" stroke-linecap="round" stroke-linejoin="round" stroke-miterlimit="10" d="M167.77 191.315v-16.568m.644 16.568v-16.568m0 0h-.644m.644 16.568h-.644m1.104 17.597h-.552m0 0v1.031m0 0h.552m0 0v-1.03m0-7.253h-.552m0 0v-.792m0 0h.552m0 0v.791m0 15.538h-.552m0 0v.791m0 0h.552m0 0v-.791m-.552-15.537-3.627 6.28m4.179 9.257v-7.254m-.552 0v7.254"></path><path fill="none" stroke="#eebd7b" stroke-width=".15" stroke-linecap="round" stroke-linejoin="round" stroke-miterlimit="10" d="M125.152 183.483h6.443m-6.443-15.648v15.648m3.221-14.093a.234.234 0 1 0 0 .468m0 0a.234.234 0 0 0 0-.468m-1.351-.853a1.17 1.17 0 0 0-1.169 1.169m5.041 0a1.17 1.17 0 0 0-1.17-1.17m-3.871 13.077a1.17 1.17 0 0 0 1.17 1.169m2.702 0a1.17 1.17 0 0 0 1.169-1.17m-1.169 1.17h-2.703m-1.169-1.169v-11.907m1.169-1.169h2.703m1.169 1.169v11.907m-13.276-12.429a13.718 13.718 0 0 1-3.341 0m3.341 0a.193.193 0 0 0 .17-.193m-.13 3.573a1.514 1.514 0 0 1-.076.454 1.602 1.602 0 0 1-.273.509 1.7 1.7 0 0 1-.7.524 1.8 1.8 0 0 1-1.44-.032 1.708 1.708 0 0 1-.476-.335 1.622 1.622 0 0 1-.324-.474 1.567 1.567 0 0 1-.132-.555c-.001-.033-.002-.065-.001-.098"></path><path fill="none" stroke="#eebd7b" stroke-width=".15" stroke-linecap="round" stroke-linejoin="round" stroke-miterlimit="10" d="M117.58 172.562a1.443 1.443 0 0 1-.124.57 1.525 1.525 0 0 1-.276.427 1.626 1.626 0 0 1-.64.436 1.732 1.732 0 0 1-1.112.041 1.675 1.675 0 0 1-.531-.275 1.544 1.544 0 0 1-.453-.573 1.489 1.489 0 0 1-.129-.533 1.569 1.569 0 0 1-.001-.097m-.208-3.568c0 .1.074.184.171.194m1.67-.782a.161.161 0 0 0-.16.163c0 .09.072.162.16.162.088 0 .16-.073.16-.162a.161.161 0 0 0-.16-.163zm1.841.588v-1.155m-3.682 0v1.156"></path><path fill="none" stroke="#eebd7b" stroke-width=".15" stroke-linecap="round" stroke-linejoin="round" stroke-miterlimit="10" d="M117.658 169.177v3.387l-.324-2.8h-2.775l-.323 2.793m3.345.007-.324-2.8m-2.944 2.793.323-2.793m-.4-.589v3.433m9.535-3.576a.46.46 0 0 0-.46-.46m-.001 2.761a.46.46 0 0 0 .461-.46m-3.681 0c0 .254.205.46.46.46m0-2.761a.46.46 0 0 0-.46.46"></path><path fill="none" stroke="#eebd7b" stroke-width=".15" stroke-linecap="round" stroke-linejoin="round" stroke-miterlimit="10" d="M119.63 167.835v3.866h4.601v-3.866m-3.681.737h2.76m.461.46v1.84m-.461.461h-2.76m-.46-.46v-1.841m1.84.598v-.233m.368-.135h-.233m-.135-.135v-.233m-.135.368h-.233"></path><path fill="none" stroke="#eebd7b" stroke-width=".15" stroke-linecap="round" stroke-linejoin="round" stroke-miterlimit="10" d="M122.213 169.262a.283.283 0 1 0-.566 0 .283.283 0 0 0 .566 0z"></path><path fill="none" stroke="#eebd7b" stroke-width=".15" stroke-linecap="round" stroke-linejoin="round" stroke-miterlimit="10" d="M122.132 169.262a.202.202 0 1 0-.404 0 .202.202 0 0 0 .404 0zm-7.46 55.643v3.857h4.603v-3.857m1.275 0v15.648m-8.285-14.503v-1.145m-3.681 0v1.145m11.045-41.646v-5.523h5.523m0 4.602v.92m-5.523.001 5.523-5.523m0 5.523-5.523-5.523"></path><path fill="none" stroke="#eebd7b" stroke-width=".15" stroke-linecap="round" stroke-linejoin="round" stroke-miterlimit="10" d="M122.39 178.88a2.761 2.761 0 1 0 0 5.524 2.761 2.761 0 0 0 0-5.523zm12.197-3.129a.46.46 0 0 0-.46.46m3.681.001a.46.46 0 0 0-.46-.46m0 3.681a.46.46 0 0 0 .46-.46m-3.682 0c0 .254.207.46.46.46"></path><path fill="none" stroke="#eebd7b" stroke-width=".15" stroke-linecap="round" stroke-linejoin="round" stroke-miterlimit="10" d="M132.654 173.358h5.522v6.444h-5.522m4.234-6.076v2.025m-.46-2.025v2.025m-.461-2.025v2.025m-.46-2.025v2.025m-.46-2.025v2.025"></path><path fill="none" stroke="#eebd7b" stroke-width=".15" stroke-linecap="round" stroke-linejoin="round" stroke-miterlimit="10" d="M134.587 173.726v2.025h2.761v-2.025"></path><path fill="none" stroke="#eebd7b" stroke-width=".15" stroke-linecap="round" stroke-linejoin="round" stroke-miterlimit="10" d="M137.808 176.21v-2.484h-3.682v2.479m0 2.768v-2.761m3.682 0v2.761m-.46.46h-2.761m.23-1.841h.736m-.368-.368v.737m0-.553a.184.184 0 1 0 0 .368.184.184 0 0 0 0-.368z"></path><path fill="none" stroke="#eebd7b" stroke-width=".15" stroke-linecap="round" stroke-linejoin="round" stroke-miterlimit="10" d="M135.185 177.316a.276.276 0 1 0 0 .552.276.276 0 0 0 0-.552zm14.037-3.958H143.7v-5.523m5.522 0v5.523m-1.426-3.17v-.46m0-.655v-.46m.787.787h-.46m-.655 0h-.46m-1.882.788v-.46m0-.655v-.46m-.787.787h.46m.654 0h.46m1.883 1.606v.46m0 .654v.46m.787-.787h-.46m-.655 0h-.46m-1.882-.787v.46m0 .654v.46m-.787-.787h.46m.654 0h.46M119.26 160.84h-5.522v5.523m5.522 0v-5.523m41.008 12.518h-5.523v-5.523"></path><path fill="none" stroke="#eebd7b" stroke-width=".15" stroke-linecap="round" stroke-linejoin="round" stroke-miterlimit="10" d="M160.268 167.835v5.523l-5.523-5.523m5.523 0-5.523 5.523m2.761-3.249v.976m-.488-.488h.977m-27.689-9.757h-5.522v5.523m5.522 0v-5.523l-5.522 5.523m5.522 0-5.522-5.523"></path><path d="M134.209 189.026h-.007l-.394.213-.06-.235.496-.265h.263v2.271h-.298v-1.984zm1.129 1.984v-.188l.241-.235c.58-.551.842-.845.846-1.188 0-.23-.113-.443-.451-.443a.773.773 0 0 0-.483.192l-.098-.217a.997.997 0 0 1 .644-.23c.49 0 .695.335.695.66 0 .419-.304.759-.783 1.22l-.181.168v.006h1.02v.255h-1.45zm1.694.43c.077-.206.172-.58.21-.835l.343-.035a4.343 4.343 0 0 1-.332.85l-.22.02zm2.182-2.442h-.866l-.087.584c.051-.008.1-.015.184-.015.175 0 .35.039.49.122a.648.648 0 0 1 .325.584c0 .443-.354.775-.846.775a1.11 1.11 0 0 1-.566-.14l.077-.234a1 1 0 0 0 .485.126c.29 0 .538-.188.538-.492-.003-.294-.199-.503-.653-.503-.129 0-.23.014-.315.025l.148-1.091h1.086v.259zm1.39 2.012v-.618h-1.054v-.203l1.012-1.45h.332v1.412h.319v.241h-.319v.618h-.29zm0-.86v-.758c0-.118.004-.237.011-.356h-.01c-.07.133-.127.231-.189.336l-.556.772v.007h.744zm-28.361-8.872v-.618h-1.055v-.203l1.013-1.45h.332v1.412h.319v.24h-.319v.619h-.29zm0-.86v-.758c0-.118.004-.238.01-.357h-.01c-.07.133-.126.232-.188.336l-.556.773v.007h.744zm.744 1.29c.077-.206.172-.58.21-.835l.343-.036a4.343 4.343 0 0 1-.332.85l-.22.02zm.826-.43v-.189l.242-.234c.58-.552.841-.846.845-1.188 0-.23-.112-.444-.45-.444a.773.773 0 0 0-.483.193l-.098-.217a.997.997 0 0 1 .644-.23c.489 0 .695.334.695.66 0 .418-.305.758-.783 1.22l-.182.167v.007h1.02v.255h-1.45zm2.747 0v-.618h-1.055v-.203l1.013-1.45h.332v1.412h.318v.24h-.318v.619h-.29zm0-.86v-.758c0-.118.003-.238.01-.357h-.01c-.07.133-.126.232-.189.336l-.556.773v.007h.745zm-9.166 18.765v-.618h-1.054v-.203l1.012-1.45h.333v1.412h.318v.241h-.318v.618h-.29zm0-.86v-.758c0-.118.004-.237.011-.356h-.01c-.07.132-.127.231-.189.335l-.556.773v.007h.744zm.745 1.29c.077-.206.171-.58.21-.835l.342-.035a4.343 4.343 0 0 1-.332.85l-.22.02zm1.776-.43v-.618h-1.055v-.203l1.013-1.45h.332v1.412h.318v.241h-.318v.618h-.29zm0-.86v-.758c0-.118.004-.237.01-.356h-.01c-.07.132-.126.231-.188.335l-.556.773v.007h.744zm.845.86v-.188l.242-.235c.58-.551.842-.845.846-1.188 0-.23-.113-.444-.452-.444a.773.773 0 0 0-.482.193l-.098-.217a.997.997 0 0 1 .644-.23c.49 0 .695.335.695.66 0 .419-.304.759-.783 1.22l-.182.167v.007h1.02v.255h-1.45zm21.835 7.745h-.007l-.395.213-.06-.234.497-.266h.263v2.272h-.298v-1.985zm2.603-.287v.203l-.99 2.069h-.316l.985-2.01v-.007h-1.111v-.255h1.432zm.22 2.701c.077-.206.172-.58.21-.835l.343-.035a4.343 4.343 0 0 1-.332.85l-.221.02zm2.123-2.484c-.064-.004-.144 0-.231.014a.923.923 0 0 0-.79.807h.01a.677.677 0 0 1 .549-.261c.402 0 .685.29.685.733 0 .416-.283.8-.754.8-.487 0-.804-.377-.804-.968 0-.447.16-.8.384-1.023a1.23 1.23 0 0 1 .726-.336c.092-.014.168-.018.225-.018v.252zm-.088 1.31c0-.325-.185-.52-.468-.52a.506.506 0 0 0-.44.28.257.257 0 0 0-.035.136c.007.373.177.65.5.65.265 0 .443-.22.443-.545zm1.942-1.268h-.866l-.088.584c.053-.008.102-.015.186-.015.175 0 .35.04.49.122a.648.648 0 0 1 .324.584c0 .444-.353.776-.845.776a1.11 1.11 0 0 1-.567-.14l.077-.233c.095.055.28.125.486.125.29 0 .538-.189.538-.492-.003-.294-.2-.503-.653-.503-.13 0-.231.013-.315.024l.148-1.09h1.085v.258zm31.295-.125v-.618h-1.055v-.203l1.012-1.45h.332v1.412h.319v.24h-.319v.619h-.29zm0-.86v-.758c0-.118.003-.238.01-.357h-.01c-.07.133-.127.232-.19.336l-.555.773v.007h.744zm.744 1.29c.077-.206.171-.58.21-.835l.342-.035a4.343 4.343 0 0 1-.332.85l-.22.02zm1.776-.43v-.618h-1.055v-.203l1.013-1.45h.332v1.412h.318v.24h-.318v.619h-.29zm0-.86v-.758c0-.118.004-.238.01-.357h-.01c-.07.133-.126.232-.189.336l-.555.773v.007h.744zm.817.284c0-.287.172-.49.451-.609l-.003-.01c-.251-.119-.36-.315-.36-.51 0-.36.304-.605.702-.605.44 0 .66.277.66.559 0 .192-.093.398-.374.531v.011c.284.111.458.31.458.587 0 .394-.338.66-.772.66-.475 0-.762-.282-.762-.614zm1.224-.015c0-.275-.192-.408-.5-.496-.266.077-.41.252-.41.469-.009.23.166.432.456.432.275 0 .454-.17.454-.405zm-.846-1.136c0 .228.171.35.434.42.195-.066.346-.206.346-.412 0-.181-.109-.37-.385-.37-.255 0-.395.167-.395.362zm2.212-.698c-.256.342-.44.797-.44 1.429 0 .622.192 1.07.44 1.419h-.241c-.22-.29-.458-.737-.458-1.42.004-.688.237-1.135.458-1.428h.241zm.896.44h-.007l-.395.213-.06-.234.497-.266h.262v2.272h-.297v-1.984zm1.027 2.415c.077-.206.172-.58.21-.835l.343-.035a4.343 4.343 0 0 1-.332.85l-.221.02zm.9-.783c.087.056.29.143.502.143.396 0 .518-.251.514-.44-.003-.318-.29-.455-.587-.455h-.17v-.23h.17c.224 0 .507-.115.507-.384 0-.181-.115-.343-.399-.343a.83.83 0 0 0-.454.15l-.08-.223c.118-.088.35-.175.594-.175.447 0 .65.266.65.541 0 .235-.14.434-.42.536v.006c.28.056.507.266.507.584 0 .364-.283.681-.828.681a1.16 1.16 0 0 1-.59-.153l.083-.238zm2.672.353v-.618h-1.054v-.203l1.012-1.45h.332v1.412h.319v.24h-.319v.619h-.29zm0-.86v-.758c0-.118.004-.238.011-.357h-.01c-.07.133-.127.232-.19.336l-.555.773v.007h.744zm.759 1.283c.248-.346.44-.8.44-1.429 0-.626-.189-1.073-.44-1.419h.237c.224.286.458.734.458 1.422 0 .685-.234 1.129-.458 1.426h-.237z" fill="#eebd7b"></path></g></svg>