<svg version="1.1" xmlns="http://www.w3.org/2000/svg" xmlns:xlink="http://www.w3.org/1999/xlink" viewBox="0.335 107.887 88.991 86.097"><path fill-rule="evenodd" clip-rule="evenodd" fill="none" d="m88.872 193.984-73.651-.182.09-56.39-14.829.127-.147-29.652h88.991z"></path><path fill-rule="evenodd" clip-rule="evenodd" fill="none" d="M1.672 136.366H18.95v56.163h63.468v-65.696H77.9l-.03-17.412-76.199-.195z"></path><clipPath id="a"><path fill-rule="evenodd" clip-rule="evenodd" fill="none" d="m88.872 193.984-73.651-.182.09-56.39-14.829.127-.147-29.652h88.991z"></path></clipPath><g clip-path="url(#a)"><path fill-rule="evenodd" clip-rule="evenodd" fill="#eebd7b" d="M82.962 109.42h.114v15.959h-.114zm.796 0h.114v15.959h-.114z"></path><path fill-rule="evenodd" clip-rule="evenodd" fill="#eebd7b" d="M83.758 109.42h.114v-1.454H18.949v1.455h64.127zm-64.809 26.946H56.82v1.046H18.95zm37.871 29.44h1.046v-1.455H18.95v1.455h28.977zm10.457 28.178h15.14v-1.455H18.949v1.455h47.283zm-.454-86.018h1.045v-5.9h-1.045v5.9m0-14.175h1.045v-1.273h-1.045v1.272zm.454 123.834v-1.356h-1.045v1.356h1.045m-1.045-13.267h1.045v-10.374h-1.045v10.374z"></path><path fill-rule="evenodd" clip-rule="evenodd" fill="#eebd7b" d="M77.9 126.833h1.425v-17.412H77.87v17.412zm1.425-1.455h3.092v1.455h-3.092zm4.547-17.412v-5.91h-1.455v5.91h1.455m0-15.003V66.876h-1.455v26.087h1.455m-1.455-35.18h1.455v-7.511h-1.455v7.512zm0 108.023v-1.045H66.595v1.045h15.822m-23.187 0v-1.045h-1.364v1.045h1.364zm-2.41-1.455h1.046v-8.274H56.82v8.274m1.046-16.549v-11.436H56.82v11.436h1.046m-1.046-19.71h1.046V109.42H56.82v18.671z"></path><path fill-rule="evenodd" clip-rule="evenodd" fill="#eebd7b" d="M83.872 193.984v-35.78h-1.455v35.78h1.455m-1.455-44.873h1.455v-23.733h-.114v.046h-.682v-.046h-.66v23.733zm-10.002-22.278h5.455v-1.045h-6.319v1.045h.864m-14.549 0h6.32v-1.045h-6.32v1.045z"></path><path fill-rule="evenodd" clip-rule="evenodd" fill="#eebd7b" d="M77.9 148.656h4.517v-1.045H73.46v1.045z"></path><path fill-rule="evenodd" clip-rule="evenodd" fill="#eebd7b" d="M72.415 148.656h1.045v-4.091h-1.045v4.091M73.46 137.2v-10.366h-1.045V137.2h1.045zm8.226 32.425h.549v-3.637h-7.274v3.637h6.725m-6.27-.363v-2.91h.909v2.91h-.91m1.364 0v-2.91h3.637v2.91H76.78m4.64 0h-.548v-2.91h.91v2.91h-.365zm-3.55-38.609h4.365v-3.638h-7.274v3.638h2.91m1.454-.364H76.78v-2.91h3.637v2.91h-1.09m1.545 0v-2.91h.91v2.91h-.91m-5.456 0v-2.91h.91v2.91h-.91zm-59.329 7.297h1.637v-1.045H1.378v1.045h14.255zm-14.55-29.233h16.187v1.045H1.537z"></path><path fill-rule="evenodd" clip-rule="evenodd" fill="#eebd7b" d="m15.22 101.15.092 14.623h1.71l.036-.637h1.891l-.09-13.396h-1.91v-.59zm.092 41.515v-11.73h1.71l-.034.637h1.961v10.502h-1.455v.591zm.083 15.162v13.027h2.08l.037-.637h1.52v-11.799h-1.556v-.59zm-.114 28.178v12.079h2.183l.036-.637h1.419v-10.85h-1.455v-.592zm67.681-76.798h.91v16.899h-.91z"></path><path fill="none" stroke="#eebd7b" stroke-width=".25" stroke-linecap="round" stroke-linejoin="round" stroke-miterlimit="10" d="m83.872 149.11 4.546 7.876m-31.598-.909-4.137-7.166m4.137-12.545-4.137-7.166m13.912 35.56-6.378-3.682m11.334-34.245-6.379 3.683m7.243 6.684-3.683 6.378"></path><path fill="none" stroke="#eebd7b" stroke-width=".2" stroke-linecap="round" stroke-linejoin="round" stroke-miterlimit="10" d="M17.04 124.011h.545m0 0v-1.018m0 0h-.546m.001 0v1.018m0 6.711h.545m0 0v.782m0 0h-.546m.001 0v-.782m0-14.803h.545m0 0v-.783m0 0h-.546m.001 0v.783m.545 14.803 3.355-5.812m-3.9-8.991v7.074m.545 0v-7.074m.545 26.155v16.367m-.636-16.367v16.367m0 0h.636m-.636-16.367h.636m0 28.178v16.367m-.636-16.367v16.367m0 0h.636m-.636-16.367h.636"></path><path fill="none" stroke="#eebd7b" stroke-width=".15" stroke-linecap="round" stroke-linejoin="round" stroke-miterlimit="10" d="M80.507 177.627c.251 0 .455.204.455.454m-3.637 0c0-.25.204-.454.455-.454m0 3.637a.455.455 0 0 1-.455-.455m3.637.001a.455.455 0 0 1-.455.454"></path><path fill="none" stroke="#eebd7b" stroke-width=".15" stroke-linecap="round" stroke-linejoin="round" stroke-miterlimit="10" d="M82.417 175.263H76.96v6.365h5.456m-4.182-6.001v2m.455-2v2m.454-2v2m.455-2v2m.455-2v2"></path><path fill="none" stroke="#eebd7b" stroke-width=".15" stroke-linecap="round" stroke-linejoin="round" stroke-miterlimit="10" d="M80.507 175.627v2H77.78v-2"></path><path fill="none" stroke="#eebd7b" stroke-width=".15" stroke-linecap="round" stroke-linejoin="round" stroke-miterlimit="10" d="M77.325 178.079v-2.452h3.637v2.447m0 2.736v-2.729m-3.637 0v2.728m.455.455h2.727m-.227-1.819h-.727m.363-.363v.727m0-.545a.182.182 0 1 1 0 .363.182.182 0 0 1 0-.363z"></path><path fill="none" stroke="#eebd7b" stroke-width=".15" stroke-linecap="round" stroke-linejoin="round" stroke-miterlimit="10" d="M79.916 179.173a.273.273 0 1 1 0 .545.273.273 0 0 1 0-.545zm-7.334-68.42a13.55 13.55 0 0 0 3.3 0m-3.3 0a.191.191 0 0 1-.167-.191m.128 3.529a1.501 1.501 0 0 0 .075.45 1.573 1.573 0 0 0 .27.502 1.7 1.7 0 0 0 .691.518 1.785 1.785 0 0 0 1.15.07 1.706 1.706 0 0 0 .743-.433 1.598 1.598 0 0 0 .32-.468 1.537 1.537 0 0 0 .131-.645"></path><path fill="none" stroke="#eebd7b" stroke-width=".15" stroke-linecap="round" stroke-linejoin="round" stroke-miterlimit="10" d="M72.62 114.09a1.46 1.46 0 0 0 .122.563 1.513 1.513 0 0 0 .274.422 1.585 1.585 0 0 0 .398.32 1.678 1.678 0 0 0 .738.22 1.699 1.699 0 0 0 .87-.18 1.602 1.602 0 0 0 .429-.325 1.522 1.522 0 0 0 .267-.402 1.425 1.425 0 0 0 .129-.622m.205-3.524a.19.19 0 0 1-.17.191m-1.649-.773c.087 0 .157.072.157.161s-.07.16-.157.16-.157-.071-.157-.16.07-.16.157-.16zm-1.818.582v-1.141m3.637-.001v1.142"></path><path fill="none" stroke="#eebd7b" stroke-width=".15" stroke-linecap="round" stroke-linejoin="round" stroke-miterlimit="10" d="M72.543 110.746v3.346l.32-2.766h2.74l.32 2.759m-3.304.006.32-2.765m2.909 2.759-.32-2.76m.396-.581v3.391m1.946 6.197h-5.455v5.456m5.455 0-5.455-5.456m0 5.456 5.455-5.456"></path><circle fill="none" stroke="#eebd7b" stroke-width=".15" stroke-linecap="round" stroke-linejoin="round" stroke-miterlimit="10" cx="75.143" cy="123.06" r="2.728"></circle><path fill="none" stroke="#eebd7b" stroke-width=".15" stroke-linecap="round" stroke-linejoin="round" stroke-miterlimit="10" d="M65.945 110.603c0-.251.203-.455.455-.455m0 2.728a.455.455 0 0 1-.455-.455m3.637 0a.455.455 0 0 1-.455.455m0-2.728c.252 0 .455.204.455.455"></path><path fill="none" stroke="#eebd7b" stroke-width=".15" stroke-linecap="round" stroke-linejoin="round" stroke-miterlimit="10" d="M70.037 109.42v3.82H65.49v-3.82m3.637.728H66.4m-.455.455v1.818m.455.455h2.727m.455-.455v-1.818m-1.819.59v-.23m-.363-.133h.23m.133-.133v-.23m.134.363h.23"></path><circle fill="none" stroke="#eebd7b" stroke-width=".15" stroke-linecap="round" stroke-linejoin="round" stroke-miterlimit="10" cx="67.763" cy="110.83" r=".28"></circle><path fill="none" stroke="#eebd7b" stroke-width=".15" stroke-linecap="round" stroke-linejoin="round" stroke-miterlimit="10" d="M67.564 110.83a.2.2 0 1 1 .4 0 .2.2 0 0 1-.4 0zm-3.333-1.41v15.458m0 0h-6.365m3.183-13.46a.231.231 0 1 0 0-.462m0 0a.231.231 0 0 0 0 .462m2.489-.15c0-.637-.517-1.154-1.155-1.154m-2.669 0c-.638 0-1.155.517-1.155 1.154m3.824 12.917c.638 0 1.155-.516 1.155-1.154m-4.978-.001c0 .639.516 1.155 1.154 1.155m0 0h2.67m1.154-1.155v-11.762m-1.155-1.154h-2.67m-1.153 1.154v11.763m21.87 9.136a13.55 13.55 0 0 1-3.3 0m3.3 0a.19.19 0 0 0 .168-.191m-.128 3.529a1.604 1.604 0 0 1-.075.45 1.575 1.575 0 0 1-.27.502 1.694 1.694 0 0 1-.691.518 1.81 1.81 0 0 1-.864.124 1.775 1.775 0 0 1-.56-.156 1.68 1.68 0 0 1-.47-.331 1.587 1.587 0 0 1-.41-.736 1.52 1.52 0 0 1-.04-.378"></path><path fill="none" stroke="#eebd7b" stroke-width=".15" stroke-linecap="round" stroke-linejoin="round" stroke-miterlimit="10" d="M80.393 135.504a1.472 1.472 0 0 1-.241.784 1.593 1.593 0 0 1-.553.52 1.698 1.698 0 0 1-1.608.04 1.574 1.574 0 0 1-.58-.515 1.466 1.466 0 0 1-.243-.738c-.002-.032-.002-.064-.002-.095m-.205-3.524a.19.19 0 0 0 .17.19m1.649-.772c-.087 0-.158.072-.158.16s.07.161.158.161c.087 0 .157-.072.157-.16s-.07-.161-.157-.161z"></path><path fill="none" stroke="#eebd7b" stroke-width=".15" stroke-linecap="round" stroke-linejoin="round" stroke-miterlimit="10" d="M80.598 131.976v-1.142h-3.637v1.142m3.509.184v3.345l-.32-2.766h-2.741l-.32 2.76m3.305.006-.32-2.766m-2.909 2.759.32-2.759m-.395-.581v3.39m2.05 11.062a.455.455 0 0 1-.455.455m0-2c.25 0 .454.203.454.454m-2.637.001c0-.252.204-.455.455-.455m0 2a.455.455 0 0 1-.455-.455"></path><path fill="none" stroke="#eebd7b" stroke-width=".15" stroke-linecap="round" stroke-linejoin="round" stroke-miterlimit="10" d="M76.23 147.61v-2.727h3.182v2.728m-2.455-.546h1.728m.455-.455v-1.09m-.455-.455h-1.728m-.455.455v1.09m1.318-.59v.23m.364.133h-.23m-.134.133v.23m-.133-.363h-.23"></path><path fill="none" stroke="#eebd7b" stroke-width=".15" stroke-linecap="round" stroke-linejoin="round" stroke-miterlimit="10" d="M77.82 146.663a.28.28 0 1 1 0-.56.28.28 0 0 1 0 .56z"></path><circle fill="none" stroke="#eebd7b" stroke-width=".15" stroke-linecap="round" stroke-linejoin="round" stroke-miterlimit="10" cx="77.821" cy="146.383" r=".2"></circle><path fill="none" stroke="#eebd7b" stroke-width=".15" stroke-linecap="round" stroke-linejoin="round" stroke-miterlimit="10" d="M76.961 192.53v-5.457h-5.456v5.456m1.41-3.132v-.455m0-.646v-.455m-.778.779h.455m.646 0h.455m1.859.777v-.455m0-.646v-.455m.778.779h-.455m-.646 0h-.455m-1.859 1.586v.454m0 .647v.454m-.778-.778h.455m.646 0h.455m1.859-.777v.454m0 .647v.454m.778-.778h-.455m-.646 0h-.455M55.911 102.52h5.456v5.446m-5.456 0v-5.446l5.446 5.446m-5.436 0 5.446-5.446m4.683 90.01v-5.457h-5.456v5.456l5.456-5.456m-5.456 0 5.456 5.456m-2.728-3.209v.964m.482-.483h-.964M50.456 102.52v5.446m21.049 79.107H66.05m10.911-5.455v5.455m0-11.82v-5.446"></path><path fill="none" stroke="#eebd7b" stroke-width=".15" stroke-miterlimit="10" d="M46.655 192.33v-13.437h8.078v13.437h-8.078"></path><path fill="none" stroke="#eebd7b" stroke-width=".15" stroke-miterlimit="10" d="M47.103 179.342h7.18v12.54h-7.18zm-2.453 2.752-.499-.098m.499 1.862-.505.084m.06-2.574a15.538 15.538 0 0 0 0 3.32m.445-.726-.499.097m-.026-1.343h.524m.001.518h-.525m0 .106h.524m.088-2.035-.088.014m.001 3.419.085.013m-.085-.375-.458.108m.458-2.286-.5-.084m.5.706h-.526m.526-1.141-.46-.103m-.31-.463a8.188 8.188 0 0 0 .024 3.808m.301-3.553-.326-.255m.326 3.575-.3.233m.3-3.448.444.103m-.444 3.009.444-.104m.089.207v.208m1.917-.103-1.917-.106m0 .209 1.917.295m-2.005-.456v-3.417m.088.047v-.207m1.917.105-1.917.102m0-.207 1.917-.296m-2.005 6.292-.499-.098m.499 1.861-.505.084m.06-2.573a15.538 15.538 0 0 0 0 3.32m.445-.728-.499.097m-.026-1.341h.524m.001.518h-.525m0 .106h.524m.088-2.037-.088.016m.001 3.417.085.016m-.085-.376-.458.108m.458-2.286-.5-.084m.5.705h-.526m.526-1.142-.46-.102m-.31-.463a8.199 8.199 0 0 0 .024 3.81m.301-3.554-.326-.256m.326 3.576-.3.234m.3-3.451.444.104m-.444 3.009.444-.104m.089.208v.205m1.917-.103-1.917-.102m0 .205 1.917.298m-2.005-.455v-3.419m.088.05v-.21m1.917.104-1.917.106m0-.209 1.917-.296m10.084-3.828.497-.098m-.497 1.862.504.084m-.061-2.574a15.529 15.529 0 0 1 0 3.319m-.443-.725.497.097m.026-1.343h-.523m0 .518h.523m0 .106h-.523m-.088-2.035.088.014m0 3.419-.086.013m.086-.375.455.108m-.455-2.286.499-.084m-.499.706h.524m-.524-1.141.46-.103m.311-.463a8.188 8.188 0 0 1-.026 3.808m-.302-3.553.327-.255m-.327 3.574.302.234m-.302-3.448-.443.103m.443 3.009-.443-.104m-.089.206v.21m-1.917-.104 1.917-.106m0 .209-1.917.295m2.006-.456v-3.417m-.089.047v-.207m-1.917.105 1.917.102m0-.207-1.917-.296m2.006 6.291.497-.097m-.497 1.861.504.083m-.061-2.572a15.538 15.538 0 0 1 0 3.32m-.443-.728.497.097m.026-1.341h-.523m0 .518h.523m0 .106h-.523m-.088-2.037.088.016m0 3.417-.086.016m.086-.376.455.108m-.455-2.286.499-.084m-.499.705h.524m-.524-1.142.46-.102m.311-.463a8.199 8.199 0 0 1-.026 3.81m-.302-3.554.327-.256m-.327 3.576.302.234m-.302-3.451-.443.104m.443 3.009-.443-.104m-.089.208v.205m-1.917-.103 1.917-.102m0 .205-1.917.298m2.006-.455v-3.419m-.089.05v-.21m-1.917.104 1.917.106m0-.209-1.917-.296m-30.481-19.595h4.686v2.287h-4.686zm0 1.894h4.686m-4.686 0 4.686-1.894m0 1.894-4.686-1.894m6.829 1.669h8.591m-8.591-.325h8.591m0 .445v-.445m-8.591 0v.445m4.969-.965h-1.345m-3.624.965h8.591m-9.414-1.405h-.984m0 0v1.405m0 0h.984m0 0v-1.405m-.984 1.269h.984m-1.32-1.653h12.877m-12.877 2.287h12.877m-12.877-2.287v2.287m7.112-1.463a9.08 9.08 0 0 1 3.135.52m-7.615 0a9.079 9.079 0 0 1 3.135-.52m5.791-.44h.984m0 0v1.405m0 0h-.984m0 0v-1.405m.984 1.269h-.984m1.319-1.653v2.287m0-2.288H46.5v2.288h-4.685zm0 1.895H46.5m-4.685 0 4.685-1.895m0 1.895-4.685-1.895"></path><path fill="none" stroke="#eebd7b" stroke-width=".15" stroke-miterlimit="10" d="M46.488 166.326h4.685v2.288h-4.685zm0 1.895h4.685m-4.685 0 4.685-1.895m0 1.895-4.685-1.895m-26.963 0h4.684v2.288h-4.684zm0 1.895h4.684m-4.684 0 4.684-1.895m.001 1.895-4.685-1.895"></path><g fill="none" stroke="#eebd7b" stroke-width=".15" stroke-miterlimit="10"><path d="M21.934 188.186c-.06.34-.13.66-.21 1.055-.417 1.279-1.599.666-1.599.027v-5.037s.073-.573.53-.573h1.119s.384-.052.463 1.079"></path><path d="M20.125 189.401v1.146s.124.826.91.906c.518.081 3.51.613 9.525.613 6.017 0 9.033-.532 9.549-.613.789-.08.912-.906.912-.906V189.4"></path><path d="M21.573 189.6c1.351-.574 4.279-.36 4.803-.36.689 0 .644.056.664.057m0 1.886a.594.594 0 0 1-.06.003h-5.318c-.503-.026-.775-.292-.775-.772a.659.659 0 0 1 .135-.424"></path><path d="M24.01 188.631c1.286-.056 2.752-.038 3.055.077v.589m-5.389.237s-.074-.48.54-.72c.135-.051.41-.127.892-.162m3.957-.983v3.514s4.234.156 7.014 0v-7.353s.517-.16 2.019-.133c1.5.027 2.904.346 2.904.346m-16.859 0s1.403-.32 2.903-.346c1.501-.026 2.019.133 2.019.133v2.235"></path><path d="M41.02 189.268v-5.037s-.074-.573-.529-.573h-1.12s-1.107-.147.05 5.583c.418 1.279 1.6.666 1.6.027z"></path><path d="M39.573 189.6c-1.353-.574-4.28-.36-4.805-.36-.689 0-.644.056-.664.057m0 1.886a.59.59 0 0 0 .061.003h5.317c.504-.026.775-.292.775-.772a.66.66 0 0 0-.135-.424m-18.242-1.815c.684.287 1.666.692 1.666.692s.27.187.344 0c.074-.186.543-1.52.543-1.52m-.56-1.685s-1.484-.66-1.63-.925c-.15-.266-1.233 2.744-1.233 2.744s.025.32.248.427c.067.033.315.139.622.267m5.2-2.065c.235.443.76 1.05.403 1.292a8.334 8.334 0 0 0-.411.267"></path><path d="M27.072 187.669c-.622.419-1.717 1.165-1.829 1.066 0 0-1.328-2.293-1.45-2.612-.124-.32.072-.533.195-.533.123 0 1.921-1.173 2.142-1.226.22-.054.623 1.13.95 1.746m-.04 3.187s.271-.11.666-.136c.392-.027 5.979-.1 6.373.136v-.589c.494-.187 4.343-.09 4.848.106.615.24.543.72.543.72"></path><path d="M27.065 188.708s.492-.161 1.156-.187c.533-.02 3.918-.027 5.268.026.336.015.59.161.59.161m-7.014-4.878s.566-.185 1.527-.185c.959 0 4.085-.028 4.085-.028s1.304-.027 1.402.213"></path></g><path fill="none" stroke="#eebd7b" stroke-width=".15" stroke-miterlimit="10" d="M39.73 115.857v-6.101H25.884v3.208m1.068 2.826.45.233.227-.127.262.27h.744l.105.188.323-.105.188.218.413-.15 1.743.51.97-.346h.625m-6.636-.796.698.099m-1.272-.048.888-.14m-.703 5.817.672-.25m-.86.327.895.68m-.517 2.693-.413.6m-.012-6.583.347-.34m-.411.049.576-.3m13.404 6.349.2.8m-.264-1.562.387 1.45m-.435-2.338.386.888m-.298-5.116v3.915m.144-6.52v2.68m-13.555 3.44v2.355m.059-6.028v2.584m-.222-5.251v2.242m-.176-2.685v-2.528m13.817 13.29v1.444H25.884v-1.78"></path><path fill="none" stroke="#eebd7b" stroke-width=".15" stroke-miterlimit="10" d="m25.523 115.55 1.202-.194.872.223.595.278h.965l.763-.205h.853v.149h1.45l1.003-.278h.872l1.116.222h2.139l.668-.242 1.264.354h.891l.177.194-.162.472-.149.334v.46l.264.366v.357l-.217.208v.722l.334.936-.173.413.126.15-.264.184.254.597-.196.645v2.116l.338.528v.627l-.628.528v.56h-.725l-1.517-.43h-1.22l-.396.395h-2.505l-.593-.414h-.833l-.37.369h-.833l-.949-.393-1.411.37-.601-.255-1.296.3-.924-.345v-.74h-.255l.275-.431-.238-.376.25-.613-.114-.206.193-.739-.227-1.4.136-.228-.114-.228.207-1.205-.437-1.219.29-1.02-.235-.763.236-.491-.151-.643m13.107-3.24v.295m-.152-.534-.39.192m.456-.247h-.323m.389.017-.2.258m-.237 2.54v-.276m-.02.408-.313-.504m.094.458-.437-.373h-.143l.105.144.266.153m.325.236-.59-.265m-.716.086h.544m-1.218-.239.693.342m-3.208-.943h.562l.408-.124.495.2.58.278.66.474m-3-1.246h.237m-.79-.077.534.343h.198v-.056h-.18l-.143-.133v-.237m-.057-.411h.514m-.495-.144.276-.123m.733-1.902.486.18m-.628.115.114.343m-.114-.507.152.364h.096v-.057l-.134-.2m-.285-.218v.693m-3.798 2.527.818.272-.12-.144.501.175.535-.217m-3.27-.023h.872m-1.395.23.664-.187m3.706-.018-.282-.147h-.067v.101l.525.14m-.019-.071-.517-.394m.607.394-.259-.383m-.135-2.471-.19.45m.201-.607-.74.562v.19h.156l.394-.504m-4.9 1.269.225.168m-.247-.269h.483m-.269-1.011.225.314m-.316-.517.608.483h.145l-.247-.224-.348-.248h.382m-.461 2.841h.518m-.641-.202.337-.348m-.349.472.754-.314"></path><path fill="none" stroke="#eebd7b" stroke-width=".15" stroke-miterlimit="10" d="m33.583 110.754 1.526.11.892.25 1.429.396.802.378.489.042-.06.216.13.456-.155.551-.316.487-.14.503.086.55.043.334-.096.345-.172-.17-.635-.176-.469.126-.698-.194-.683-.401-.553-.155-.608-.17-.648.013-.575-.158-.409-.322-.242-.262.325-.115.11-.395-.03-.467.165-.588.42-.55.107-.381-.035-.253"></path><path fill="none" stroke="#eebd7b" stroke-width=".15" stroke-miterlimit="10" d="m26.994 111.337 1.498-.303h2.411l.874.15.481-.093v.224l.249.406v.571l-.175.557v.52l.231.508.132.31v.356l-.214-.115h-.658l-.417.246h-.725l-.767-.203H28.71l-.62.187h-.597l-.48-.2-.304-.185.281-.2v-.41l-.152-.443v-.608l.257-.643v-.399l-.1-.233"></path><path fill="none" stroke="#eebd7b" stroke-width=".15" stroke-miterlimit="10" d="M39.285 111.593a22.098 22.098 0 0 0-13.252-.163m12.544 14.976.331-.102.173.563-.331.101zm-12.258-.042.337.08-.136.573-.337-.081zm12.419-15.534.186-.562.33.11-.187.561zm-12.653-.65.329-.108.187.561-.329.107z"></path><path fill="none" stroke="#eebd7b" stroke-width=".15" stroke-miterlimit="10" d="M26.622 126.584c3.963.767 8.038.752 11.995-.05"></path><path fill="none" stroke="#eebd7b" stroke-width=".15" stroke-miterlimit="10" d="M26.546 126.906c4.018.792 8.157.773 12.168-.054m.069-16.157a34.73 34.73 0 0 0-12.216-.165"></path><path fill="none" stroke="#eebd7b" stroke-width=".15" stroke-miterlimit="10" d="M38.87 110.428a34.672 34.672 0 0 0-12.391-.166m13.209-.463h2.664v2.664h-2.664zm-16.43 0h2.664v2.664h-2.664zm30.83 14.805v-15.25m.274 15.25v-15.25m-1.831 8.809a.205.205 0 0 0-.257.13.205.205 0 0 0 .128.256c.021.005.044.01.065.01m3.364-.007a13.265 13.265 0 0 0-3.364.007m3.364-.007a.196.196 0 0 0 .037-.392h-.032m-3.305.003c1.098.135 2.208.135 3.305-.003"></path><path fill="none" stroke="#eebd7b" stroke-width=".15" stroke-miterlimit="10" d="M53.753 118.347c0 .029.189.05.42.05.233 0 .421-.021.421-.05 0-.03-.188-.054-.42-.054-.232 0-.42.024-.42.054m-1.212-1.141a.204.204 0 0 0-.128.387c.021.007.043.01.064.01"></path><path fill="none" stroke="#eebd7b" stroke-width=".15" stroke-miterlimit="10" d="M55.842 117.597a13.348 13.348 0 0 0-3.364.005m3.364-.005a.198.198 0 1 0 .005-.394"></path><path fill="none" stroke="#eebd7b" stroke-width=".15" stroke-miterlimit="10" d="M52.542 117.206c1.097.138 2.208.136 3.305-.003"></path><path fill="none" stroke="#eebd7b" stroke-width=".15" stroke-miterlimit="10" d="M53.764 117.39c0 .03.189.054.42.054.233 0 .422-.025.422-.053 0-.03-.19-.054-.422-.054-.231 0-.42.025-.42.054m-1.271-1.101a.202.202 0 0 0-.256.13.202.202 0 0 0 .192.266"></path><path fill="none" stroke="#eebd7b" stroke-width=".15" stroke-miterlimit="10" d="M55.792 116.681a13.241 13.241 0 0 0-3.363.005m3.363-.005a.2.2 0 0 0 .216-.18.2.2 0 0 0-.21-.214m-3.305.003c1.097.138 2.207.136 3.304-.003"></path><path fill="none" stroke="#eebd7b" stroke-width=".15" stroke-miterlimit="10" d="M53.717 116.475c0 .03.187.053.419.053.231 0 .42-.024.42-.053 0-.03-.189-.053-.42-.053-.232 0-.42.023-.42.053m-1.192-1.178a.203.203 0 0 0-.128.386.185.185 0 0 0 .064.011"></path><path fill="none" stroke="#eebd7b" stroke-width=".15" stroke-miterlimit="10" d="M55.823 115.688a13.297 13.297 0 0 0-3.363.004m3.363-.004c.11.009.207-.07.215-.179a.195.195 0 0 0-.179-.213c-.008-.002-.02-.002-.03-.002m-3.305.003a13.23 13.23 0 0 0 3.304-.003"></path><path fill="none" stroke="#eebd7b" stroke-width=".15" stroke-miterlimit="10" d="M53.747 115.48c0 .03.188.053.42.053.23 0 .419-.024.419-.054 0-.028-.188-.05-.42-.05-.231 0-.419.022-.419.05m-1.216-1.137a.203.203 0 1 0-.064.396"></path><path fill="none" stroke="#eebd7b" stroke-width=".15" stroke-miterlimit="10" d="M55.831 114.731a13.229 13.229 0 0 0-3.364.006m3.364-.006a.197.197 0 1 0 .005-.392m-3.305.003c1.098.136 2.208.136 3.305-.003"></path><path fill="none" stroke="#eebd7b" stroke-width=".15" stroke-miterlimit="10" d="M53.753 114.525c0 .028.189.052.42.052.233 0 .421-.024.421-.052 0-.029-.188-.054-.42-.054-.232 0-.42.025-.42.054m-1.265-1.265a.201.201 0 0 0-.255.128.204.204 0 0 0 .128.257.21.21 0 0 0 .064.01"></path><path fill="none" stroke="#eebd7b" stroke-width=".15" stroke-miterlimit="10" d="M55.79 113.65a13.262 13.262 0 0 0-3.364.004m3.364-.004a.197.197 0 0 0 .036-.392h-.032m-3.305.002c1.098.138 2.208.135 3.305-.002"></path><path fill="none" stroke="#eebd7b" stroke-width=".15" stroke-miterlimit="10" d="M53.713 113.443c0 .028.188.05.42.05s.42-.022.42-.05c0-.029-.189-.052-.42-.052s-.42.023-.42.052M52.55 112.2a.203.203 0 1 0-.128.386.26.26 0 0 0 .064.009m3.362-.006a13.275 13.275 0 0 0-3.362.006m3.362-.006a.197.197 0 1 0 .037-.392c-.01 0-.02-.002-.032 0m-3.303.003a13.35 13.35 0 0 0 3.303-.003"></path><path fill="none" stroke="#eebd7b" stroke-width=".15" stroke-miterlimit="10" d="M53.773 112.382c0 .03.189.053.42.053.23 0 .419-.024.419-.053 0-.028-.188-.052-.42-.052-.23 0-.419.024-.419.052m-1.229-1.143a.205.205 0 0 0-.128.388.26.26 0 0 0 .064.01"></path><path fill="none" stroke="#eebd7b" stroke-width=".15" stroke-miterlimit="10" d="M55.842 111.63a13.23 13.23 0 0 0-3.362.005m3.362-.005a.197.197 0 0 0 .04-.392.122.122 0 0 0-.035-.001m-3.303.002a13.18 13.18 0 0 0 3.303-.002"></path><path fill="none" stroke="#eebd7b" stroke-width=".15" stroke-miterlimit="10" d="M53.767 111.424c0 .029.188.052.42.052.23 0 .419-.023.419-.052 0-.03-.19-.053-.42-.053-.231 0-.42.023-.42.053m-1.219-1.322a.204.204 0 1 0-.064.397m3.364-.008a13.368 13.368 0 0 0-3.364.008m3.364-.008a.197.197 0 0 0 .037-.391.067.067 0 0 0-.032 0m-3.305.002c1.097.137 2.207.137 3.305-.002"></path><path fill="none" stroke="#eebd7b" stroke-width=".15" stroke-miterlimit="10" d="M53.77 110.286c0 .028.187.054.421.054.23 0 .418-.026.418-.054 0-.03-.188-.052-.418-.052-.234 0-.421.023-.421.052m3.056 14.318h-5.352v-15.29"></path><path fill="none" stroke="#eebd7b" stroke-width=".15" stroke-miterlimit="10" d="M52.542 123.093a.203.203 0 1 0-.064.397"></path><path fill="none" stroke="#eebd7b" stroke-width=".15" stroke-miterlimit="10" d="M55.842 123.484a13.216 13.216 0 0 0-3.364.005m3.364-.005a.199.199 0 0 0 .214-.178.195.195 0 0 0-.177-.214.057.057 0 0 0-.032-.002m-3.305.003c1.097.138 2.208.135 3.305-.003"></path><path fill="none" stroke="#eebd7b" stroke-width=".15" stroke-miterlimit="10" d="M53.764 123.277c0 .029.189.052.42.052.233 0 .422-.023.422-.052 0-.03-.19-.054-.422-.054-.231 0-.42.024-.42.054m-1.271-1.1a.204.204 0 1 0-.064.398"></path><path fill="none" stroke="#eebd7b" stroke-width=".15" stroke-miterlimit="10" d="M55.792 122.569a13.183 13.183 0 0 0-3.363.004m3.363-.004a.2.2 0 0 0 .216-.178.196.196 0 0 0-.179-.214c-.009-.003-.02-.003-.032-.003m-3.304.003c1.097.137 2.207.135 3.304-.003"></path><path fill="none" stroke="#eebd7b" stroke-width=".15" stroke-miterlimit="10" d="M53.717 122.36c0 .03.187.054.419.054.231 0 .42-.023.42-.053s-.189-.054-.42-.054c-.232 0-.42.025-.42.054m-1.192-1.178a.203.203 0 0 0-.256.13.202.202 0 0 0 .128.256.185.185 0 0 0 .064.012m3.363-.007a13.213 13.213 0 0 0-3.363.007m3.363-.007c.11.01.207-.07.215-.18a.195.195 0 0 0-.179-.212.063.063 0 0 0-.03 0m-3.305.001a13.23 13.23 0 0 0 3.304 0"></path><path fill="none" stroke="#eebd7b" stroke-width=".15" stroke-miterlimit="10" d="M53.747 121.368c0 .03.188.054.42.054.23 0 .419-.024.419-.054 0-.029-.188-.053-.42-.053-.231 0-.419.024-.419.053m-1.216-1.14a.202.202 0 0 0-.257.13.205.205 0 0 0 .128.257c.021.006.044.01.065.01m3.364-.007a13.195 13.195 0 0 0-3.364.007m3.364-.007a.199.199 0 0 0 .214-.178.196.196 0 0 0-.21-.214"></path><path fill="none" stroke="#eebd7b" stroke-width=".15" stroke-miterlimit="10" d="M52.531 120.228a13.34 13.34 0 0 0 3.305-.002"></path><path fill="none" stroke="#eebd7b" stroke-width=".15" stroke-miterlimit="10" d="M53.753 120.412c0 .029.189.052.42.052.233 0 .421-.023.421-.052 0-.029-.188-.053-.42-.053-.232 0-.42.024-.42.053m-1.265-1.265a.201.201 0 0 0-.255.128.203.203 0 0 0 .128.257.235.235 0 0 0 .064.009m3.364-.007a13.462 13.462 0 0 0-3.364.007m3.364-.007a.193.193 0 0 0 .214-.176.198.198 0 0 0-.178-.216h-.032m-3.305.005a13.22 13.22 0 0 0 3.305-.005"></path><path fill="none" stroke="#eebd7b" stroke-width=".15" stroke-miterlimit="10" d="M53.713 119.33c0 .028.188.052.42.052s.42-.024.42-.052c0-.03-.189-.052-.42-.052s-.42.023-.42.052m3.113 5.274v-15.29m-35.558 23.767a1.928 1.928 0 0 1 3.718-1.012"></path><path fill="none" stroke="#eebd7b" stroke-width=".15" stroke-miterlimit="10" d="M22.685 130.953a1.681 1.681 0 1 1 .882 3.245 1.681 1.681 0 0 1-.882-3.245z"></path><path fill="none" stroke="#eebd7b" stroke-width=".15" stroke-miterlimit="10" d="M19.342 133.641h7.43v2.286h-7.43zm9.573.619h8.592m-8.592.325h8.592m0-.445v.445m-8.592 0v-.445m4.968.963H32.54m-3.625-.963h8.592m-9.415 1.403h-.984m0 0v-1.403m0 0h.984m0 0v1.403m-.984-1.268h.984m-1.319 1.652h12.876m-12.876-2.286h12.876m-12.876 2.286v-2.286m7.11 1.462a9.069 9.069 0 0 0 3.135-.518m-7.614 0a9.073 9.073 0 0 0 3.135.518m5.791.44h.984m0 0v-1.403m0 0h-.984m0 0v1.403m.984-1.268h-.984m1.32 1.652v-2.286m0 .001h4.684v2.287H39.65zm0 .392h4.684m-4.684 0 4.684 1.895m0-1.895-4.685 1.895m16.454 2.128H38.725m0 8.055h2.667m1.244-7.467-.448.267c-.14-.199-.4-.308-1.173-.376-.959-.083-1.757.109-1.757.109m0 0 .278.857s-.099 1.682-.278 3.2c-.223 1.899 0 2.876 0 2.876m0 0s.343-.27 1.463 0c1.107.267 1.578-.215 1.578-.215l.693.215m0 0-.2-1.155m.2.177-.356-.354m13.201-6.135v7.734m0 0h-11.6m-.001 0-1.6-1.6m0 .001v-6.135m1.6 7.734v-1.6m-1.6.001h1.6m-1.6-6.135v1.813m0-1.601h13.201m0 0v-.212m.266-.054v8.055m0 0H38.725m0 0v-8.055m-11.636 3.637a2.13 2.13 0 1 0 1.93 3.8"></path><path fill="none" stroke="#eebd7b" stroke-width=".15" stroke-miterlimit="10" d="M29.018 145.493a2.13 2.13 0 1 0-1.929-3.799"></path><path fill="none" stroke="#eebd7b" stroke-width=".15" stroke-miterlimit="10" d="M29.215 145.88a2.565 2.565 0 1 0-2.323-4.573m-7.39-3.351h5.83v12.816h-5.83zm9.713 7.924-.197-.387m-2.126-4.186.197.387m9.849 20.071H19.086m17.852-.357H19.086m11.01 1.795a.205.205 0 0 0 .129.257.205.205 0 0 0 .257-.128.291.291 0 0 0 .01-.065m-.007-3.364a13.226 13.226 0 0 0 .007 3.364m-.007-3.364a.196.196 0 0 0-.392-.036v.031m.003 3.305a13.396 13.396 0 0 0-.003-3.305"></path><path fill="none" stroke="#eebd7b" stroke-width=".15" stroke-miterlimit="10" d="M30.28 161.981c.029 0 .05-.189.05-.42 0-.233-.021-.42-.05-.42-.03 0-.054.187-.054.42 0 .231.023.42.054.42m-1.141 1.211a.204.204 0 0 0 .387.128.212.212 0 0 0 .009-.064m-.005-3.364a13.384 13.384 0 0 0 .005 3.364m-.005-3.364a.197.197 0 0 0-.394-.037.107.107 0 0 0 0 .032m.003 3.305a13.2 13.2 0 0 0-.003-3.305"></path><path fill="none" stroke="#eebd7b" stroke-width=".15" stroke-miterlimit="10" d="M29.323 161.97c.03 0 .054-.188.054-.42 0-.232-.025-.422-.054-.422s-.053.19-.053.422c0 .232.024.42.053.42m-1.1 1.271a.202.202 0 0 0 .13.256.203.203 0 0 0 .266-.192m-.005-3.363a13.221 13.221 0 0 0 .005 3.363m-.005-3.363a.198.198 0 0 0-.18-.215.2.2 0 0 0-.213.21m.002 3.304a13.233 13.233 0 0 0-.002-3.304"></path><path fill="none" stroke="#eebd7b" stroke-width=".15" stroke-miterlimit="10" d="M28.408 162.018c.03 0 .053-.188.053-.42 0-.231-.024-.42-.053-.42-.03 0-.053.189-.053.42 0 .232.023.42.053.42m-1.178 1.192a.203.203 0 0 0 .386.128.185.185 0 0 0 .012-.064"></path><path fill="none" stroke="#eebd7b" stroke-width=".15" stroke-miterlimit="10" d="M27.62 159.911a13.254 13.254 0 0 0 .005 3.363m-.005-3.363a.197.197 0 1 0-.39-.036c-.003.009-.003.02-.003.031m.003 3.304a13.272 13.272 0 0 0-.003-3.304"></path><path fill="none" stroke="#eebd7b" stroke-width=".15" stroke-miterlimit="10" d="M27.413 161.987c.03 0 .053-.188.053-.42 0-.23-.024-.418-.053-.418-.03 0-.051.187-.051.418 0 .232.022.42.05.42m-1.137 1.216a.203.203 0 1 0 .396.064"></path><path fill="none" stroke="#eebd7b" stroke-width=".15" stroke-miterlimit="10" d="M26.664 159.903a13.273 13.273 0 0 0 .005 3.364m-.005-3.364a.197.197 0 1 0-.391-.005m.002 3.305a13.328 13.328 0 0 0-.002-3.305"></path><path fill="none" stroke="#eebd7b" stroke-width=".15" stroke-miterlimit="10" d="M26.458 161.981c.029 0 .052-.189.052-.42 0-.233-.023-.42-.052-.42-.028 0-.054.187-.054.42 0 .231.026.42.054.42m-1.265 1.264a.201.201 0 0 0 .128.255.205.205 0 0 0 .257-.128.205.205 0 0 0 .01-.064m-.005-3.364a13.231 13.231 0 0 0 .005 3.364m-.005-3.364a.197.197 0 0 0-.179-.214.194.194 0 0 0-.213.178v.033m.002 3.304a13.362 13.362 0 0 0-.002-3.304"></path><path fill="none" stroke="#eebd7b" stroke-width=".15" stroke-miterlimit="10" d="M25.376 162.021c.028 0 .05-.188.05-.42 0-.231-.022-.419-.05-.419-.029 0-.052.188-.052.42 0 .23.023.42.052.42m-1.243 1.162a.203.203 0 1 0 .386.129.266.266 0 0 0 .008-.065m-.006-3.362a13.257 13.257 0 0 0 .006 3.362m-.006-3.362a.196.196 0 1 0-.391-.037c0 .01-.002.02 0 .032m.003 3.303a13.352 13.352 0 0 0-.003-3.303"></path><path fill="none" stroke="#eebd7b" stroke-width=".15" stroke-miterlimit="10" d="M24.315 161.96c.03 0 .053-.188.053-.418 0-.231-.023-.42-.053-.42-.028 0-.052.189-.052.42 0 .23.024.419.052.419m-1.144 1.229a.205.205 0 0 0 .389.128c.005-.02.01-.04.01-.064"></path><path fill="none" stroke="#eebd7b" stroke-width=".15" stroke-miterlimit="10" d="M23.564 159.892a13.255 13.255 0 0 0 .004 3.362m-.004-3.362a.2.2 0 0 0-.179-.215.198.198 0 0 0-.214.176.122.122 0 0 0-.001.034m.001 3.303a13.137 13.137 0 0 0-.001-3.303"></path><path fill="none" stroke="#eebd7b" stroke-width=".15" stroke-miterlimit="10" d="M23.357 161.968c.028 0 .052-.189.052-.42 0-.23-.024-.42-.052-.42-.03 0-.053.19-.053.42 0 .231.023.42.053.42m-1.322 1.219a.202.202 0 0 0 .129.257.205.205 0 0 0 .258-.13.224.224 0 0 0 .01-.063"></path><path fill="none" stroke="#eebd7b" stroke-width=".15" stroke-miterlimit="10" d="M22.424 159.887a13.39 13.39 0 0 0 .007 3.364m-.007-3.364a.195.195 0 0 0-.178-.214.197.197 0 0 0-.213.21"></path><path fill="none" stroke="#eebd7b" stroke-width=".15" stroke-miterlimit="10" d="M22.035 163.187a13.23 13.23 0 0 0-.002-3.304"></path><path fill="none" stroke="#eebd7b" stroke-width=".15" stroke-miterlimit="10" d="M22.219 161.965c.028 0 .054-.189.054-.422 0-.23-.026-.418-.054-.418-.029 0-.053.188-.053.418 0 .233.024.422.053.422m-1.211 1.276a.205.205 0 0 0 .389.127.195.195 0 0 0 .01-.063m-.007-3.363a13.26 13.26 0 0 0 .007 3.363m-.007-3.363a.198.198 0 0 0-.179-.215.198.198 0 0 0-.214.21"></path><path fill="none" stroke="#eebd7b" stroke-width=".15" stroke-miterlimit="10" d="M21.008 163.241c.14-1.097.138-2.207 0-3.304"></path><path fill="none" stroke="#eebd7b" stroke-width=".15" stroke-miterlimit="10" d="M21.195 162.019c.028 0 .052-.189.052-.421 0-.231-.024-.42-.052-.42-.03 0-.054.189-.054.42 0 .232.024.421.054.421m15.743-3.111v5.352H19.086"></path><path fill="none" stroke="#eebd7b" stroke-width=".15" stroke-miterlimit="10" d="M35.982 163.203a.205.205 0 0 0 .13.257.201.201 0 0 0 .255-.128.22.22 0 0 0 .01-.065m-.007-3.364a13.305 13.305 0 0 0 .008 3.364m-.008-3.364a.197.197 0 0 0-.175-.214.196.196 0 0 0-.216.177v.032m.003 3.305a13.31 13.31 0 0 0-.003-3.305"></path><path fill="none" stroke="#eebd7b" stroke-width=".15" stroke-miterlimit="10" d="M36.164 161.981c.031 0 .053-.189.053-.42 0-.233-.022-.42-.053-.42-.028 0-.05.187-.05.42 0 .231.022.42.05.42m-1.138 1.211a.205.205 0 0 0 .128.257.205.205 0 0 0 .27-.193"></path><path fill="none" stroke="#eebd7b" stroke-width=".15" stroke-miterlimit="10" d="M35.418 159.892a13.19 13.19 0 0 0 .004 3.364m-.004-3.364a.2.2 0 0 0-.18-.214.195.195 0 0 0-.213.177.058.058 0 0 0-.002.032"></path><path fill="none" stroke="#eebd7b" stroke-width=".15" stroke-miterlimit="10" d="M35.026 163.192a13.247 13.247 0 0 0-.003-3.305"></path><path fill="none" stroke="#eebd7b" stroke-width=".15" stroke-miterlimit="10" d="M35.21 161.97c.028 0 .052-.188.052-.42 0-.232-.024-.422-.052-.422-.03 0-.054.19-.054.422 0 .232.025.42.054.42m-1.1 1.271a.204.204 0 1 0 .398.064"></path><path fill="none" stroke="#eebd7b" stroke-width=".15" stroke-miterlimit="10" d="M34.502 159.942a13.18 13.18 0 0 0 .004 3.363m-.004-3.363a.2.2 0 0 0-.179-.215.196.196 0 0 0-.214.178c-.002.01-.002.021-.002.032m.003 3.304a13.265 13.265 0 0 0-.003-3.304"></path><path fill="none" stroke="#eebd7b" stroke-width=".15" stroke-miterlimit="10" d="M34.294 162.018c.03 0 .053-.188.053-.42 0-.231-.024-.42-.053-.42-.03 0-.054.189-.054.42 0 .232.025.42.054.42m-1.178 1.192a.202.202 0 0 0 .13.256.2.2 0 0 0 .256-.128.186.186 0 0 0 .012-.064m-.007-3.363a13.19 13.19 0 0 0 .007 3.363m-.007-3.363a.196.196 0 0 0-.18-.215.196.196 0 0 0-.212.18.064.064 0 0 0 0 .03"></path><path fill="none" stroke="#eebd7b" stroke-width=".15" stroke-miterlimit="10" d="M33.116 163.21c.14-1.098.137-2.206 0-3.304"></path><path fill="none" stroke="#eebd7b" stroke-width=".15" stroke-miterlimit="10" d="M33.3 161.987c.03 0 .055-.188.055-.42 0-.23-.024-.418-.055-.418-.028 0-.051.187-.051.418 0 .232.023.42.051.42m-1.139 1.216a.202.202 0 0 0 .13.257.206.206 0 0 0 .258-.128.247.247 0 0 0 .009-.065m-.007-3.364a13.192 13.192 0 0 0 .007 3.364m-.007-3.364a.2.2 0 0 0-.178-.214.196.196 0 0 0-.214.21"></path><path fill="none" stroke="#eebd7b" stroke-width=".15" stroke-miterlimit="10" d="M32.161 163.203a13.322 13.322 0 0 0-.002-3.305"></path><path fill="none" stroke="#eebd7b" stroke-width=".15" stroke-miterlimit="10" d="M32.345 161.981c.028 0 .051-.189.051-.42 0-.233-.023-.42-.05-.42-.03 0-.054.187-.054.42 0 .231.025.42.053.42m-1.265 1.264a.202.202 0 0 0 .128.255.203.203 0 0 0 .256-.128.209.209 0 0 0 .01-.064m-.007-3.364a13.5 13.5 0 0 0 .007 3.364m-.007-3.364a.193.193 0 0 0-.176-.214.198.198 0 0 0-.216.178v.033m.005 3.304a13.202 13.202 0 0 0-.005-3.304"></path><path fill="none" stroke="#eebd7b" stroke-width=".15" stroke-miterlimit="10" d="M31.262 162.021c.03 0 .053-.188.053-.42 0-.231-.024-.419-.053-.419-.028 0-.05.188-.05.42 0 .23.022.42.05.42m5.676-3.114H19.086m.947 4.308a.201.201 0 0 0 .13.256.2.2 0 0 0 .256-.128.205.205 0 0 0 .012-.064"></path><path fill="none" stroke="#eebd7b" stroke-width=".15" stroke-miterlimit="10" d="M20.422 159.917a13.458 13.458 0 0 0 .007 3.363m-.007-3.363a.194.194 0 0 0-.178-.215.2.2 0 0 0-.213.21"></path><path fill="none" stroke="#eebd7b" stroke-width=".15" stroke-miterlimit="10" d="M20.033 163.216a13.274 13.274 0 0 0-.002-3.305"></path><path fill="none" stroke="#eebd7b" stroke-width=".15" stroke-miterlimit="10" d="M20.217 161.994c.03 0 .054-.189.054-.42 0-.233-.025-.42-.054-.42-.029 0-.052.187-.052.42 0 .231.023.42.052.42m23.033-.124h10.38m-10.38.325h10.38m0-.445v.445m-10.38 0v-.445m6.003.965h-1.625m-4.378-.965h10.38m-11.376 1.404h-1.189m0 0v-1.404m0 0h1.19m-.001 0v1.404m-1.189-1.269h1.19m-1.595 1.654h15.56m-15.56-2.287h15.56m-15.56 2.287v-2.287m8.593 1.463c1.29.012 2.573-.165 3.788-.52m-9.201 0a13.07 13.07 0 0 0 3.788.52m6.998.439h1.189m0 0v-1.404m0 0h-1.189m0 0v1.404m1.189-1.269h-1.189m1.594 1.654v-2.287m11.2-2.947h14.783v6H67.42zm0 1.03h14.783m-14.783 0 14.783 4.97m0-4.971-14.784 4.972"></path><path fill="none" stroke="#eebd7b" stroke-width=".25" stroke-linecap="round" stroke-linejoin="round" stroke-miterlimit="10" d="M15.312 101.1v7.08m0 1.046v6.501m0 0h1.727m.546-.591h1.364m0 0v-5.715m0-1.455v-6.274m-3.637 29.221v5.453m0 1.046v5.299m0-.001h2.182m0 0v-.636m0 0h1.455m0 0v-4.662m0-1.046v-4.862m0 0h-1.364m-.545-.591h-1.728m0 26.891v13.084m0 0h2.182m0 0v-.636m0 0h1.455m0 0v-4.446m0-1.455v-5.91m0 0h-1.455m0 0v-.637m0 0h-2.182m0 28.178v12.102m3.637-.637v-3.463m0-1.454v-5.911m0 0h-1.455m0 0v-.637m0 0h-2.182m0 0v-15.094m0-13.084v-15.093m0-19.511v-7.761m0 7.791h1.727m.546 0h1.364m0-8.094v8.093m0 18.845v16.367m0 11.811v16.367m64.013-77.199v16.004m0 0h.91m0-.046v-15.957m0-.001h-.91m-64.013 0H56.82m1.046 0H77.87m1.455 0h3.637m-.545-1.454H67.868m-1.045 0H18.949m38.917 28.4H18.95m-.001 1.046H56.82m-41.508-1.046H1.15m0 0v1.046m0 0h14.162M1.309 109.226h14.003m0-1.046H1.309m0 0v1.046m55.511 55.125H18.95m-.001 1.455H59.23m-40.281 28.178h47.283m1.045 0h16.595m-1.455-1.454H18.949m47.874-90.465v5.9m1.045.001v-5.9m-.591 102.292v-10.374m-1.045 0v10.374M77.87 109.42v16.368m1.455-.41v-15.957m4.547 15.957h-4.547m-5.865 1.455h8.957m1.455-17.413v-7.365m-1.455 0v5.91M59.23 165.806v-1.045m0-.001h-1.364m8.729 1.046h15.822m0-1.046H66.595m0 0v1.046M56.82 109.42v18.672m0 0h1.046m0 0v-1.259m0-1.045V109.42m-1.046 27.992v10.39m0 0h1.046m0 0v-11.436m-1.046 19.711v8.274m1.046.409v-8.683m0 0H56.82m27.052 37.907v-35.78m0 0h-1.455m0 0v6.557m0 1.045v26.723m1.455-43.419v-23.732m-1.455 1.455v20.778m0 1.045v.455m0-.001h1.455m-6.002-23.322h-6.319m0 0v1.045m0 0h.864m-8.229-1.045h-6.32m0 1.045h6.32m0 0v-1.045m18.231 21.822H73.46m-1.045 1.046h10.002m-8.957-1.046v-3.045m0 0h-1.045m0 0v4.091M73.46 137.2v-10.367m-1.045 0V137.2m0 0h1.045M1.672 109.68v26.232M.945 109.68v26.232m.727.454v-.454m0 0H.945m0 0v.454m0 0h.727m0-26.686v-.454m0 0H.945m0 0v.455m0-.001h.727m0-1.5v-.454m-.727 0v.454m0 0h.727m80.563 57.808h-7.274m-.001 0v3.637m0 0h7.275m0 0v-3.637m-1.364.364h.91m-.001 0v2.91m0 0h-.909m0 0v-2.91m-4.546 2.91h-.91m0 0v-2.91m0 0h.91m0 0v2.91m4.091 0H76.78m0 0v-2.91m0 0h3.636m0 0v2.91m-5.456-38.609h7.275m0 0v-3.638m0 0h-7.274m-.001 0v3.638m6.82-.364h-.909m0 0v-2.91m0 0h.91m-.001 0v2.91m-6.365-2.91h.91m0 0v2.91m0 0h-.91m0 0v-2.91m1.365 0h3.636m0 0v2.91m0 0H76.78m0 0v-2.91"></path><path fill="none" stroke="#eebd7b" stroke-width=".2" stroke-linecap="round" stroke-linejoin="round" stroke-miterlimit="10" d="M30.315 204.895v-10.911m24.551 10.911v-10.911"></path><path fill="none" stroke="#eebd7b" stroke-width=".2" stroke-linecap="round" stroke-linejoin="round" stroke-miterlimit="10" stroke-dasharray="0.013148,0.01" d="M33.043 204.895v-10.911m2.727 10.911v-10.911m2.728 10.911v-10.911m2.728 10.911v-10.911m2.728 10.911v-10.911m5.456 10.911v-10.911m2.728 10.911v-10.911"></path><path fill="none" stroke="#eebd7b" stroke-width=".2" stroke-linecap="round" stroke-linejoin="round" stroke-miterlimit="10" d="M46.682 204.895v-10.911"></path><path d="M65.085 153.256c0-.287.172-.49.451-.608l-.004-.011c-.25-.118-.359-.315-.359-.51 0-.36.304-.604.702-.604.44 0 .66.276.66.558 0 .193-.093.399-.374.531v.011c.284.112.458.31.458.587 0 .395-.339.66-.772.66-.475 0-.762-.282-.762-.614zm1.224-.015c0-.275-.193-.408-.5-.496-.266.077-.41.252-.41.47-.01.23.166.432.456.432.275 0 .454-.171.454-.406zm-.846-1.135c0 .227.171.35.434.42.195-.067.345-.206.345-.413 0-.181-.108-.37-.384-.37-.255 0-.395.167-.395.363zm1.345 2.156c.077-.206.172-.58.21-.835l.343-.035a4.343 4.343 0 0 1-.332.85l-.221.02zm2.122-2.484c-.063-.004-.143 0-.23.013a.923.923 0 0 0-.79.808h.01a.677.677 0 0 1 .549-.262c.402 0 .685.29.685.733 0 .417-.283.8-.754.8-.487 0-.804-.377-.804-.967 0-.448.16-.8.384-1.024.188-.185.44-.3.727-.336a1.51 1.51 0 0 1 .223-.017v.252zm-.087 1.31c0-.325-.186-.52-.468-.52a.506.506 0 0 0-.44.279.257.257 0 0 0-.035.137c.006.373.177.649.5.649.265 0 .443-.22.443-.545zm2.097-.416c0 .773-.287 1.198-.79 1.198-.444 0-.745-.415-.751-1.167 0-.761.328-1.18.789-1.18.48 0 .752.425.752 1.15zm-1.234.035c0 .591.182.926.461.926.315 0 .465-.367.465-.947 0-.559-.144-.926-.46-.926-.27 0-.466.33-.466.947zm-27.341-25.491h-.006l-.395.213-.06-.234.497-.266h.262v2.271h-.298v-1.984zm1.129 1.984v-.188l.242-.234c.58-.552.841-.846.845-1.189 0-.23-.112-.443-.45-.443a.773.773 0 0 0-.483.192l-.098-.217a.997.997 0 0 1 .644-.23c.489 0 .695.335.695.66 0 .42-.305.759-.783 1.22l-.182.168v.006h1.02v.255h-1.45zm1.695.43c.077-.206.172-.58.21-.835l.342-.035a4.343 4.343 0 0 1-.332.85l-.22.02zm.899-.782c.088.056.29.142.503.142.396 0 .518-.25.514-.44-.003-.317-.29-.454-.587-.454h-.171v-.23h.17c.224 0 .508-.116.508-.384 0-.183-.116-.343-.399-.343a.83.83 0 0 0-.454.15l-.08-.223c.118-.088.35-.175.594-.175.447 0 .65.265.65.54 0 .235-.14.434-.42.536v.007c.28.055.507.265.507.584 0 .363-.283.68-.828.68a1.16 1.16 0 0 1-.59-.153l.083-.237zm2.672.352v-.618h-1.054v-.203l1.013-1.45h.332v1.412h.318v.241h-.318v.618h-.29zm0-.859v-.759c0-.118.005-.237.012-.356h-.011c-.07.133-.126.231-.189.336l-.555.772v.007h.744zm17.035-10.357c.088.055.29.142.503.142.396 0 .518-.25.514-.44-.003-.318-.29-.454-.587-.454h-.171v-.23h.17c.224 0 .508-.116.508-.385 0-.182-.116-.342-.399-.342a.83.83 0 0 0-.454.15l-.08-.224c.118-.088.35-.174.594-.174.447 0 .65.265.65.54 0 .235-.14.434-.42.536v.007c.28.055.507.265.507.584 0 .363-.283.68-.828.68a1.16 1.16 0 0 1-.59-.153l.083-.237zm1.621.782c.077-.206.172-.58.21-.835l.343-.035a4.343 4.343 0 0 1-.332.85l-.22.02zm1.005-.646c.066.006.143 0 .248-.011a.856.856 0 0 0 .475-.22.994.994 0 0 0 .3-.605h-.01a.668.668 0 0 1-.534.245c-.41 0-.671-.307-.671-.696 0-.43.31-.806.775-.806s.751.377.751.957c0 .5-.167.85-.39 1.066a1.14 1.14 0 0 1-.662.304c-.111.017-.209.02-.282.017v-.252zm.111-1.307c0 .283.171.482.437.482a.508.508 0 0 0 .447-.238.199.199 0 0 0 .029-.112c0-.387-.144-.684-.465-.684-.262 0-.448.23-.448.552zm2.803-.532a1.15 1.15 0 0 0-.231.014.923.923 0 0 0-.79.808h.01a.677.677 0 0 1 .55-.262c.402 0 .684.29.684.733 0 .416-.282.8-.754.8-.486 0-.804-.377-.804-.968 0-.447.16-.8.384-1.023.188-.186.44-.3.727-.336a1.49 1.49 0 0 1 .224-.018v.252zm-.088 1.311c0-.325-.185-.52-.468-.52a.506.506 0 0 0-.44.279.257.257 0 0 0-.035.136c.007.374.178.65.5.65.266 0 .443-.22.443-.545zm4.106 23.462h-.007l-.395.213-.06-.235.497-.265h.263v2.271h-.298v-1.984zm1.027 2.414c.077-.206.172-.58.21-.835l.343-.035a4.343 4.343 0 0 1-.332.85l-.22.02zm1.005-.647c.065.007.143 0 .248-.01a.856.856 0 0 0 .475-.22c.15-.137.258-.335.3-.604h-.01a.668.668 0 0 1-.535.244c-.409 0-.67-.307-.67-.696 0-.43.31-.806.775-.806s.75.377.75.957c0 .5-.166.85-.39 1.066a1.14 1.14 0 0 1-.66.304c-.112.017-.21.02-.283.017v-.252zm.111-1.306c0 .283.171.482.437.482a.508.508 0 0 0 .447-.238.199.199 0 0 0 .028-.111c0-.388-.143-.685-.464-.685-.262 0-.448.23-.448.552zm1.579 1.171c.088.055.29.142.503.142.396 0 .518-.25.514-.44-.003-.318-.29-.454-.587-.454h-.17v-.23h.17c.224 0 .507-.116.507-.384 0-.183-.115-.343-.399-.343a.83.83 0 0 0-.454.15l-.08-.223c.118-.088.35-.175.594-.175.447 0 .65.265.65.54 0 .235-.14.434-.42.536v.007c.28.055.507.265.507.584 0 .363-.283.68-.828.68a1.16 1.16 0 0 1-.59-.153l.083-.237zm-20.288 33.021v-.188l.242-.235c.58-.551.841-.845.845-1.188 0-.23-.112-.443-.451-.443a.773.773 0 0 0-.482.192l-.098-.217a.997.997 0 0 1 .644-.23c.489 0 .695.335.695.66 0 .42-.305.759-.783 1.22l-.182.167v.007h1.02v.255h-1.45zm3.306-1.16c0 .773-.287 1.198-.79 1.198-.443 0-.744-.415-.751-1.167 0-.761.328-1.18.789-1.18.48 0 .752.425.752 1.15zm-1.233.035c0 .591.181.926.46.926.315 0 .465-.367.465-.947 0-.559-.143-.926-.46-.926-.27 0-.465.33-.465.947zm1.418 1.555c.077-.206.171-.58.21-.835l.342-.035a4.343 4.343 0 0 1-.332.85l-.22.02zm1.492-2.414h-.006l-.395.213-.06-.235.497-.265h.263v2.271h-.298v-1.984zm1.101 1.408c0-.287.172-.49.451-.608l-.003-.011c-.251-.118-.36-.315-.36-.51 0-.36.304-.604.702-.604.44 0 .66.276.66.558 0 .193-.093.399-.374.531v.011c.284.112.458.31.458.587 0 .395-.338.66-.772.66-.475 0-.762-.282-.762-.614zm1.224-.015c0-.275-.192-.408-.5-.496-.266.077-.41.252-.41.47-.009.23.166.432.456.432.275 0 .454-.171.454-.406zm-.846-1.135c0 .227.171.35.434.42.195-.067.346-.206.346-.413 0-.182-.109-.37-.385-.37-.255 0-.395.167-.395.363zm-26.387-21.39h-.006l-.395.213-.06-.234.497-.266h.262v2.271h-.298v-1.984zm1.129 1.984v-.188l.242-.234c.58-.552.841-.846.845-1.189 0-.23-.112-.443-.45-.443a.773.773 0 0 0-.483.192l-.098-.217a.997.997 0 0 1 .644-.23c.489 0 .695.335.695.66 0 .419-.305.759-.783 1.22l-.182.168v.006h1.02v.255h-1.45zm1.695.43c.077-.206.172-.58.21-.835l.342-.035a4.343 4.343 0 0 1-.332.85l-.22.02zm.899-.782c.088.056.29.142.503.142.396 0 .518-.25.514-.44-.003-.317-.29-.454-.587-.454h-.171v-.23h.17c.224 0 .508-.116.508-.384 0-.182-.116-.343-.399-.343a.83.83 0 0 0-.454.15l-.08-.223c.118-.088.35-.175.594-.175.447 0 .65.265.65.54 0 .235-.14.434-.42.536v.007c.28.055.507.265.507.584 0 .363-.283.68-.828.68a1.16 1.16 0 0 1-.59-.153l.083-.237zm2.673.352v-.618h-1.055v-.203l1.013-1.45h.332v1.412h.318v.241h-.318v.618h-.29zm0-.859v-.759c0-.118.004-.237.01-.356h-.01c-.07.133-.126.231-.188.336l-.556.772v.007h.744zM3.77 128.26v-.617H2.715v-.203l1.013-1.45h.332v1.412h.318v.24H4.06v.619h-.29zm0-.858v-.76c0-.117.004-.237.01-.356h-.01c-.07.133-.126.232-.189.336l-.555.773v.007h.744zm.744 1.288c.077-.205.172-.58.21-.834l.343-.036a4.343 4.343 0 0 1-.332.85l-.221.02zm1.776-.43v-.617H5.236v-.203l1.012-1.45h.332v1.412h.32v.24h-.32v.619h-.29zm0-.858v-.76c0-.117.004-.237.011-.356h-.01c-.07.133-.127.232-.19.336l-.555.773v.007h.744zm.818.283c0-.287.171-.49.45-.609l-.003-.01c-.251-.119-.36-.315-.36-.51 0-.36.304-.605.703-.605.44 0 .66.277.66.559 0 .192-.094.398-.374.531v.01c.283.112.458.311.458.588 0 .394-.34.66-.773.66-.474 0-.761-.282-.761-.614zm1.223-.015c0-.275-.192-.408-.5-.496-.265.077-.409.252-.409.469-.01.23.165.432.455.432.276 0 .454-.17.454-.405zm-.845-1.136c0 .228.17.35.433.42.195-.066.346-.206.346-.412 0-.181-.109-.37-.385-.37-.255 0-.394.167-.394.362zm2.211-.698c-.255.342-.44.797-.44 1.429 0 .622.192 1.07.44 1.419h-.24c-.221-.29-.459-.738-.459-1.42.004-.688.238-1.135.458-1.428h.241zm.896.441h-.007l-.394.212-.06-.234.496-.266h.263v2.272h-.298v-1.984zm1.027 2.413c.077-.205.172-.58.21-.834l.343-.036a4.343 4.343 0 0 1-.332.85l-.22.02zm.9-.782c.088.056.29.143.503.143.395 0 .517-.251.513-.44-.003-.318-.29-.455-.587-.455h-.17v-.23h.17c.224 0 .507-.115.507-.384 0-.181-.115-.343-.398-.343a.83.83 0 0 0-.454.15l-.08-.223c.118-.088.35-.175.593-.175.448 0 .65.266.65.541 0 .235-.14.434-.42.536v.006c.28.056.508.266.508.584 0 .364-.284.681-.828.681a1.16 1.16 0 0 1-.591-.153l.084-.238zm2.673.352v-.617h-1.055v-.203l1.013-1.45h.332v1.412h.318v.24h-.318v.619h-.29zm0-.858v-.76c0-.117.003-.237.01-.356h-.01c-.07.133-.126.232-.189.336l-.556.773v.007h.745zm.758 1.282c.248-.346.44-.8.44-1.429 0-.626-.189-1.073-.44-1.419h.238c.223.286.458.734.458 1.422 0 .685-.235 1.129-.458 1.426h-.238z" fill="#eebd7b"></path></g></svg>