<svg version="1.1" xmlns="http://www.w3.org/2000/svg" xmlns:xlink="http://www.w3.org/1999/xlink" viewBox="0 217.323 89.871 62.224"><path fill-rule="evenodd" clip-rule="evenodd" fill="none" d="m15.281 217.323 74.59.302v61.922l-74.56-.65H0v-30.191l15.312.494z"></path><path fill-rule="evenodd" clip-rule="evenodd" fill="none" d="M18.949 219.08h63.468v58.558H18.949l-3.985.213H1.672v-27.605H18.95z"></path><clipPath id="a"><path fill-rule="evenodd" clip-rule="evenodd" fill="none" d="m15.281 217.323 74.59.302v61.922l-74.56-.65H0v-30.191l15.312.494z"></path></clipPath><g clip-path="url(#a)"><path fill-rule="evenodd" clip-rule="evenodd" fill="#eebd7b" d="M77.9 279.093h4.517v-1.455H32.588v1.455h15.338zm-14.942 1.909h19.459v-1.455H32.588v1.455h29.325zm20.914-1.909v-31.226h-1.455v31.226h1.455m0-40.319v-21.149h-1.455v21.15h1.455zm-26.059 11.472v-.008l.599-.599v-1.156h-1.046v1.763h.447m-.447-10.038h1.046v-3.707h-1.046v3.707zM77.9 219.08h4.517v-1.455H18.949v1.455h28.977zm-29.974 31.166h9.44V249.2H18.95v1.046zM77.9 260.634h4.517v-1.045H63.64v1.045zm-10.623-43.009v-1.356h-1.045v1.356h1.045m-1.045-13.267h1.045v-10.374h-1.045v10.374z"></path><path fill-rule="evenodd" clip-rule="evenodd" fill="#eebd7b" d="M64.687 259.589v-3.956l-.284-.284-.762.717v3.523zm-7.321-23.088h1.046v-17.413h-1.046v6.941zm20.534 0h4.517v-1.046h-6.32v1.046h1.804m-9.169 0v-1.046h-10.32v1.046h10.32zm13.503-6.683v-7.275h-3.637v7.275h3.637m-.364-.455h-2.91v-.91h2.91v.91M78.961 228v-3.637h2.91V228h-2.91m2.91-4.092h-2.91v-.909h2.91v.91zm-17.002 35.499h7.274v-3.637H64.87v3.637m.455-.364v-2.91h.909v2.91h-.91m5.002 0h-3.638v-2.91h3.638v2.91m1.364 0h-.91v-2.91h.91v2.91zm-54.195 19.853v-1.045H1.15v1.045h16.227zm-1.695-28.65h1.695V249.2H1.15v1.046h14.254zm-.488-37.068v12.449h2.182l.036-.636h1.42v-11.222h-1.456v-.591z"></path><path fill-rule="evenodd" clip-rule="evenodd" fill="#eebd7b" d="M15.312 255.36v-14.639h2.21l.036.637h1.391v14.003zm0 16.368h3.637v9.604h-3.637z"></path><path fill-rule="evenodd" clip-rule="evenodd" fill="#eebd7b" d="M18.494 277.638h14.073v3.637H18.494z"></path><path fill="none" stroke="#eebd7b" stroke-width=".25" stroke-linecap="round" stroke-linejoin="round" stroke-miterlimit="10" d="m83.872 238.774 4.546 7.875m-31.052 1.834-4.137-7.166m10.435 14.772-7.993-2.142m20.426-17.446-6.378 3.683"></path><path fill="none" stroke="#eebd7b" stroke-width=".2" stroke-linecap="round" stroke-linejoin="round" stroke-miterlimit="10" d="M18.04 271.728h-.546m.546-16.368h-.546m0 8.693h.546m0 0v-1.018m0 0h-.546m0 0v1.018m0 7.166h.546m0 0v.509m0 0h-.546m0 0v-.51m0-15.348h.546m0 0v-.51m0 0h-.546m0 0v.51m.546 0 3.582 6.205m-4.128 1.978v7.166m.546 0v-7.166m.09-39.063v16.368m-.636-16.368v16.368m0 0h.636m-.636-16.368h.636"></path><path fill="none" stroke="#eebd7b" stroke-width=".15" stroke-linecap="round" stroke-linejoin="round" stroke-miterlimit="10" d="M80.507 269.818a.455.455 0 0 0 .455-.454m-3.637 0c0 .25.204.454.455.454m0-3.637a.455.455 0 0 0-.455.455m3.637 0a.455.455 0 0 0-.455-.455"></path><path fill="none" stroke="#eebd7b" stroke-width=".15" stroke-linecap="round" stroke-linejoin="round" stroke-miterlimit="10" d="M82.417 272.182H76.96v-6.365h5.456m-4.182 6.001v-2m.455 2v-2m.454 2v-2m.455 2v-2m.455 2v-2"></path><path fill="none" stroke="#eebd7b" stroke-width=".15" stroke-linecap="round" stroke-linejoin="round" stroke-miterlimit="10" d="M80.507 271.818v-2H77.78v2"></path><path fill="none" stroke="#eebd7b" stroke-width=".15" stroke-linecap="round" stroke-linejoin="round" stroke-miterlimit="10" d="M77.325 269.366v2.452h3.637v-2.448m0-2.734v2.728m-3.637 0v-2.728m.455-.455h2.727M80.28 268h-.727m.363.363v-.727m0 .546a.182.182 0 1 0 0-.364.182.182 0 0 0 0 .364z"></path><path fill="none" stroke="#eebd7b" stroke-width=".15" stroke-linecap="round" stroke-linejoin="round" stroke-miterlimit="10" d="M79.916 268.272a.273.273 0 1 0 0-.546.273.273 0 0 0 0 .546zm-6.788-47.862a13.552 13.552 0 0 0 3.3 0m-3.3 0a.19.19 0 0 1-.168-.19m.129 3.529a1.544 1.544 0 0 0 .187.712 1.615 1.615 0 0 0 .356.45 1.743 1.743 0 0 0 1.063.438 1.763 1.763 0 0 0 .853-.162 1.668 1.668 0 0 0 .47-.331 1.575 1.575 0 0 0 .41-.736c.022-.092.035-.186.04-.28.001-.033.002-.065.001-.098"></path><path fill="none" stroke="#eebd7b" stroke-width=".15" stroke-linecap="round" stroke-linejoin="round" stroke-miterlimit="10" d="M73.165 223.748a1.436 1.436 0 0 0 .043.325 1.503 1.503 0 0 0 .353.66 1.647 1.647 0 0 0 .88.504 1.703 1.703 0 0 0 1.127-.145 1.6 1.6 0 0 0 .428-.325 1.49 1.49 0 0 0 .356-.659 1.43 1.43 0 0 0 .039-.269c.001-.032.002-.064.001-.096m.205-3.523a.19.19 0 0 1-.169.19m-1.649-.772c.087 0 .157.072.157.16s-.07.161-.157.161-.157-.072-.157-.16.07-.161.157-.161zm-1.819.582v-1.14m3.637 0v1.14"></path><path fill="none" stroke="#eebd7b" stroke-width=".15" stroke-linecap="round" stroke-linejoin="round" stroke-miterlimit="10" d="M73.089 220.404v3.345l.32-2.766h2.74l.32 2.76m-3.304.006.32-2.766m2.908 2.759-.32-2.759m.397-.581v3.39M82.417 230H76.96v5.455m5.457 0L76.96 230m.001 5.455L82.417 230"></path><path fill="none" stroke="#eebd7b" stroke-width=".15" stroke-linecap="round" stroke-linejoin="round" stroke-miterlimit="10" d="M79.689 230a2.728 2.728 0 1 1 0 5.455 2.728 2.728 0 0 1 0-5.455zm-13.199-9.738c0-.25.204-.454.455-.454m0 2.728a.455.455 0 0 1-.455-.455m3.638-.001a.455.455 0 0 1-.455.456m0-2.728c.25 0 .455.203.455.454"></path><path fill="none" stroke="#eebd7b" stroke-width=".15" stroke-linecap="round" stroke-linejoin="round" stroke-miterlimit="10" d="M70.582 219.08v3.82h-4.546v-3.82m3.637.728h-2.728m-.455.454v1.819m.455.455h2.728m.455-.456v-1.818m-1.819.591v-.23m-.363-.133h.23m.133-.134v-.23m.133.364h.23"></path><path fill="none" stroke="#eebd7b" stroke-width=".15" stroke-linecap="round" stroke-linejoin="round" stroke-miterlimit="10" d="M68.03 220.49a.28.28 0 1 1 .559 0 .28.28 0 0 1-.56 0z"></path><path fill="none" stroke="#eebd7b" stroke-width=".15" stroke-linecap="round" stroke-linejoin="round" stroke-miterlimit="10" d="M68.11 220.49a.2.2 0 1 1 .399 0 .2.2 0 0 1-.4 0zm-3.333-1.402v15.458m-6.365-15.458h6.365m0 15.458h-6.365m3.182-13.46a.23.23 0 0 0 0-.462m0 0a.23.23 0 1 0 0 .462m2.49-.15c0-.638-.517-1.155-1.155-1.155m-2.669 0c-.638 0-1.155.517-1.155 1.155m3.825 12.917c.637 0 1.154-.517 1.154-1.155m-4.979 0c0 .638.517 1.155 1.154 1.155m.001 0h2.67m1.154-1.155v-11.762m-1.154-1.155h-2.67m-1.155 1.155v11.762m6.945 39.484h5.455v5.456m-5.455 0v-5.456m1.41 3.132v.455m0 .646v.455m-.779-.778h.455m.646 0h.455m1.859-.778v.455m0 .646v.455m.778-.778h-.455m-.646 0h-.455m-1.858-1.586v-.455m0-.646v-.455m-.779.778h.455m.646 0h.455m1.859.778v-.455m0-.646v-.455m.778.778h-.455m-.646 0h-.455m-14.18-1.546h5.456v5.456"></path><path fill="none" stroke="#eebd7b" stroke-width=".15" stroke-linecap="round" stroke-linejoin="round" stroke-miterlimit="10" d="M55.138 277.638v-5.456l5.456 5.456m-5.456 0 5.456-5.456m-2.728 3.21v-.964m.482.482h-.964m19.577-2.728h-5.456m5.456 4.638v-4.638m0 0v5.456m-10.911-5.456h-5.456m16.367-6.365v-5.183"></path><path fill="none" stroke="#eebd7b" stroke-width=".15" stroke-miterlimit="10" d="M24.965 225.537v-6.101H38.81v3.208m-1.067 2.826-.451.233-.227-.127-.262.27h-.743l-.105.188-.323-.105-.188.217-.413-.15-1.743.51-.97-.345h-.625m6.636-.796-.699.099m1.273-.048-.888-.14m.703 5.817-.672-.25m.86.326-.895.68m.517 2.694.413.6m.012-6.583-.348-.34m.412.049-.576-.3m-13.404 6.349-.2.8m.263-1.563-.387 1.452m.437-2.339-.387.887m.297-5.115v3.915m-.143-6.52v2.68m13.555 3.44v2.355m-.059-6.027v2.583m.222-5.251v2.242m.175-2.685v-2.528m-13.817 13.291v1.443h13.818v-1.78"></path><path fill="none" stroke="#eebd7b" stroke-width=".15" stroke-miterlimit="10" d="m39.172 225.23-1.202-.194-.871.223-.596.278h-.965l-.763-.205h-.853v.149h-1.45l-1.003-.278h-.872l-1.115.222h-2.14l-.668-.241-1.264.353h-.891l-.177.194.162.472.149.334v.46l-.264.366v.357l.217.208v.722l-.334.936.173.413-.126.15.264.184-.254.597.196.645v2.116l-.338.528v.626l.628.529v.56h.725l1.517-.43h1.22l.396.395h2.505l.593-.414h.833l.37.369h.833l.948-.393 1.412.37.601-.255 1.296.3.925-.345v-.74h.254l-.276-.431.24-.376-.25-.613.113-.206-.194-.739.228-1.4-.137-.228.115-.228-.207-1.205.437-1.22-.29-1.019.235-.763-.236-.491.151-.643m-13.106-3.24v.295m.151-.534.39.192m-.457-.247h.324m-.39.017.2.257m.238 2.541v-.276m.02.408.313-.504m-.094.458.437-.373h.143l-.105.145-.266.152m-.325.236.59-.265m.715.086h-.543m1.218-.239-.694.342m3.209-.943h-.562l-.408-.124-.495.2-.58.277-.66.475m3-1.246h-.237m.791-.077-.535.343h-.199v-.056h.18l.144-.133v-.238m.058-.41h-.515m.495-.144-.276-.123m-.732-1.902-.487.18m.628.115-.114.343m.114-.507-.152.364h-.096v-.057l.134-.201m.284-.217v.693m3.798 2.526-.817.272.12-.143-.5.175-.536-.217m3.27-.023h-.872m1.395.229-.664-.186m-3.706-.018.282-.147h.068v.102l-.526.138m.018-.07.518-.394m-.608.394.26-.383m.135-2.47.19.45m-.202-.608.741.562v.19h-.156l-.394-.504m4.9 1.269-.225.168m.247-.269h-.484m.27-1.011-.225.314m.315-.517-.607.484h-.145l.246-.225.349-.248h-.382m.461 2.841h-.518m.641-.202-.337-.348m.349.472-.754-.314"></path><path fill="none" stroke="#eebd7b" stroke-width=".15" stroke-miterlimit="10" d="m31.112 220.433-1.526.11-.892.25-1.429.397-.802.378-.489.043.06.214-.13.457.155.551.315.487.14.502-.085.551-.043.334.096.345.172-.17.635-.176.469.126.698-.194.683-.4.553-.156.608-.17.648.013.575-.158.408-.322.243-.262-.325-.115-.11-.395.03-.467-.166-.588-.42-.55-.106-.381.035-.254"></path><path fill="none" stroke="#eebd7b" stroke-width=".15" stroke-miterlimit="10" d="m37.7 221.017-1.498-.303h-2.41l-.874.15-.481-.093v.225l-.25.405v.571l.175.557v.52l-.23.508-.132.31v.356l.213-.115h.66l.416.246h.725l.767-.203h1.203l.621.187h.597l.48-.2.304-.185-.281-.2v-.41l.151-.443v-.608l-.256-.642v-.4l.1-.233"></path><path fill="none" stroke="#eebd7b" stroke-width=".15" stroke-miterlimit="10" d="M25.41 221.273a22.102 22.102 0 0 1 13.251-.163m-13.047 15.438.172-.564.331.1-.171.565zm12.762-.504-.337.08.137.573.336-.081zM25.44 220.058l.33-.11.187.561-.33.11zm13.17-.198-.329-.108-.187.561.329.107z"></path><path fill="none" stroke="#eebd7b" stroke-width=".15" stroke-miterlimit="10" d="M38.073 236.264a30.868 30.868 0 0 1-11.995-.05"></path><path fill="none" stroke="#eebd7b" stroke-width=".15" stroke-miterlimit="10" d="M38.149 236.585a30.786 30.786 0 0 1-12.168-.052m-.069-16.158a34.738 34.738 0 0 1 12.216-.165"></path><path fill="none" stroke="#eebd7b" stroke-width=".15" stroke-miterlimit="10" d="M25.824 220.108a34.68 34.68 0 0 1 12.392-.166m-15.873-.463h2.664v2.664h-2.664zm16.429 0h2.665v2.664h-2.665zm-10.975 27.51h10.381m-10.381.324h10.381m0-.444v.444m-10.381 0v-.444m6.003.964h-1.625m-4.378-.964h10.381m-11.376 1.404h-1.19m0 0v-1.404m0 0h1.19m0 0v1.404m-1.19-1.269h1.19m-1.594 1.654h15.56m-15.56-2.288h15.56m-15.56 2.288v-2.288m8.592 1.463c1.29.013 2.573-.164 3.788-.52m-9.201 0a13.07 13.07 0 0 0 3.788.52m6.998.44h1.189m0 0v-1.404m0 0h-1.189m0 0v1.404m1.189-1.269h-1.189m1.594 1.654v-2.288m0 .001h5.662v2.287h-5.662zm0 .392h5.662m-5.662 0 5.662 1.895m0-1.895-5.662 1.895m-21.19-1.895 5.662 1.895m.001-1.895-5.663 1.895m-.076-2.288h5.662v2.288h-5.662zm0 .393h5.662m29.508-12.229v-15.249m-.274 15.25v-15.25m1.831 8.808a.205.205 0 0 1 .257.13.205.205 0 0 1-.128.256.285.285 0 0 1-.065.01m-3.364-.007a13.265 13.265 0 0 1 3.364.007m-3.364-.007a.196.196 0 0 1-.213-.176.196.196 0 0 1 .176-.216h.033m3.304.003a13.354 13.354 0 0 1-3.304-.003"></path><path fill="none" stroke="#eebd7b" stroke-width=".15" stroke-miterlimit="10" d="M55.006 228.277c0 .029-.188.05-.42.05-.232 0-.42-.021-.42-.05 0-.03.188-.054.42-.054.232 0 .42.024.42.054m1.211-1.141a.204.204 0 0 1 .128.387.213.213 0 0 1-.063.01"></path><path fill="none" stroke="#eebd7b" stroke-width=".15" stroke-miterlimit="10" d="M52.917 227.527a13.351 13.351 0 0 1 3.365.005m-3.365-.005a.197.197 0 0 1-.214-.18.199.199 0 0 1 .21-.214"></path><path fill="none" stroke="#eebd7b" stroke-width=".15" stroke-miterlimit="10" d="M56.217 227.136a13.197 13.197 0 0 1-3.305-.003"></path><path fill="none" stroke="#eebd7b" stroke-width=".15" stroke-miterlimit="10" d="M54.995 227.32c0 .03-.188.054-.42.054-.232 0-.421-.025-.421-.053 0-.029.189-.054.421-.054.232 0 .42.025.42.054m1.271-1.101a.202.202 0 0 1 .256.13.202.202 0 0 1-.192.267m-3.363-.006a13.238 13.238 0 0 1 3.363.006m-3.363-.006a.199.199 0 0 1-.215-.18.2.2 0 0 1 .21-.213m3.304.002a13.235 13.235 0 0 1-3.304-.002"></path><path fill="none" stroke="#eebd7b" stroke-width=".15" stroke-miterlimit="10" d="M55.043 226.405c0 .03-.187.053-.42.053-.231 0-.419-.024-.419-.053 0-.03.188-.053.42-.053.232 0 .419.023.419.053m1.192-1.178a.204.204 0 1 1 .064.398"></path><path fill="none" stroke="#eebd7b" stroke-width=".15" stroke-miterlimit="10" d="M52.936 225.618c1.117-.14 2.247-.14 3.363.004m-3.363-.004a.196.196 0 0 1-.214-.179.195.195 0 0 1 .178-.213c.009-.002.02-.002.031-.002"></path><path fill="none" stroke="#eebd7b" stroke-width=".15" stroke-miterlimit="10" d="M56.235 225.227a13.231 13.231 0 0 1-3.304-.003"></path><path fill="none" stroke="#eebd7b" stroke-width=".15" stroke-miterlimit="10" d="M55.012 225.41c0 .03-.187.054-.42.054-.23 0-.418-.025-.418-.054 0-.029.188-.05.419-.05.232 0 .42.021.42.05m1.215-1.138a.203.203 0 1 1 .064.396"></path><path fill="none" stroke="#eebd7b" stroke-width=".15" stroke-miterlimit="10" d="M52.928 224.662a13.223 13.223 0 0 1 3.364.005m-3.364-.005a.197.197 0 1 1-.005-.392m3.305.002a13.322 13.322 0 0 1-3.304-.003"></path><path fill="none" stroke="#eebd7b" stroke-width=".15" stroke-miterlimit="10" d="M55.006 224.455c0 .029-.188.052-.42.052-.232 0-.42-.023-.42-.052 0-.029.188-.054.42-.054.232 0 .42.025.42.054m1.264-1.265a.201.201 0 0 1 .255.128.204.204 0 0 1-.127.257.214.214 0 0 1-.065.01m-3.363-.005a13.267 13.267 0 0 1 3.363.005m-3.363-.005a.197.197 0 0 1-.036-.392h.032m3.304.002a13.316 13.316 0 0 1-3.304-.002"></path><path fill="none" stroke="#eebd7b" stroke-width=".15" stroke-miterlimit="10" d="M55.046 223.373c0 .029-.188.05-.42.05s-.419-.021-.419-.05.188-.051.42-.051.42.022.42.051m1.162-1.243a.204.204 0 1 1 .129.386.263.263 0 0 1-.065.009m-3.362-.006a13.278 13.278 0 0 1 3.362.006m-3.362-.006a.197.197 0 1 1-.037-.392c.01 0 .02-.002.032 0m3.303.003a13.352 13.352 0 0 1-3.303-.003"></path><path fill="none" stroke="#eebd7b" stroke-width=".15" stroke-miterlimit="10" d="M54.986 222.312c0 .03-.188.053-.419.053-.231 0-.42-.023-.42-.053 0-.028.189-.052.42-.052.23 0 .419.024.419.052m1.229-1.143a.205.205 0 0 1 .129.388.246.246 0 0 1-.065.01"></path><path fill="none" stroke="#eebd7b" stroke-width=".15" stroke-miterlimit="10" d="M52.917 221.561a13.23 13.23 0 0 1 3.362.005m-3.362-.005a.197.197 0 0 1-.04-.392.124.124 0 0 1 .035-.002m3.303.002a13.177 13.177 0 0 1-3.303-.002"></path><path fill="none" stroke="#eebd7b" stroke-width=".15" stroke-miterlimit="10" d="M54.993 221.354c0 .029-.188.052-.42.052-.23 0-.42-.023-.42-.052 0-.03.19-.053.42-.053.232 0 .42.023.42.053m1.219-1.322a.204.204 0 1 1 .064.397m-3.364-.007a13.361 13.361 0 0 1 3.364.007m-3.364-.007a.197.197 0 0 1-.037-.391.069.069 0 0 1 .033 0m3.304.001a13.23 13.23 0 0 1-3.304-.002"></path><path fill="none" stroke="#eebd7b" stroke-width=".15" stroke-miterlimit="10" d="M54.99 220.216c0 .029-.188.054-.422.054-.23 0-.418-.025-.418-.054 0-.029.188-.052.418-.052.234 0 .422.023.422.052m-3.057 14.318h5.352v-15.29"></path><path fill="none" stroke="#eebd7b" stroke-width=".15" stroke-miterlimit="10" d="M56.217 233.023a.203.203 0 1 1 .064.398"></path><path fill="none" stroke="#eebd7b" stroke-width=".15" stroke-miterlimit="10" d="M52.917 233.415a13.216 13.216 0 0 1 3.365.004m-3.365-.004a.2.2 0 0 1-.214-.18.195.195 0 0 1 .177-.212.057.057 0 0 1 .032-.003m3.305.003a13.255 13.255 0 0 1-3.305-.003"></path><path fill="none" stroke="#eebd7b" stroke-width=".15" stroke-miterlimit="10" d="M54.995 233.207c0 .029-.188.053-.42.053-.232 0-.421-.024-.421-.053 0-.03.189-.054.421-.054.232 0 .42.025.42.054m1.271-1.1a.204.204 0 1 1 .064.399"></path><path fill="none" stroke="#eebd7b" stroke-width=".15" stroke-miterlimit="10" d="M52.967 232.499a13.182 13.182 0 0 1 3.363.004m-3.363-.004a.2.2 0 0 1-.215-.178.196.196 0 0 1 .178-.214c.01-.003.021-.003.032-.003m3.304.003a13.27 13.27 0 0 1-3.304-.003"></path><path fill="none" stroke="#eebd7b" stroke-width=".15" stroke-miterlimit="10" d="M55.043 232.29c0 .03-.187.055-.42.055-.231 0-.419-.024-.419-.054s.188-.054.42-.054c.232 0 .419.025.419.054m1.192-1.177a.202.202 0 0 1 .257.13.202.202 0 0 1-.128.255.185.185 0 0 1-.065.012m-3.363-.007a13.19 13.19 0 0 1 3.363.007m-3.363-.007a.195.195 0 0 1-.214-.179.195.195 0 0 1 .178-.212.062.062 0 0 1 .031 0m3.304.001a13.237 13.237 0 0 1-3.304-.001"></path><path fill="none" stroke="#eebd7b" stroke-width=".15" stroke-miterlimit="10" d="M55.012 231.298c0 .03-.187.054-.42.054-.23 0-.418-.024-.418-.054 0-.029.188-.052.419-.052.232 0 .42.023.42.052m1.215-1.139a.202.202 0 0 1 .257.129.205.205 0 0 1-.128.258.245.245 0 0 1-.065.009m-3.364-.007a13.187 13.187 0 0 1 3.364.007m-3.364-.007a.199.199 0 0 1-.213-.178.195.195 0 0 1 .209-.214m3.304.003a13.319 13.319 0 0 1-3.304-.003"></path><path fill="none" stroke="#eebd7b" stroke-width=".15" stroke-miterlimit="10" d="M55.006 230.343c0 .028-.188.05-.42.05-.232 0-.42-.022-.42-.05 0-.03.188-.054.42-.054.232 0 .42.025.42.054m1.264-1.266a.201.201 0 0 1 .255.128.203.203 0 0 1-.127.257.214.214 0 0 1-.065.01"></path><path fill="none" stroke="#eebd7b" stroke-width=".15" stroke-miterlimit="10" d="M52.97 229.464a13.464 13.464 0 0 1 3.363.007m-3.363-.007a.194.194 0 0 1-.214-.176.198.198 0 0 1 .178-.216h.032m3.304.005a13.214 13.214 0 0 1-3.304-.005"></path><path fill="none" stroke="#eebd7b" stroke-width=".15" stroke-miterlimit="10" d="M55.046 229.26c0 .028-.188.052-.42.052s-.419-.024-.419-.052c0-.03.188-.052.42-.052s.42.023.42.052m-3.114 5.274v-15.29M34.239 275.48h-10.38m10.38.325h-10.38m-.001-.445v.445m10.381 0v-.444m-6.003.964h1.625m4.378-.965h-10.38m11.375 1.405h1.19m0 0v-1.404m0-.001h-1.19m0 0v1.405m1.19-1.269h-1.19m1.594 1.654h-15.56m15.56-2.288h-15.56m15.56 2.288v-2.288m-8.592 1.463a13.069 13.069 0 0 1-3.788-.52m9.202 0a13.072 13.072 0 0 1-3.789.52m-6.998.44h-1.189m0 0v-1.404m0-.001h1.189m0 0v1.405m-1.189-1.269h1.189m-1.594 1.654v-2.288m29.714 2.765V264.19h-8.078v13.436h8.078"></path><path fill="none" stroke="#eebd7b" stroke-width=".15" stroke-miterlimit="10" d="M43.354 264.638h7.18v12.541h-7.18zm9.634 2.752.498-.097m-.498 1.862.505.084m-.061-2.574a15.478 15.478 0 0 1 0 3.32m-.444-.726.498.097m.026-1.342h-.524m0 .516h.524m0 .107h-.524m-.088-2.035.088.014m0 3.419-.086.013m.086-.376.458.11m-.458-2.287.499-.084m-.499.707h.525m-.525-1.142.46-.103m.31-.463a8.177 8.177 0 0 1-.025 3.808m-.301-3.553.326-.254m-.326 3.573.3.234m-.3-3.448-.444.103m.444 3.008-.444-.103m-.088.206v.21m-1.917-.104 1.917-.106m0 .209-1.917.295m2.005-.456v-3.417m-.088.048v-.208m-1.917.105 1.917.103m0-.208-1.917-.296m2.005 6.291.498-.096m-.498 1.86.505.084m-.061-2.573a15.486 15.486 0 0 1 0 3.32m-.444-.728.498.097m.026-1.341h-.524m0 .518h.524m0 .106h-.524m-.088-2.037.088.016m0 3.417-.086.016m.086-.376.458.108m-.458-2.286.499-.084m-.499.705h.525m-.525-1.142.46-.102m.31-.463a8.19 8.19 0 0 1-.025 3.81m-.301-3.554.326-.256m-.326 3.576.3.234m-.3-3.451-.444.104m.444 3.009-.444-.103m-.088.207v.205m-1.917-.102 1.917-.103m0 .205-1.917.298m2.005-.455v-3.419m-.088.049v-.209m-1.917.104 1.917.105m0-.209-1.917-.295m-10.085-3.829-.497-.097m.497 1.862-.504.084m.061-2.574a15.478 15.478 0 0 0 0 3.32m.443-.727-.497.097m-.026-1.342h.523m0 .517h-.523m0 .107h.523m.088-2.035-.088.014m0 3.419.086.013m-.086-.376-.455.11m.455-2.287-.498-.084m.498.706h-.524m.524-1.141-.46-.103m-.31-.463a8.197 8.197 0 0 0 .026 3.808m.301-3.553-.327-.255m.327 3.574-.301.234m.301-3.448.443.103m-.443 3.008.443-.103m.09.206v.209m1.917-.103-1.917-.106m0 .209 1.917.295m-2.007-.456v-3.417m.09.048v-.208m1.917.105-1.917.103m0-.208 1.917-.296m-2.007 6.291-.497-.097m.497 1.861-.504.083m.061-2.572a15.485 15.485 0 0 0 0 3.32m.443-.728-.497.097m-.026-1.342h.523m0 .519h-.523m0 .106h.523m.088-2.037-.088.016m0 3.417.086.016m-.086-.376-.455.108m.455-2.286-.498-.084m.498.705h-.524m.524-1.142-.46-.103m-.31-.462a8.206 8.206 0 0 0 .026 3.81m.301-3.554-.327-.256m.327 3.576-.301.234m.301-3.451.443.103m-.443 3.01.443-.103m.09.207v.205m1.917-.102-1.917-.103m0 .205 1.917.298m-2.007-.455v-3.419m.09.049v-.209m1.917.104-1.917.105m0-.209 1.917-.295"></path><g fill="none" stroke="#eebd7b" stroke-width=".15" stroke-miterlimit="10"><path d="M23.286 253.679c-.054-.323-.118-.627-.19-1.002-.38-1.214-1.451-.633-1.451-.026v4.784s.065.542.48.542h1.015s.349.05.42-1.023"></path><path d="M21.645 252.524v-1.087s.11-.785.825-.861c.47-.077 3.184-.582 8.644-.582s8.197.505 8.665.582c.716.076.828.86.828.86v1.088"></path><path d="M22.958 252.335c1.227.547 3.883.342 4.359.342.625 0 .584-.053.602-.054m.001-1.791a.64.64 0 0 0-.056-.002H23.04c-.457.025-.703.277-.703.733a.645.645 0 0 0 .122.403"></path><path d="M25.17 253.256c1.166.053 2.497.036 2.772-.073v-.56m-4.89-.223s-.068.454.49.681c.122.05.372.122.81.155m3.59.933v-3.337s3.842-.148 6.365 0v6.983s.47.15 1.832.125c1.361-.025 2.635-.328 2.635-.328m-15.299 0s1.274.303 2.635.328c1.363.026 1.832-.125 1.832-.125v-2.122"></path><path d="M40.607 252.65v4.785s-.068.542-.48.542h-1.018s-1.005.14.046-5.3c.38-1.214 1.452-.633 1.452-.026z"></path><path d="M39.293 252.335c-1.228.547-3.885.342-4.36.342-.626 0-.584-.053-.603-.054m0-1.791a.642.642 0 0 1 .055-.002h4.825c.457.025.703.277.703.733a.642.642 0 0 1-.122.403m-16.554 1.722c.62-.272 1.512-.657 1.512-.657s.245-.177.312 0 .493 1.443.493 1.443m-.508 1.601s-1.348.626-1.48.879c-.135.252-1.118-2.606-1.118-2.606s.022-.304.224-.405c.061-.032.286-.132.565-.255m4.719 1.962c.213-.422.69-.999.365-1.227a7.24 7.24 0 0 1-.373-.254"></path><path d="M27.948 254.169c-.564-.398-1.558-1.105-1.659-1.012 0 0-1.205 2.177-1.317 2.48-.111.304.066.507.178.507.111 0 1.743 1.113 1.944 1.164.2.052.565-1.074.862-1.659m-.036-3.026s.246.104.603.13c.357.026 5.426.095 5.784-.13v.56c.448.178 3.941.086 4.4-.102.558-.227.492-.682.492-.682"></path><path d="M27.942 253.183s.447.153 1.05.178c.482.018 3.555.025 4.78-.025.304-.015.535-.153.535-.153m-6.365 4.632s.514.175 1.386.175c.87 0 3.707.027 3.707.027s1.183.025 1.272-.202"></path></g><path fill="none" stroke="#eebd7b" stroke-width=".15" stroke-miterlimit="10" stroke-dasharray="1,1" d="M38.6 257.533v7.572H23.505v-7.68"></path><path fill="none" stroke="#eebd7b" stroke-width=".15" stroke-miterlimit="10" d="m20.295 270.768.282.064m0 0 .322.174m-.322-.174.379-.26m-.956.548.298.25m-.047.628.134-.326m0 0 .28-.445m-.045 1.07.192-.615m-.192.615.739-.119m-.869-.536.602.052m0 0 .446-.063m-.17.971.001-.604m-.219.917.694-.323m0 0 .154-.172m0 0 .096.126m0 0 .42.659m.001 0 .141-.195m0 0 .28.3m0 0 .09-.145m0 0 .263.049m0 0 .178-.372m0 0 .375.192m0 0 .077-.569m0 0 .11.037m.001 0-.059-.436m0 0 .878.042m0 0-.03-.155m.001 0 .133-.082m-3.803 1.044-.148.065m3.951-1.109-.454-.688m-4.201.187.225.08m3.538-1.364.061.325m.898-.181-.246.147m-2.118 2.633.152-.35m.659.182-.307-.22m-.134.543.067-.28m-1.095-.465.123-.437m-.751.015.306-.216M20 271.12l.295-.352m0 0-.418-.461m0 0 .664-.344m-.001 0-.345-.68m0 0 .326-.05m0 .001-.056-.15m0 .001.805.055m0 0 .367.304m0 0 .02-.238m0 0-.225-.217m0 0 .12-.896m0 0 .604.357m0 0 .144.435m0 0-.11.18m0 .001.373.26m0 .001.02-.255m0 0-.182-.208m0 0 .03-.355m-.001 0 .52-.635m0 0 .264.512m0 0-.571.487m.637-.542.098.216m0 0 .079.381m0 0-.013.415m0 0-.307.102m0 0-.198.237m0 0 .054.482m0 0 .304.195m0 0 .385-.179m0 0 .203-.372m0 0 .168-.6m0-.001-.609.136m.013-.415.43-.188m0 0 .434-.119m-.001 0-.123.734m0 0-.137.262m0 0-.15.112m-.094.403.245-.046m0 0 .08-.303m.001 0 .464-.081m0 0 .657.238m0 0-.243.29m0 0 .183.099m0 0-.288.242m0 0-.289.171m0 0 .296.28m0 0-.565.216m0 0-.47.129m0 0-.423-.008m0 .001-.24-.21m-.001 0-.037-.306m1.459-.086-.343-.277m0 0-.18-.07m0 0-.356-.043m0 0-.36.171m.001.001-.245.2m-1.505-1.534.073-.45m0 0 .46.31m.373.261.033.36m-.959-.243.073.329m-1.198-.044.478-.085m0 0 .333-.016m0 0 .313.139m0 0 .066.269m-.867.277.228.182m1.58-1.622-.063.242m-1.578 3.865.01-.202m.001 0-.024-.54m-.738-.24.451.038m-.162-2.074.295.351m2.462-.785a1.27 1.27 0 1 1-1.759 1.758m50.618-17.87h10.316v6H72.156zm0 1.03h10.316m-10.316 0 10.316 4.97m0-4.971-10.316 4.972"></path><path fill="none" stroke="#eebd7b" stroke-width=".25" stroke-linecap="round" stroke-linejoin="round" stroke-miterlimit="10" d="M15.312 213.178v12.449m0 0h2.182m0 0v-.636m0-.001h1.455m0 0v-5.91m0-1.455v-3.81m-3.637 26.906v8.48m0 1.045v5.115m0-.001h2.182m.546 0h.909m0 0v-5.114m0-1.046v-7.842m0 0h-1.455m0 0v-.637m0 0h-2.182m0 31.007v6.123m3.637-.213v-5.91m0 0h-.91m-.545 0h-2.182m0 0v-8.184m0-22.823v-15.094m3.637-.637v16.368m0 22.186v8.184m13.639 7.819v-.454m-17.276-.197v2.38m17.276-2.183h49.829m0-1.455H18.949m63.468 1.909H32.588m49.829-.454v.454m1.455-31.68h-1.455m0 0v11.722m0 1.045v17.004m1.455-38.864v-21.149m-1.455 1.455v16.375m0 1.046v2.273m0 0h1.455m-68.56 39.076H1.15m0 0v1.046m0 0h14.162m0-29.696H1.15m0 0v1.046m0 0h14.162m42.054-10.038h1.046m0 0v-3.707m-1.046 11.982v.717m.454 1.046-.007-.008m0 0 .74-.74m-.141-.14v-.875m0 0h-1.046m26.506-30.858H67.277m-1.045 0H18.949m0 1.455h63.468M57.366 249.2H18.95m-.001 1.046H57.82m5.821 10.388h18.776m0-1.045h-17.73m2.59-41.964v-1.356m-1.045.001v1.355m-1.545 38.008-.284-.284m0 .001-.74.739m-5.111-6.59-.14-.141m6.275 10.231v-3.956m-1.023.456-.023-.023m0 0v4.568m-6.275-41.546v21.12m1.046-4.753v-16.367m0 0h-1.046m25.051 16.367h-6.32m0 0v1.046m0 0h6.32m-13.685-1.046h-10.32m0 1.046h10.32m0 0v-1.046M1.672 250.7v26.696M.945 250.7v26.696m.727-26.696v-.454m0 0H.945m0 0v.455m0-.001h.727m0 27.15v-.454m0 0H.945m0 0v.455m0-.001h.727m77.289-49.396v.91m2.91-.91h-2.91m2.91.909v-.91m-2.91.91h2.91m-2.91-5.001V228m2.91-3.638h-2.91m2.91 3.638v-3.638M78.961 228h2.91m.364-5.457v7.275m-3.637-7.275h3.637m-3.637 7.275v-7.275m3.637 7.275h-3.637m3.273-5.911v-.909m-2.91.909h2.91m-2.91-.909v.91m2.91-.91h-2.91m-8.181 36.045h.909m-.909-2.91v2.91m.909-2.91h-.91m.91 2.91v-2.91m-5.001 2.91h3.637m-3.637-2.91v2.91m3.637-2.91h-3.638m3.638 2.91v-2.91m-5.456-.363h7.274m-7.274 3.637v-3.637m7.274 3.637H64.87m7.273-3.637v3.637m-5.91-3.274h-.91m.91 2.91v-2.91m-.909 2.91h.909m-.909-2.91v2.91m-50.012 4.501h2.183m.635 0h.82"></path><path fill="none" stroke="#eebd7b" stroke-width=".2" stroke-linecap="round" stroke-linejoin="round" stroke-miterlimit="10" d="M54.866 206.714v10.911m-24.551-10.911v10.911"></path><path fill="none" stroke="#eebd7b" stroke-width=".2" stroke-linecap="round" stroke-linejoin="round" stroke-miterlimit="10" stroke-dasharray="0.013148,0.01" d="M52.138 206.714v10.911m-2.728-10.911v10.911m-2.728-10.911v10.911m-2.728-10.911v10.911m-2.728-10.911v10.911m-2.728-10.911v10.911m-2.728-10.911v10.911m-2.727-10.911v10.911m-2.728-10.911v10.911"></path><path fill="none" stroke="#eebd7b" stroke-width=".2" stroke-linecap="round" stroke-linejoin="round" stroke-miterlimit="10" d="M52.138 206.714v10.911m-2.728-10.911v10.911m-2.728-10.911v10.911m-2.728-10.911v10.911m-2.728-10.911v10.911m-2.728-10.911v10.911m-2.728-10.911v10.911m-2.727-10.911v10.911"></path><path d="M49.33 258.924h-.008l-.394.213-.06-.234.496-.266h.263v2.271h-.298v-1.984zm1.1 1.408c0-.287.172-.489.451-.608l-.004-.01c-.25-.12-.36-.315-.36-.51 0-.361.304-.605.703-.605.44 0 .66.276.66.558 0 .193-.094.399-.374.532v.01c.283.112.458.31.458.587 0 .395-.339.66-.772.66-.475 0-.762-.282-.762-.614zm1.224-.014c0-.276-.193-.409-.5-.497-.266.078-.41.252-.41.47-.01.23.165.432.455.432.276 0 .455-.171.455-.405zm-.846-1.136c0 .227.17.35.433.42.196-.067.346-.206.346-.412 0-.182-.108-.371-.385-.371-.255 0-.394.168-.394.363zm1.345 2.156c.077-.206.171-.58.21-.835l.342-.035a4.343 4.343 0 0 1-.332.85l-.22.02zm1.776-.43v-.618h-1.055v-.203l1.013-1.45h.332v1.412h.318v.241h-.318v.618h-.29zm0-.859v-.759c0-.118.004-.237.01-.356h-.01c-.07.133-.126.231-.189.336l-.555.772v.007h.744zm2.142-1.195c-.063-.004-.143 0-.231.013a.923.923 0 0 0-.789.808h.01a.677.677 0 0 1 .549-.262c.402 0 .684.29.684.734 0 .416-.282.8-.754.8-.486 0-.803-.377-.803-.968 0-.448.16-.8.383-1.024.189-.185.44-.3.727-.336a1.62 1.62 0 0 1 .224-.017v.252zm-.087 1.31c0-.325-.186-.52-.468-.52a.506.506 0 0 0-.44.279.257.257 0 0 0-.036.137c.007.373.178.65.5.65.266 0 .444-.22.444-.546zM41.29 240.412h-.007l-.394.213-.06-.234.496-.266h.263v2.272h-.298v-1.985zm2.08 1.985v-.618h-1.055v-.204l1.012-1.45h.332v1.412h.319v.242h-.319v.618h-.29zm0-.86v-.758c0-.119.003-.238.01-.357h-.01c-.07.133-.127.232-.19.336l-.555.772v.007h.744zm.743 1.289c.078-.206.172-.58.21-.835l.343-.035a4.343 4.343 0 0 1-.332.85l-.22.02zm2.337-1.589c0 .772-.288 1.198-.79 1.198-.444 0-.745-.415-.752-1.167 0-.762.329-1.18.79-1.18.479 0 .751.425.751 1.149zm-1.234.035c0 .59.182.925.46.925.315 0 .466-.367.466-.947 0-.558-.144-.926-.461-.926-.27 0-.465.33-.465.948zm3.029-.035c0 .772-.287 1.198-.79 1.198-.443 0-.744-.415-.75-1.167 0-.762.327-1.18.788-1.18.48 0 .752.425.752 1.149zm-1.233.035c0 .59.182.925.46.925.315 0 .466-.367.466-.947 0-.558-.144-.926-.461-.926-.27 0-.465.33-.465.948zm21.795 3.438h-.866l-.087.584c.051-.008.1-.015.184-.015.175 0 .35.04.49.123a.648.648 0 0 1 .325.584c0 .443-.354.775-.846.775a1.11 1.11 0 0 1-.566-.14l.077-.233c.094.056.28.125.485.125.29 0 .538-.189.538-.492-.003-.294-.199-.503-.653-.503-.129 0-.23.013-.315.024l.148-1.09h1.086v.258zm.339 2.443c.077-.207.172-.58.21-.835l.342-.036a4.343 4.343 0 0 1-.332.85l-.22.02zm.798-1.006c0-.287.171-.49.45-.609l-.003-.01c-.251-.119-.36-.315-.36-.51 0-.36.304-.605.703-.605.44 0 .66.277.66.559 0 .192-.094.398-.374.531v.01c.283.112.458.311.458.588 0 .394-.34.66-.773.66-.474 0-.761-.282-.761-.614zm1.223-.015c0-.275-.192-.408-.5-.496-.265.077-.409.252-.409.469-.01.23.165.432.455.432.275 0 .454-.17.454-.405zm-.846-1.136c0 .228.171.35.434.42.195-.066.346-.206.346-.412 0-.183-.109-.371-.385-.371-.255 0-.395.168-.395.363zm1.447 1.727v-.189l.241-.234c.58-.552.842-.846.846-1.188 0-.231-.113-.444-.451-.444a.773.773 0 0 0-.483.193l-.098-.217a.997.997 0 0 1 .644-.23c.49 0 .695.334.695.66 0 .42-.304.758-.783 1.22l-.182.167v.007h1.021v.255h-1.45zm-2.21-15.377v-.618h-1.055v-.203l1.013-1.45h.332v1.412h.318v.24h-.318v.619h-.29zm0-.86v-.758c0-.118.004-.238.01-.357h-.01c-.07.133-.126.232-.189.336l-.555.773v.007h.744zm.744 1.29c.077-.206.172-.58.21-.835l.343-.036a4.343 4.343 0 0 1-.332.85l-.221.02zm1.776-.43v-.618h-1.054v-.203l1.012-1.45h.332v1.412h.319v.24h-.319v.619h-.29zm0-.86v-.758c0-.118.004-.238.011-.357h-.01c-.07.133-.127.232-.19.336l-.555.773v.007h.744zm.846.86v-.189l.241-.234c.58-.552.842-.846.846-1.188 0-.23-.112-.444-.451-.444a.773.773 0 0 0-.483.193l-.097-.217a.997.997 0 0 1 .643-.23c.49 0 .696.334.696.66 0 .42-.305.758-.784 1.22l-.181.167v.007h1.02v.255h-1.45zM4.372 260.937v-.618H3.318v-.204l1.012-1.45h.332v1.412h.319v.242h-.319v.618h-.29zm0-.86v-.758c0-.119.004-.238.011-.357h-.01c-.07.133-.127.232-.19.336l-.555.772v.007h.744zm.744 1.289c.078-.206.172-.58.21-.835l.343-.035a4.343 4.343 0 0 1-.332.85l-.22.02zm2.124-2.484c-.064-.004-.144 0-.232.014a.923.923 0 0 0-.79.807h.01a.677.677 0 0 1 .55-.261c.402 0 .684.29.684.733 0 .416-.282.8-.754.8-.486 0-.804-.377-.804-.968 0-.447.16-.8.384-1.023.189-.186.44-.301.727-.336a1.5 1.5 0 0 1 .224-.018v.252zm-.088 1.31c0-.325-.186-.52-.468-.52a.506.506 0 0 0-.44.28.257.257 0 0 0-.036.136c.007.373.178.65.5.65.266 0 .444-.22.444-.545zm1.253-1.24H8.4l-.395.213-.06-.234.497-.266h.262v2.272h-.298v-1.985zm1.895-.44c-.256.342-.44.797-.44 1.429 0 .622.192 1.069.44 1.419h-.241c-.22-.29-.458-.738-.458-1.42.004-.688.237-1.135.458-1.428h.241zm.895.44h-.006l-.395.213-.06-.234.497-.266h.262v2.272h-.298v-1.985zm1.028 2.414c.077-.206.172-.58.21-.835l.343-.035a4.343 4.343 0 0 1-.332.85l-.221.02zm.899-.782c.088.056.29.143.503.143.396 0 .518-.251.514-.44-.003-.318-.29-.455-.587-.455h-.171v-.23h.17c.225 0 .508-.115.508-.384 0-.182-.115-.343-.399-.343a.83.83 0 0 0-.454.15l-.08-.223c.118-.088.35-.175.594-.175.447 0 .65.266.65.541 0 .235-.14.434-.42.535v.007c.28.056.507.266.507.584 0 .363-.283.68-.828.68a1.16 1.16 0 0 1-.59-.153l.083-.237zm1.695-.224c0-.287.171-.489.45-.608l-.003-.01c-.251-.119-.36-.315-.36-.51 0-.36.304-.605.703-.605.44 0 .66.277.66.559 0 .192-.094.398-.374.531v.01c.283.112.458.311.458.588 0 .394-.34.66-.773.66-.474 0-.761-.282-.761-.614zm1.223-.014c0-.276-.192-.408-.5-.496-.265.077-.409.252-.409.469-.01.23.165.432.455.432.276 0 .454-.17.454-.405zm-.845-1.136c0 .228.17.35.433.42.195-.066.346-.206.346-.412 0-.182-.109-.371-.385-.371-.255 0-.394.168-.394.363zm1.359 2.15c.248-.346.44-.8.44-1.43 0-.625-.19-1.072-.44-1.418h.237c.224.286.458.733.458 1.422 0 .684-.234 1.129-.458 1.426h-.237z" fill="#eebd7b"></path></g></svg>