<svg version="1.1" xmlns="http://www.w3.org/2000/svg" xmlns:xlink="http://www.w3.org/1999/xlink" viewBox="94.239 107.966 89.435 58.022"><path fill-rule="evenodd" clip-rule="evenodd" fill="none" d="m94.239 107.966 89.435.202v28.864l-14.875-.188v28.952l-74.503.192z"></path><path fill-rule="evenodd" clip-rule="evenodd" fill="none" d="m101.148 109.42 81.29-.204v26.582h-17.276v28.543h-63.468z"></path><clipPath id="a"><path fill-rule="evenodd" clip-rule="evenodd" fill="none" d="m94.239 107.966 89.435.202v28.864l-14.875-.188v28.952l-74.503.192z"></path></clipPath><g clip-path="url(#a)"><path fill-rule="evenodd" clip-rule="evenodd" fill="#eebd7b" d="M100.239 128.516h.114V109.42h-.114v11.067zm.795 0h.114v-9.207h-.114v9.207m.114-9.889v-9.206h-.114v9.206h.114zm-.909 47.169h.114v20.914h-.114zm.909 20.914v-9.207h-.114v9.207h.114m0-9.889v-11.025h-.114v11.025h.114z"></path><path fill-rule="evenodd" clip-rule="evenodd" fill="#eebd7b" d="M101.148 118.513h3.637v.114h-3.637zm0 .797h3.637v.113h-3.637zm5.092-9.89v-1.454h-6.001v1.455h4.546zm-4.546 56.376h63.468v-1.455h-64.923v1.455h.909zm4.001 0h1.454v22.368h-1.454zm59.467-28.952v-1.046H129.51l-1.002 1.002.044.044h9.3zm-41.827 12.048v-5.564l-.678-.678-.368.369v5.873h.575z"></path><path fill-rule="evenodd" clip-rule="evenodd" fill="#eebd7b" d="M104.785 128.516h1.455V109.42h-1.455v16.375zm1.455 1.454v-1.454h-6.001l.006 1.455h4.54zm58.922-20.55v-1.454H106.24v1.455h31.611zm-64.923 54.921h1.455v-23.46h-1.455v23.46m0-32.552h1.455v-1.818h-1.455v1.818zm0-23.823h1.455v-5.91h-1.455v5.91m1.455-15.003V66.876h-1.455v26.087h1.455m0-35.18v-7.511h-1.455v7.512h1.455zm28.551 108.013h1.046v17.413h-1.046zm-12.957-57.83v-5.91h-1.046v5.91h1.046m-1.046-14.185h1.046v-1.273h-1.046v1.273zm-14.548 54.065h20.595v1.046h-20.595zm28.551-38.417h1.046v17.412h-1.046zm-23.766 17.412h6.08v-1.045h-6.319v1.045h.239m23.766 0v-1.045h-10.32v1.045h10.32zm-8.138 20.823v-3.637h-7.274v3.637h7.274m-1.818-.364h-3.638v-2.91h3.638v2.91m1.363 0h-.909v-2.91h.91v2.91m-6.366 0v-2.91h.91v2.91h-.91zm-5.592-27.142h.364v-7.274h-3.637v7.274h3.274m-1.82-.454h-1.09v-.91h2.91v.91h-1.82m0-1.364h-1.09v-3.637h2.91v3.637h-1.82m-.363-4.092h-.727v-.91h2.91v.91h-2.183zm59.977-5.02h15.313v-1.046h-16.187v1.046zm0 27.616h15.472v-1.046h-16.346v1.046z"></path><path fill-rule="evenodd" clip-rule="evenodd" fill="#eebd7b" d="M168.799 131.698V142.7h-2.182l-.036-.636h-1.42v-10.366zm0 26.174v14.471h-2.182l-.036-.637h-1.42v-13.242h1.456v-.592zm-3.638-55.817h3.638v13.3h-3.638zm-64.967 7.152h.954v19.468h-.954z"></path><path fill-rule="evenodd" clip-rule="evenodd" fill="#eebd7b" d="M100.67 118.448h4.494v.975h-4.493zm-.431 47.106h.909v21.52h-.91zm30.006-30.438h1.011v1.011h-1.01zm-1.712 1.652.715-.715.715.715-.715.715z"></path><path fill="none" stroke="#eebd7b" stroke-width=".25" stroke-linecap="round" stroke-linejoin="round" stroke-miterlimit="10" d="m129.247 137.539-2.141 7.992m3.139-10.415-4.137-7.166m-25.869 3.84-4.547 7.874m16.868-12.823 6.378 3.683"></path><path fill="none" stroke="#eebd7b" stroke-width=".2" stroke-linecap="round" stroke-linejoin="round" stroke-miterlimit="10" d="M166.07 115.331h.546m-.546 16.367h.546m0-8.693h-.545m-.001 0v1.019m0 0h.546m0 0v-1.019m0-7.165h-.545m-.001 0v-.509m0 0h.546m0 0v.51m0 15.348h-.545m-.001 0v.51m0-.001h.546m0 0v-.51m-.546.001-3.582-6.205m4.128-1.979v-7.165m-.546 0v7.165m-.09 35.426v-16.367m.636 16.367v-16.367m0 0h-.636m.636 16.367h-.636"></path><path fill="none" stroke="#eebd7b" stroke-width=".15" stroke-linecap="round" stroke-linejoin="round" stroke-miterlimit="10" d="M123.88 165.796v15.458m-7.274-14.316v-1.142m-3.637 0v1.142m5.455-1.142v3.82h4.547v-3.82m-19.368-9.275a.455.455 0 0 1-.455-.454m3.638 0a.455.455 0 0 1-.455.454m-.001-3.637c.252 0 .456.204.456.455m-3.638 0c0-.251.204-.455.455-.455"></path><path fill="none" stroke="#eebd7b" stroke-width=".15" stroke-linecap="round" stroke-linejoin="round" stroke-miterlimit="10" d="M101.694 158.886h5.455v-6.365h-5.455m4.182 6.001v-2m-.454 2v-2m-.455 2v-2m-.455 2v-2m-.454 2v-2"></path><path fill="none" stroke="#eebd7b" stroke-width=".15" stroke-linecap="round" stroke-linejoin="round" stroke-miterlimit="10" d="M103.603 158.522v-2h2.728v2"></path><path fill="none" stroke="#eebd7b" stroke-width=".15" stroke-linecap="round" stroke-linejoin="round" stroke-miterlimit="10" d="M106.786 156.07v2.452h-3.638v-2.448m0-2.735v2.728m3.638 0v-2.728m-.456-.455h-2.727m.227 1.819h.728m-.364.364v-.728m0 .546a.182.182 0 1 1 0-.364.182.182 0 0 1 0 .364z"></path><path fill="none" stroke="#eebd7b" stroke-width=".15" stroke-linecap="round" stroke-linejoin="round" stroke-miterlimit="10" d="M104.194 154.976a.273.273 0 1 1 0-.546.273.273 0 0 1 0 .546zm11.335-44.225a13.647 13.647 0 0 1-3.3 0m3.3 0a.19.19 0 0 0 .167-.19m-.128 3.529a1.558 1.558 0 0 1-.345.95 1.667 1.667 0 0 1-.43.386 1.764 1.764 0 0 1-1.124.258 1.76 1.76 0 0 1-.56-.157 1.679 1.679 0 0 1-.47-.33 1.586 1.586 0 0 1-.32-.468 1.544 1.544 0 0 1-.13-.549 1.569 1.569 0 0 1-.001-.097"></path><path fill="none" stroke="#eebd7b" stroke-width=".15" stroke-linecap="round" stroke-linejoin="round" stroke-miterlimit="10" d="M115.491 114.088a1.432 1.432 0 0 1-.122.563 1.526 1.526 0 0 1-.273.422 1.63 1.63 0 0 1-.631.43 1.697 1.697 0 0 1-1.376-.071 1.58 1.58 0 0 1-.579-.515 1.494 1.494 0 0 1-.205-.468 1.45 1.45 0 0 1-.04-.365m-.205-3.524a.19.19 0 0 0 .169.191m1.649-.773a.16.16 0 0 0-.157.16c0 .09.07.162.157.162a.16.16 0 0 0 .157-.161c0-.089-.07-.16-.157-.16zm1.818.582v-1.14m-3.636 0v1.14"></path><path fill="none" stroke="#eebd7b" stroke-width=".15" stroke-linecap="round" stroke-linejoin="round" stroke-miterlimit="10" d="M115.568 110.744v3.346l-.32-2.766h-2.74l-.32 2.759m3.304.007-.32-2.766m-2.908 2.759.32-2.76m-.396-.581v3.391m-5.948 6.207h5.456v5.456m-5.456 0 5.456-5.456m0 5.456-5.456-5.456"></path><path fill="none" stroke="#eebd7b" stroke-width=".15" stroke-linecap="round" stroke-linejoin="round" stroke-miterlimit="10" d="M108.968 120.34a2.728 2.728 0 1 0 0 5.456 2.728 2.728 0 0 0 0-5.456zm13.198-9.737a.455.455 0 0 0-.454-.455m0 2.728a.455.455 0 0 0 .454-.455m-3.636 0c0 .251.203.455.454.455m0-2.728a.455.455 0 0 0-.455.455"></path><path fill="none" stroke="#eebd7b" stroke-width=".15" stroke-linecap="round" stroke-linejoin="round" stroke-miterlimit="10" d="M118.075 109.42v3.82h4.546v-3.82m-3.637.728h2.728m.454.455v1.818m-.454.455h-2.728m-.454-.455v-1.818m1.818.59v-.23m.363-.133h-.23m-.133-.133v-.23m-.133.363h-.23"></path><circle fill="none" stroke="#eebd7b" stroke-width=".15" stroke-linecap="round" stroke-linejoin="round" stroke-miterlimit="10" cx="120.348" cy="110.83" r=".28"></circle><path fill="none" stroke="#eebd7b" stroke-width=".15" stroke-linecap="round" stroke-linejoin="round" stroke-miterlimit="10" d="M120.548 110.83a.2.2 0 1 0-.4 0 .2.2 0 0 0 .4 0zm3.332 14.057h6.365m0-15.458h-6.365m0 0v15.458m3.183-13.922a.231.231 0 0 0 0 .462m0 0a.231.231 0 0 0 0-.462m-1.335-.843c-.638 0-1.155.516-1.155 1.154m4.979 0c0-.638-.517-1.154-1.155-1.154m-3.824 12.917c0 .638.517 1.155 1.155 1.155m2.669 0c.638 0 1.155-.517 1.155-1.155m-1.155 1.155h-2.67m-1.154-1.155v-11.763m1.155-1.154h2.67m1.154 1.154v11.763m18.106 48.213h-5.456v-5.456m5.456 0v5.456m-29.598-12.366h-5.455v5.455m5.455 0v-5.455m-1.409 3.132v.454m0 .647v.454m.778-.777h-.455m-.646 0h-.455m-1.859-.778v.454m0 .647v.454m-.777-.777h.454m.647 0h.454m1.859-1.586v-.455m0-.647v-.454m.778.778h-.455m-.646 0h-.455m-1.859.778v-.455m0-.647v-.454m-.777.778h.454m.647 0h.454M128.2 102.51h-5.456v5.456"></path><path fill="none" stroke="#eebd7b" stroke-width=".15" stroke-linecap="round" stroke-linejoin="round" stroke-miterlimit="10" d="M128.2 107.966v-5.456l-5.456 5.456m5.456 0-5.456-5.456m35.826 68.742h-5.456v-5.456m5.456 0v5.456l-5.456-5.456m5.456 0-5.456 5.456m-24.142-12.366h-5.456v5.455m5.456 0v-5.455l-5.456 5.455m5.456 0-5.456-5.455m2.728 3.21v-.965m-.482.483h.964m6.929-59.104v5.456m3.091 63.286v-5.456m-29.596-6.91h5.455m-5.455 4.637v-4.637m0 0v5.455m10.91-5.455h5.456m-16.366-6.366v-3.628"></path><path fill="none" stroke="#eebd7b" stroke-width=".15" stroke-miterlimit="10" d="M159.22 115.688v-6.101h-13.846v3.207m1.067 2.826.452.234.226-.127.262.27h.744l.105.188.323-.105.188.217.413-.15 1.742.51.97-.345h.626m-6.636-.796.698.099m-1.272-.048.888-.14m-.703 5.817.672-.25m-.86.326.894.68m-.516 2.694-.413.6m-.012-6.584.347-.338m-.411.048.576-.3m13.404 6.349.199.8m-.263-1.563.387 1.45m-.436-2.337.387.887m-.298-5.114v3.913m.144-6.52v2.68m-13.555 3.441v2.355m.058-6.028v2.584m-.221-5.251v2.242m-.176-2.685v-2.529m13.817 13.291v1.443h-13.817v-1.78"></path><path fill="none" stroke="#eebd7b" stroke-width=".15" stroke-miterlimit="10" d="m145.012 115.38 1.203-.194.871.224.596.278h.965l.762-.206h.854v.15h1.45l1.003-.279h.872l1.115.223h2.14l.668-.242 1.264.354h.891l.176.194-.162.472-.148.334v.46l.264.366v.356l-.218.208v.724l.334.935-.172.414.126.15-.264.184.254.596-.196.646v2.116l.337.528v.626l-.627.528v.56h-.726l-1.517-.429h-1.22l-.395.394h-2.505l-.594-.413h-.832l-.371.369h-.833l-.948-.394-1.412.372-.6-.257-1.296.3-.925-.344v-.74h-.254l.275-.431-.239-.376.25-.613-.114-.206.194-.74-.227-1.4.136-.228-.115-.228.207-1.204-.436-1.22.29-1.019-.235-.763.235-.492-.15-.643m13.106-3.24v.294m-.151-.533-.391.191m.457-.246h-.323m.389.017-.2.257m-.237 2.54v-.276m-.02.409-.313-.504m.094.458-.437-.373h-.143l.105.144.266.152m.325.237-.591-.266m-.715.087h.543m-1.218-.239.694.342m-3.209-.944h.563l.408-.124.494.202.581.276.659.475m-2.999-1.246h.237m-.791-.077.534.343h.199v-.056h-.18l-.143-.133v-.238m-.058-.41h.515m-.495-.144.276-.123m.733-1.902.486.18m-.628.115.114.343m-.114-.507.152.364h.095v-.057l-.133-.201m-.285-.217v.693m-3.798 2.527.817.271-.12-.143.502.174.534-.217m-3.269-.022h.871m-1.394.229.664-.186m3.705-.018-.281-.147h-.068v.1l.526.14m-.019-.071-.517-.393m.607.393-.259-.383m-.135-2.47-.191.45m.202-.607-.74.562v.19h.156l.394-.505m-4.9 1.27.225.168m-.247-.269h.483m-.269-1.011.224.314m-.315-.517.608.483h.145l-.247-.225-.348-.247h.382m-.461 2.841h.517m-.641-.202.337-.348m-.348.472.753-.315"></path><path fill="none" stroke="#eebd7b" stroke-width=".15" stroke-miterlimit="10" d="m153.072 110.584 1.527.11.892.25 1.428.397.803.377.488.043-.06.215.13.457-.154.551-.316.487-.14.502.085.551.044.334-.096.344-.172-.169-.635-.177-.47.127-.697-.194-.683-.401-.553-.155-.608-.17-.648.013-.575-.159-.409-.321-.242-.262.325-.115.11-.395-.03-.467.165-.588.42-.55.107-.382-.036-.253"></path><path fill="none" stroke="#eebd7b" stroke-width=".15" stroke-miterlimit="10" d="m146.484 111.168 1.498-.303h2.411l.873.149.482-.092v.224l.249.405v.572l-.175.557v.52l.231.508.131.309v.357l-.213-.115h-.659l-.416.246h-.725l-.767-.203H148.2l-.62.187h-.597l-.48-.2-.304-.185.281-.2v-.41l-.152-.444v-.607l.257-.643v-.4l-.101-.232"></path><path fill="none" stroke="#eebd7b" stroke-width=".15" stroke-miterlimit="10" d="M158.775 111.423a22.098 22.098 0 0 0-13.252-.162m12.545 14.975.33-.102.172.564-.332.101zm-12.259-.042.336.081-.136.573-.337-.082zm12.418-15.534.187-.561.33.11-.187.56zm-12.652-.649.329-.108.187.56-.329.108z"></path><path fill="none" stroke="#eebd7b" stroke-width=".15" stroke-miterlimit="10" d="M146.112 126.414c3.963.768 8.038.753 11.995-.049"></path><path fill="none" stroke="#eebd7b" stroke-width=".15" stroke-miterlimit="10" d="M146.036 126.736c4.018.792 8.156.774 12.167-.053m.07-16.158a34.732 34.732 0 0 0-12.216-.164"></path><path fill="none" stroke="#eebd7b" stroke-width=".15" stroke-miterlimit="10" d="M158.36 110.259a34.672 34.672 0 0 0-12.392-.166m13.209-.463h2.665v2.664h-2.665zm-16.429 0h2.664v2.664h-2.664zm-8.288 54.258v-13.436h8.077v13.436h-8.078"></path><path fill="none" stroke="#eebd7b" stroke-width=".15" stroke-miterlimit="10" d="M134.907 150.9h7.181v12.54h-7.18zm-2.453 2.752-.498-.097m.498 1.862-.505.084m.061-2.574a15.478 15.478 0 0 0 0 3.319m.444-.726-.498.097m-.026-1.342h.524m0 .517h-.524m0 .106h.524m.087-2.034-.087.014m0 3.418.086.014m-.086-.376-.458.109m.458-2.286-.499-.085m.499.708h-.525m.525-1.142-.46-.103m-.31-.463a8.176 8.176 0 0 0 .025 3.808m.301-3.553-.326-.255m.326 3.574-.3.234m.3-3.449.444.104m-.444 3.008.444-.104m.088.207v.209m1.918-.104-1.918-.105m0 .209 1.917.295m-2.005-.456v-3.418m.088.048v-.207m1.918.105-1.918.102m0-.207 1.917-.297m-2.005 6.292-.498-.097m.498 1.861-.505.083m.061-2.572a15.486 15.486 0 0 0 0 3.32m.444-.729-.498.097m-.026-1.341h.524m0 .519h-.524m0 .105h.524m.087-2.036-.087.016m0 3.416.086.017m-.086-.376-.458.108m.458-2.286-.499-.084m.499.704h-.525m.525-1.141-.46-.103m-.31-.463a8.19 8.19 0 0 0 .025 3.811m.301-3.554-.326-.256m.326 3.576-.3.234m.3-3.451.444.103m-.444 3.01.444-.104m.088.208v.205m1.918-.102-1.918-.103m0 .205 1.917.298m-2.005-.456v-3.418m.088.049v-.209m1.918.104-1.918.105m0-.209 1.917-.296m10.085-3.828.497-.098m-.497 1.863.504.084m-.061-2.574a15.47 15.47 0 0 1 0 3.319m-.443-.726.497.097m.026-1.342h-.523m0 .517h.523m0 .106h-.523m-.088-2.034.088.014m0 3.418-.086.014m.086-.376.455.109m-.455-2.286.498-.085m-.498.708h.524m-.524-1.143.46-.102m.31-.463a8.196 8.196 0 0 1-.025 3.808m-.302-3.553.327-.255m-.327 3.574.302.234m-.302-3.449-.443.104m.443 3.008-.443-.104m-.09.207v.208m-1.917-.103 1.917-.105m0 .208-1.917.296m2.007-.456v-3.418m-.09.048v-.207m-1.917.105 1.917.102m0-.207-1.917-.297m2.007 6.292.497-.097m-.497 1.861.504.083m-.061-2.572a15.478 15.478 0 0 1 0 3.32m-.443-.729.497.097m.026-1.341h-.523m0 .519h.523m0 .105h-.523m-.088-2.036.088.016m0 3.416-.086.017m.086-.376.455.108m-.455-2.287.498-.083m-.498.704h.524m-.524-1.141.46-.103m.31-.463a8.205 8.205 0 0 1-.025 3.81m-.302-3.553.327-.256m-.327 3.576.302.234m-.302-3.451-.443.103m.443 3.01-.443-.104m-.09.208v.205m-1.917-.102 1.917-.103m0 .205-1.917.298m2.007-.456v-3.418m-.09.049v-.209m-1.917.104 1.917.105m0-.209-1.917-.296"></path><g fill="none" stroke="#eebd7b" stroke-width=".15" stroke-miterlimit="10"><path d="M146.786 141.247c-.053-.322-.118-.627-.19-1-.379-1.216-1.45-.634-1.45-.027v4.783s.065.543.48.543h1.015s.349.05.42-1.023"></path><path d="M145.145 140.093v-1.088s.112-.784.826-.86c.47-.077 3.184-.582 8.644-.582 5.459 0 8.197.505 8.665.582.715.076.827.86.827.86v1.088"></path><path d="M146.459 139.904c1.226.546 3.883.342 4.358.342.626 0 .584-.053.603-.054m0-1.791a.639.639 0 0 0-.055-.002h-4.825c-.457.025-.704.277-.704.732a.645.645 0 0 0 .123.404"></path><path d="M148.67 140.825c1.167.053 2.498.036 2.773-.073v-.56m-4.891-.224s-.067.455.491.682c.122.05.372.121.81.155m3.59.933V138.4s3.842-.148 6.365 0v6.982s.47.151 1.832.126c1.361-.025 2.635-.328 2.635-.328m-15.299 0s1.274.304 2.635.33c1.362.024 1.832-.127 1.832-.127v-2.121"></path><path d="M164.107 140.22v4.783s-.067.543-.48.543h-1.017s-1.005.14.046-5.3c.38-1.215 1.451-.633 1.451-.026z"></path><path d="M162.793 139.904c-1.228.546-3.884.342-4.36.342-.625 0-.584-.053-.602-.054m-.001-1.791a.643.643 0 0 1 .056-.002h4.825c.457.025.703.277.703.732a.643.643 0 0 1-.122.404m-16.555 1.722c.621-.272 1.513-.657 1.513-.657s.244-.177.312 0c.067.177.492 1.443.492 1.443m-.507 1.601s-1.348.625-1.48.879c-.136.252-1.119-2.606-1.119-2.606s.023-.304.225-.405c.06-.032.286-.132.564-.255m4.72 1.961c.212-.421.69-.998.365-1.226a7.3 7.3 0 0 1-.373-.254"></path><path d="M151.449 141.738c-.564-.398-1.558-1.105-1.66-1.012 0 0-1.204 2.177-1.316 2.48-.111.303.066.507.177.507.112 0 1.744 1.113 1.944 1.164.2.051.566-1.074.863-1.659m-.037-3.026s.246.104.604.13c.356.026 5.426.094 5.784-.13v.56c.448.177 3.94.086 4.4-.102.558-.227.492-.682.492-.682"></path><path d="M151.443 140.752s.447.152 1.05.177c.482.019 3.554.026 4.78-.025.304-.014.535-.152.535-.152m-6.365 4.631s.514.176 1.386.176c.87 0 3.707.027 3.707.027s1.183.025 1.272-.203"></path></g><path fill="none" stroke="#eebd7b" stroke-width=".15" stroke-miterlimit="10" stroke-dasharray="1,1" d="M162.1 145.101v7.573h-15.094v-7.68"></path><path fill="none" stroke="#eebd7b" stroke-width=".15" stroke-miterlimit="10" d="M156.088 133.768h-10.38m10.38.325h-10.38m-.001-.445v.445m10.381 0v-.445m-6.002.965h1.624m4.378-.965h-10.38m11.375 1.405h1.19m0 0v-1.405m0 0h-1.19m0 0v1.405m1.19-1.269h-1.19m1.594 1.653h-15.559m15.559-2.287h-15.559m15.559 2.287v-2.287m-8.591 1.463a13.065 13.065 0 0 1-3.789-.52m9.202 0a13.07 13.07 0 0 1-3.789.52m-6.998.44h-1.189m0 0v-1.405m0 0h1.19m-.001 0v1.405m-1.189-1.269h1.19m-1.595 1.653v-2.287m-5.662 0h5.662v2.288h-5.662zm5.662.393h-5.662m5.662 0-5.662 1.895m0-1.895 5.662 1.895m21.19-1.895-5.662 1.895m0-1.895 5.662 1.895m-5.586-2.288h5.662v2.287h-5.662zm5.662.392h-5.662m-8.558 28.748h10.38m-10.38.325h10.38m.001-.445v.445m-10.381 0v-.445m6.003.965h-1.625m-4.378-.965h10.38m-11.375 1.404h-1.19m.001 0v-1.404m0 0h1.189m0 0v1.404m-1.189-1.269h1.189m-1.594 1.654h15.559m-15.559-2.287h15.559m-15.559 2.287v-2.287m8.592 1.463a13.07 13.07 0 0 0 3.788-.52m-9.201 0c1.216.355 2.498.532 3.788.52m6.998.439h1.189m0 0v-1.404m0 0h-1.189m0 0v1.404m1.189-1.269h-1.189m1.594 1.654v-2.287m-29.128-36.929v-15.25m.274 15.25v-15.25m-1.831 8.808a.206.206 0 0 0-.257.13.205.205 0 0 0 .128.257c.021.005.044.01.065.01"></path><path fill="none" stroke="#eebd7b" stroke-width=".15" stroke-miterlimit="10" d="M135.749 118.69a13.268 13.268 0 0 0-3.364.007m3.364-.007a.196.196 0 0 0 .214-.175.196.196 0 0 0-.177-.216h-.032"></path><path fill="none" stroke="#eebd7b" stroke-width=".15" stroke-miterlimit="10" d="M132.449 118.301a13.34 13.34 0 0 0 3.305-.002"></path><path fill="none" stroke="#eebd7b" stroke-width=".15" stroke-miterlimit="10" d="M133.67 118.486c0 .029.19.05.42.05.233 0 .422-.021.422-.05 0-.03-.189-.054-.421-.054-.232 0-.42.024-.42.054m-1.211-1.141a.204.204 0 0 0-.128.387c.021.007.043.01.063.01"></path><path fill="none" stroke="#eebd7b" stroke-width=".15" stroke-miterlimit="10" d="M135.76 117.736a13.348 13.348 0 0 0-3.365.005m3.365-.005a.197.197 0 1 0 .005-.394"></path><path fill="none" stroke="#eebd7b" stroke-width=".15" stroke-miterlimit="10" d="M132.46 117.345a13.2 13.2 0 0 0 3.305-.003"></path><path fill="none" stroke="#eebd7b" stroke-width=".15" stroke-miterlimit="10" d="M133.682 117.53c0 .028.188.053.42.053.232 0 .421-.025.421-.053 0-.03-.189-.054-.421-.054-.232 0-.42.025-.42.054m-1.272-1.101a.202.202 0 0 0-.255.13.202.202 0 0 0 .192.266"></path><path fill="none" stroke="#eebd7b" stroke-width=".15" stroke-miterlimit="10" d="M135.71 116.82a13.235 13.235 0 0 0-3.363.005m3.363-.005c.109.01.204-.07.215-.18a.2.2 0 0 0-.21-.214"></path><path fill="none" stroke="#eebd7b" stroke-width=".15" stroke-miterlimit="10" d="M132.41 116.429c1.097.138 2.208.136 3.305-.003"></path><path fill="none" stroke="#eebd7b" stroke-width=".15" stroke-miterlimit="10" d="M133.634 116.614c0 .029.188.053.42.053.231 0 .419-.024.419-.053 0-.03-.188-.053-.42-.053-.231 0-.419.023-.419.053m-1.192-1.178a.204.204 0 1 0-.064.397"></path><path fill="none" stroke="#eebd7b" stroke-width=".15" stroke-miterlimit="10" d="M135.74 115.827a13.298 13.298 0 0 0-3.362.004m3.362-.004c.11.009.207-.07.215-.179a.195.195 0 0 0-.178-.213c-.009-.002-.02-.002-.031-.002m-3.304.003c1.097.139 2.206.134 3.304-.003"></path><path fill="none" stroke="#eebd7b" stroke-width=".15" stroke-miterlimit="10" d="M133.665 115.618c0 .03.188.054.42.054.23 0 .418-.024.418-.054 0-.028-.188-.05-.419-.05-.231 0-.42.022-.42.05m-1.215-1.138a.204.204 0 1 0-.064.396"></path><path fill="none" stroke="#eebd7b" stroke-width=".15" stroke-miterlimit="10" d="M135.749 114.87a13.226 13.226 0 0 0-3.364.005m3.364-.005a.197.197 0 1 0 .005-.392"></path><path fill="none" stroke="#eebd7b" stroke-width=".15" stroke-miterlimit="10" d="M132.449 114.48c1.097.137 2.208.137 3.305-.002"></path><path fill="none" stroke="#eebd7b" stroke-width=".15" stroke-miterlimit="10" d="M133.67 114.664c0 .028.19.052.42.052.233 0 .422-.024.422-.052 0-.03-.189-.054-.421-.054-.232 0-.42.025-.42.054m-1.265-1.264a.2.2 0 0 0-.254.127.204.204 0 0 0 .128.257c.022.007.042.01.064.01"></path><path fill="none" stroke="#eebd7b" stroke-width=".15" stroke-miterlimit="10" d="M135.707 113.788a13.268 13.268 0 0 0-3.363.005m3.363-.005a.197.197 0 0 0 .036-.391h-.032"></path><path fill="none" stroke="#eebd7b" stroke-width=".15" stroke-miterlimit="10" d="M132.406 113.4c1.099.136 2.208.134 3.305-.003"></path><path fill="none" stroke="#eebd7b" stroke-width=".15" stroke-miterlimit="10" d="M133.63 113.582c0 .028.189.05.42.05.232 0 .42-.022.42-.05 0-.029-.188-.051-.42-.051-.231 0-.42.022-.42.05m-1.162-1.242a.203.203 0 1 0-.129.386.276.276 0 0 0 .065.009m3.362-.007a13.278 13.278 0 0 0-3.362.007m3.362-.007a.198.198 0 0 0 .216-.177.197.197 0 0 0-.18-.214c-.008 0-.02-.002-.031 0m-3.303.003a13.35 13.35 0 0 0 3.303-.003"></path><path fill="none" stroke="#eebd7b" stroke-width=".15" stroke-miterlimit="10" d="M133.691 112.521c0 .03.188.052.419.052.231 0 .42-.023.42-.052 0-.028-.189-.052-.42-.052-.23 0-.419.024-.419.052m-1.229-1.143a.205.205 0 0 0-.129.387.233.233 0 0 0 .065.011"></path><path fill="none" stroke="#eebd7b" stroke-width=".15" stroke-miterlimit="10" d="M135.76 111.77a13.23 13.23 0 0 0-3.362.004m3.362-.004a.197.197 0 0 0 .04-.392.125.125 0 0 0-.035-.002m-3.303.002a13.18 13.18 0 0 0 3.303-.002"></path><path fill="none" stroke="#eebd7b" stroke-width=".15" stroke-miterlimit="10" d="M133.684 111.563c0 .029.188.052.42.052.23 0 .42-.023.42-.052 0-.03-.19-.053-.42-.053-.232 0-.42.023-.42.053m-1.219-1.323a.204.204 0 1 0-.064.397m3.364-.007a13.364 13.364 0 0 0-3.364.008m3.364-.008a.197.197 0 0 0 .037-.391.067.067 0 0 0-.033 0"></path><path fill="none" stroke="#eebd7b" stroke-width=".15" stroke-miterlimit="10" d="M132.465 110.24c1.097.138 2.207.138 3.304 0"></path><path fill="none" stroke="#eebd7b" stroke-width=".15" stroke-miterlimit="10" d="M133.687 110.425c0 .028.188.054.422.054.23 0 .418-.026.418-.054 0-.03-.188-.053-.418-.053-.234 0-.422.024-.422.053m3.057 14.318h-5.352v-15.29"></path><path fill="none" stroke="#eebd7b" stroke-width=".15" stroke-miterlimit="10" d="M132.46 123.232a.203.203 0 0 0-.128.386.216.216 0 0 0 .063.012"></path><path fill="none" stroke="#eebd7b" stroke-width=".15" stroke-miterlimit="10" d="M135.76 123.623a13.213 13.213 0 0 0-3.365.005m3.365-.005a.2.2 0 0 0 .214-.178.195.195 0 0 0-.177-.214.056.056 0 0 0-.032-.002m-3.305.003c1.097.138 2.208.135 3.305-.003"></path><path fill="none" stroke="#eebd7b" stroke-width=".15" stroke-miterlimit="10" d="M133.682 123.416c0 .029.188.052.42.052.232 0 .421-.023.421-.052 0-.03-.189-.054-.421-.054-.232 0-.42.024-.42.054m-1.272-1.1a.204.204 0 1 0-.063.398"></path><path fill="none" stroke="#eebd7b" stroke-width=".15" stroke-miterlimit="10" d="M135.71 122.708a13.182 13.182 0 0 0-3.363.004m3.363-.004a.2.2 0 0 0 .215-.179.196.196 0 0 0-.178-.214c-.01-.002-.021-.002-.032-.002m-3.305.003c1.097.137 2.208.135 3.305-.003"></path><path fill="none" stroke="#eebd7b" stroke-width=".15" stroke-miterlimit="10" d="M133.634 122.5c0 .03.188.053.42.053.231 0 .419-.024.419-.054 0-.028-.188-.053-.42-.053-.231 0-.419.025-.419.053m-1.192-1.177a.202.202 0 0 0-.257.13.202.202 0 0 0 .129.256.183.183 0 0 0 .064.012m3.362-.007a13.222 13.222 0 0 0-3.362.007m3.362-.007c.11.01.207-.07.215-.18a.195.195 0 0 0-.178-.212.062.062 0 0 0-.031 0"></path><path fill="none" stroke="#eebd7b" stroke-width=".15" stroke-miterlimit="10" d="M132.442 121.322a13.23 13.23 0 0 0 3.304 0"></path><path fill="none" stroke="#eebd7b" stroke-width=".15" stroke-miterlimit="10" d="M133.665 121.507c0 .03.188.054.42.054.23 0 .418-.024.418-.054 0-.029-.188-.053-.419-.053-.231 0-.42.024-.42.053m-1.215-1.14a.202.202 0 0 0-.257.13.205.205 0 0 0 .128.257c.021.006.044.01.065.01m3.364-.007a13.187 13.187 0 0 0-3.364.007m3.364-.007a.199.199 0 0 0 .214-.178.196.196 0 0 0-.21-.214"></path><path fill="none" stroke="#eebd7b" stroke-width=".15" stroke-miterlimit="10" d="M132.449 120.367a13.34 13.34 0 0 0 3.305-.002"></path><path fill="none" stroke="#eebd7b" stroke-width=".15" stroke-miterlimit="10" d="M133.67 120.551c0 .029.19.052.42.052.233 0 .422-.023.422-.052 0-.029-.189-.053-.421-.053-.232 0-.42.024-.42.053m-1.265-1.265a.203.203 0 0 0-.127.385.248.248 0 0 0 .065.009m3.363-.007a13.465 13.465 0 0 0-3.363.007m3.363-.007a.193.193 0 0 0 .214-.176.198.198 0 0 0-.178-.216h-.032"></path><path fill="none" stroke="#eebd7b" stroke-width=".15" stroke-miterlimit="10" d="M132.406 119.286c1.099.137 2.208.134 3.305-.005"></path><path fill="none" stroke="#eebd7b" stroke-width=".15" stroke-miterlimit="10" d="M133.63 119.468c0 .029.189.053.42.053.232 0 .42-.024.42-.053 0-.028-.188-.051-.42-.051-.231 0-.42.023-.42.051m3.114 5.275v-15.29m-35.104 31.963h12.821v6H101.64zm0 1.03h12.821m-12.821 0 12.821 4.97m0-4.971-12.821 4.972"></path><path fill="none" stroke="#eebd7b" stroke-width=".25" stroke-linecap="round" stroke-linejoin="round" stroke-miterlimit="10" d="M168.799 172.343v-14.549m0 0h-2.183m0 0v.637m0 0h-1.454m0 0v5.91m0 1.455v5.91m3.637-29.006v-5.856m0-1.046v-4.1m0 0h-2.183m-.546 0h-.908m0 0v4.1m0 1.046v5.22m0 0h1.454m0 0v.636m0 0h2.183m0-27.369v-6.115m0-1.046v-6.115m-3.637 7.365v5.911m0 0h.909m.545 0h2.183m0 0v8.184m0 19.185v15.094m-3.637.637v-16.367m0-18.549v-8.184m-64.923-5.911v19.096m0 0h.909m0 0v-9.093m0-.91v-9.092m0-.001h-.91m.001 56.376v20.914m.909-10.002v-10.912m3.637-47.283h-3.637m0 .91h3.637m-3.637-10.003h3.637m60.377 54.921h-63.468m-.546 1.455h4.547m1.455 0h58.012m-59.467 0v10.912m1.455 11.456v-22.368m58.012-29.998H131.29m-1.045 0h-.735m0 0-1.002 1.002m1.435.044h35.219m-33.872-1.046v-.682m0 0h-1.045m0 0v.682m-6.91 13.094v-5.44m.061-.062-.739-.74m0 0-.368.369m0 0v4.827m-17.504-38.426v9.093m0 .91v9.093m1.455 1.454v-3.129m0-1.045V109.42m-1.455 19.096h-3.637m.546 1.454h4.546m0-20.55h58.922m0-1.454h-47.874m-1.046 0h-14.548m-1.455 20.55v3.273m0 .001h1.455m0 0v-1.82m-1.455 10.912v24.914m1.455-1.455v-15.45m0-1.045v-6.964m0 0h-1.455m1.455-32.916v-5.91m-1.455-.001v7.366m30.006 56.375v16.367m1.045 1.046v-17.413m37.509-56.58h14.003m0 0v-1.046m0 0h-14.003m14.161 27.628H168.8m-.001 1.046h14.162m-.001 0v-1.046m-65.672-27.832v-5.91m5.001 45.79h-20.595m0 1.046h21.64m.001-5.44.061-.062m5.851-5.851.696-.695m-1.435-.044.74.739m.997-28.11v16.367m1.045 1.045V109.43m0-.001h-1.045m-24.005 17.412h6.32m0 0v-1.045m0 0h-6.32m13.685 1.045h11.366m-1.046-1.045h-10.32m0 0v1.045m62.513 8.502v.455m0 0h.727m0 0v-.455m0 0h-.727m0 0v-25.672m.727 25.672v-25.672m-.727-1.955v.454m0 0h.727m0 0v-.454m-.727 1.5v.455m0-.001h.727m0 0v-.454m0 0h-.727m-60.331 34.811h-7.274m0 0v3.637m0 0h7.274m0 0v-3.637m-1.364.363h.91m-.001 0v2.91m0 0h-.909m0 0v-2.91m-4.546 2.91h-.91m0 0v-2.91m0 0h.91m0 0v2.91m4.092 0h-3.638m0 0v-2.91m0 0h3.638m0 0v2.91m-10.594-28.96h-2.91m.001 0v-3.637m0 0h2.91m-.001 0v3.637m0 1.364h-2.91m.001 0v-.91m0 0h2.91m-.001 0v.91m-2.909-6.365h2.91m-.001 0v.909m0 0h-2.91m.001 0v-.91m-.364 6.82h3.637m0 0v-7.274m0 0h-3.637m0 0v7.274m62.377 3.357h-2.182m-.547 0h-.908"></path><path d="M151.708 155.607h-.007l-.394.213-.06-.235.496-.265h.263v2.271h-.298v-1.984zm2.604-.287v.203l-.99 2.068h-.317l.985-2.009v-.008h-1.11v-.254h1.432zm.219 2.7c.078-.205.172-.58.21-.834l.343-.035a4.343 4.343 0 0 1-.332.85l-.22.02zm2.301-2.7v.203l-.989 2.068h-.317l.985-2.009v-.008H155.4v-.254h1.432zm1.272 2.271v-.618h-1.055v-.203l1.013-1.45h.332v1.412h.318v.24h-.318v.619h-.29zm0-.86v-.758c0-.118.004-.237.01-.357h-.01c-.07.133-.126.232-.189.336l-.555.773v.007h.744zm-20.946-28.427h-.006l-.395.213-.06-.235.497-.265h.262v2.271h-.298v-1.984zm2.639.824c0 .773-.287 1.198-.79 1.198-.443 0-.744-.415-.751-1.167 0-.761.328-1.18.79-1.18.479 0 .751.425.751 1.15zm-1.233.035c0 .591.181.926.46.926.315 0 .465-.367.465-.947 0-.559-.143-.926-.46-.926-.27 0-.465.33-.465.947zm1.418 1.555c.077-.206.172-.58.21-.835l.342-.035a4.343 4.343 0 0 1-.332.85l-.22.02zm.798-1.006c0-.287.171-.49.45-.608l-.003-.011c-.251-.118-.36-.314-.36-.51 0-.36.304-.604.703-.604.44 0 .66.276.66.558 0 .193-.094.399-.374.532v.01c.283.112.458.31.458.587 0 .395-.34.66-.773.66-.474 0-.762-.282-.762-.614zm1.223-.015c0-.275-.192-.408-.5-.496-.266.078-.41.252-.41.47-.009.23.166.432.456.432.275 0 .454-.171.454-.406zm-.846-1.135c0 .227.171.35.434.42.195-.067.346-.206.346-.412 0-.182-.109-.372-.385-.372-.255 0-.395.168-.395.364zm2.113-.258h-.006l-.395.213-.06-.235.497-.265h.263v2.271h-.298v-1.984zm-26.73-7.066v-.618h-1.054v-.203l1.012-1.45h.332v1.412h.319v.241h-.319v.618h-.29zm0-.859v-.759c0-.118.004-.237.011-.356h-.01c-.07.133-.127.231-.19.336l-.555.772v.007h.744zm.744 1.289c.078-.206.172-.58.21-.835l.343-.035a4.343 4.343 0 0 1-.332.85l-.22.02zm1.776-.43v-.618h-1.054v-.203l1.013-1.45h.332v1.412h.318v.241h-.318v.618h-.29zm0-.859v-.759c0-.118.005-.237.011-.356h-.01c-.07.133-.126.231-.189.336l-.555.772v.007h.744zm.846.859v-.188l.242-.234c.58-.552.841-.846.845-1.189 0-.23-.112-.443-.45-.443a.773.773 0 0 0-.483.192l-.098-.217a.997.997 0 0 1 .644-.23c.489 0 .695.335.695.66 0 .42-.305.759-.783 1.22l-.182.168v.007h1.02v.254h-1.45zm-5.337 12.803h-.867l-.088.584a1.11 1.11 0 0 1 .186-.014c.175 0 .35.039.49.122a.648.648 0 0 1 .324.584c0 .443-.353.775-.845.775a1.11 1.11 0 0 1-.567-.14l.077-.234c.095.057.28.126.486.126.29 0 .538-.189.538-.492-.003-.294-.2-.503-.653-.503-.13 0-.23.013-.315.024l.148-1.09h1.086v.258zm.338 2.443c.078-.206.172-.58.21-.835l.343-.036a4.343 4.343 0 0 1-.332.85l-.22.02zm.798-1.006c0-.287.172-.49.451-.609l-.003-.01c-.251-.119-.36-.315-.36-.51 0-.36.304-.605.702-.605.44 0 .66.277.66.559 0 .192-.093.398-.374.531v.01c.284.112.458.311.458.588 0 .394-.338.66-.772.66-.475 0-.762-.282-.762-.614zm1.224-.015c0-.275-.192-.408-.5-.496-.266.077-.41.252-.41.469-.01.23.166.432.456.432.275 0 .454-.17.454-.405zm-.846-1.136c0 .228.171.35.434.42.195-.066.345-.206.345-.412 0-.181-.108-.37-.384-.37-.255 0-.395.167-.395.362zm2.397 1.727v-.618h-1.055v-.203l1.013-1.45h.332v1.412h.318v.24h-.318v.619h-.29zm0-.86v-.758c0-.118.004-.238.01-.357h-.01c-.07.133-.126.232-.189.336l-.555.773v.007h.744zm51.141-6.789v-.618h-1.054v-.203l1.012-1.45h.332v1.412h.319v.241h-.319v.618h-.29zm0-.859v-.759c0-.118.004-.237.011-.356h-.01c-.07.133-.127.231-.19.336l-.555.772v.007h.744zm.744 1.289c.078-.206.172-.58.21-.835l.343-.035a4.343 4.343 0 0 1-.332.85l-.22.02zm1.777-.43v-.618h-1.055v-.203l1.013-1.45h.332v1.412h.318v.241h-.318v.618h-.29zm0-.859v-.759c0-.118.004-.237.01-.356h-.01c-.07.133-.126.231-.189.336l-.555.772v.007h.744zm.818.284c0-.288.171-.49.45-.61l-.004-.01c-.25-.118-.359-.314-.359-.51 0-.36.304-.604.702-.604.44 0 .66.276.66.558 0 .193-.093.399-.374.532v.01c.284.112.458.311.458.587 0 .395-.339.66-.772.66-.475 0-.762-.282-.762-.614zm1.223-.015c0-.276-.193-.409-.5-.496-.266.077-.41.251-.41.468-.01.23.166.433.456.433.275 0 .454-.171.454-.405zm-.846-1.136c0 .227.171.35.434.42.195-.067.345-.206.345-.412 0-.182-.108-.371-.384-.371-.255 0-.395.168-.395.363zm2.212-.699c-.256.342-.44.798-.44 1.43 0 .621.192 1.069.44 1.418h-.241c-.22-.29-.458-.737-.458-1.419.004-.688.237-1.135.458-1.428h.241zm.896.441h-.007l-.395.213-.06-.234.497-.266h.262v2.271h-.297v-1.984zm1.027 2.414c.077-.206.172-.58.21-.835l.343-.035a4.343 4.343 0 0 1-.332.85l-.221.02zm.899-.782c.088.056.29.142.503.142.396 0 .518-.25.514-.44-.003-.317-.29-.454-.587-.454h-.17v-.23h.17c.224 0 .507-.116.507-.384 0-.182-.115-.343-.399-.343a.83.83 0 0 0-.454.15l-.08-.223c.118-.088.35-.175.594-.175.447 0 .65.266.65.54 0 .235-.14.434-.42.536v.007c.28.056.507.266.507.584 0 .363-.283.68-.828.68a1.16 1.16 0 0 1-.59-.153l.083-.237zm2.673.352v-.618h-1.055v-.203l1.013-1.45h.332v1.412h.319v.241h-.319v.618h-.29zm0-.859v-.759c0-.118.004-.237.01-.356h-.01c-.07.133-.126.231-.188.336l-.556.772v.007h.744zm.759 1.282c.248-.345.44-.8.44-1.428 0-.626-.19-1.074-.44-1.42h.237c.224.287.458.734.458 1.423 0 .684-.234 1.128-.458 1.425h-.237z" fill="#eebd7b"></path></g></svg>