<svg version="1.1" xmlns="http://www.w3.org/2000/svg" xmlns:xlink="http://www.w3.org/1999/xlink" viewBox="0.688 77.652 88.916 31.768"><path fill="none" d="m89.15 109.42-88.462-.192V78.164l88.916-.512z"></path><path fill="none" d="M82.417 79.414 1.378 79.38l.294 28.801 80.746-.013z"></path><clipPath id="a"><path fill="none" d="m89.15 109.42-88.462-.192V78.164l88.916-.512z"></path></clipPath><g clip-path="url(#a)"><path fill-rule="evenodd" clip-rule="evenodd" fill="#eebd7b" d="M82.962 109.42h.114v15.959h-.114zm.796 0h.114v15.959h-.114z"></path><path fill-rule="evenodd" clip-rule="evenodd" fill="#eebd7b" d="M83.758 109.42h.114v-1.454H18.949v1.455h64.127zM55.547 79.414h1.046v13.104h-1.046zm21.414 13.104h5.456v-1.046H76.96v1.046m-7.365 0v-1.046H56.593v1.046h13.003zM77.9 79.414h4.517V77.96H18.949v1.454h48.783zM67.732 77.96h1.046V61.32h-1.046v1.045zm-.909 30.006h1.045v-5.9h-1.045v5.9m0-14.175h1.045v-1.273h-1.045v1.272zm17.049 14.175v-5.91h-1.455v5.91h1.455m0-15.003V66.876h-1.455v26.087h1.455m-1.455-35.18h1.455v-7.511h-1.455v7.512z"></path><path fill-rule="evenodd" clip-rule="evenodd" fill="#eebd7b" d="M56.82 164.351h1.046v-8.274H56.82v8.274m1.046-16.549v-11.436H56.82v11.436h1.046m-1.046-19.71h1.046V109.42H56.82v18.671zM78.961 91.29h3.274v-7.274h-3.637v7.275h.363m2.91-.455h-2.91v-.91h2.91v.91m0-1.364h-2.91v-3.637h2.91v3.637m-2.91-4.092v-.91h2.91v.91h-2.91zM1.537 108.353h16.187v1.045H1.537zM15.633 79.38h2.091v-1.046H1.378v1.045h14.163z"></path><path fill-rule="evenodd" clip-rule="evenodd" fill="#eebd7b" d="M15.314 71.776V85.96h1.71l.036-.636h1.892V72.367h-1.455v-.591zm-.094 29.374.092 14.623h1.71l.036-.637h1.891l-.09-13.396h-1.91v-.59zm67.742 8.057h.91v16.899h-.91z"></path><path fill="none" stroke="#eebd7b" stroke-width=".25" stroke-linecap="round" stroke-linejoin="round" stroke-miterlimit="10" d="m83.872 92.963 4.546 7.874m-11.457-8.319L70.583 96.2m-3.76-2.409-4.138 7.166"></path><path fill="none" stroke="#eebd7b" stroke-width=".2" stroke-linecap="round" stroke-linejoin="round" stroke-miterlimit="10" d="M17.04 94.2h.545m0 0v-1.02m0 0h-.546m.001 0v1.02m0 6.71h.545m0 0v.782m0 0h-.546m.001 0v-.782m0-14.803h.545m0 0v-.782m0 0h-.546m.001 0v.782m.545 14.803 3.355-5.812m-3.9-8.991v7.074m.545-.001v-7.073"></path><path fill="none" stroke="#eebd7b" stroke-width=".15" stroke-linecap="round" stroke-linejoin="round" stroke-miterlimit="10" d="M39.178 84.88h5.456v-5.456h-5.456v5.456l5.456-5.456m-5.456 0 5.456 5.456"></path><path fill="none" stroke="#eebd7b" stroke-width=".15" stroke-linecap="round" stroke-linejoin="round" stroke-miterlimit="10" d="M44.634 82.152a2.728 2.728 0 1 1-5.456 0 2.728 2.728 0 0 1 5.456 0zm13.62-1.362a.28.28 0 1 1 0 .56.28.28 0 0 1 0-.56z"></path><path fill="none" stroke="#eebd7b" stroke-width=".15" stroke-linecap="round" stroke-linejoin="round" stroke-miterlimit="10" d="M58.254 80.87a.2.2 0 1 1 0 .4.2.2 0 0 1 0-.4zm6.523 4.556v-6.002"></path><path fill="none" stroke="#eebd7b" stroke-width=".15" stroke-linecap="round" stroke-linejoin="round" stroke-miterlimit="10" d="M56.593 79.424h8.184v8.184h-8.184m1.443-5.832-1.443 5.068"></path><path fill="none" stroke="#eebd7b" stroke-width=".15" stroke-linecap="round" stroke-linejoin="round" stroke-miterlimit="10" d="M56.593 79.424h7.42v7.42h-7.42m1.661-5.41v-.23m-.364-.134h.23m.134-.133v-.23m.133.363h.23m.141.52 5.255 5.254m-6.293-6.293-1.127-1.127m2.352 1.445 5.068-1.445m9.115 1.333a13.615 13.615 0 0 0 3.3 0m-3.3 0a.191.191 0 0 1-.168-.191m.129 3.529a1.544 1.544 0 0 0 .187.712 1.613 1.613 0 0 0 .356.45 1.711 1.711 0 0 0 .493.308 1.784 1.784 0 0 0 1.15.07 1.728 1.728 0 0 0 .523-.247 1.618 1.618 0 0 0 .54-.654 1.514 1.514 0 0 0 .13-.548c.001-.033.002-.065.001-.098"></path><path fill="none" stroke="#eebd7b" stroke-width=".15" stroke-linecap="round" stroke-linejoin="round" stroke-miterlimit="10" d="M73.165 84.094a1.43 1.43 0 0 0 .043.326 1.5 1.5 0 0 0 .353.659 1.647 1.647 0 0 0 .88.504 1.734 1.734 0 0 0 .557.028 1.649 1.649 0 0 0 .818-.333 1.535 1.535 0 0 0 .448-.566 1.482 1.482 0 0 0 .127-.527c.001-.031.002-.063.001-.095m.205-3.524a.19.19 0 0 1-.169.191m-1.649-.773c.087 0 .157.072.157.16 0 .09-.07.162-.157.162s-.157-.072-.157-.161c0-.09.07-.161.157-.161z"></path><path fill="none" stroke="#eebd7b" stroke-width=".15" stroke-linecap="round" stroke-linejoin="round" stroke-miterlimit="10" d="M72.96 80.566v-1.142h3.637v1.142m-3.508.184v3.346l.32-2.767h2.74l.32 2.76m-3.304.006.32-2.766m2.908 2.759-.32-2.759m.397-.581v3.39m-9.966-3.532c0-.25.204-.454.455-.454m0 2.728a.455.455 0 0 1-.455-.455m3.638 0a.455.455 0 0 1-.455.455m0-2.728c.251 0 .455.203.455.454"></path><path fill="none" stroke="#eebd7b" stroke-width=".15" stroke-linecap="round" stroke-linejoin="round" stroke-miterlimit="10" d="M66.05 79.424h4.546v3.82H66.05zm3.637.728h-2.728m-.455.454v1.819m.455.455h2.728m.455-.455v-1.819m-1.819.591v-.23m-.363-.133h.23m.133-.134v-.23m.133.364h.23"></path><path fill="none" stroke="#eebd7b" stroke-width=".15" stroke-linecap="round" stroke-linejoin="round" stroke-miterlimit="10" d="M68.043 80.834a.28.28 0 1 1 .56 0 .28.28 0 0 1-.56 0z"></path><path fill="none" stroke="#eebd7b" stroke-width=".15" stroke-linecap="round" stroke-linejoin="round" stroke-miterlimit="10" d="M68.123 80.834a.2.2 0 1 1 .4 0 .2.2 0 0 1-.4 0zM53.638 88.88a.455.455 0 0 0 .455-.454m-3.637 0c0 .251.203.455.454.455m0-3.637a.455.455 0 0 0-.454.454m3.637 0a.455.455 0 0 0-.455-.454"></path><path fill="none" stroke="#eebd7b" stroke-width=".15" stroke-linecap="round" stroke-linejoin="round" stroke-miterlimit="10" d="M55.547 91.245h-5.455V84.88h5.455m-4.182 6.001v-2m.455 2v-2m.454 2v-2m.455 2v-2m.455 2v-2"></path><path fill="none" stroke="#eebd7b" stroke-width=".15" stroke-linecap="round" stroke-linejoin="round" stroke-miterlimit="10" d="M53.638 90.881v-2H50.91v2"></path><path fill="none" stroke="#eebd7b" stroke-width=".15" stroke-linecap="round" stroke-linejoin="round" stroke-miterlimit="10" d="M50.456 88.429v2.452h3.637v-2.448m0-2.735v2.728m-3.637 0v-2.728m.454-.454h2.728m-.228 1.818h-.727m.364.364V86.7m0 .544a.182.182 0 1 0 0-.364.182.182 0 0 0 0 .364z"></path><path fill="none" stroke="#eebd7b" stroke-width=".15" stroke-linecap="round" stroke-linejoin="round" stroke-miterlimit="10" d="M53.047 87.335a.273.273 0 1 0 0-.545.273.273 0 0 0 0 .545zm23.005 22.085v1.142m-6.015-1.142v3.82H65.49v-3.82m-1.259 0v15.458M44.636 79.424h5.456v5.456h-5.456zm1.41 3.133v.454m0 .647v.454m-.778-.778h.454m.647 0h.454m1.859-.777v.454m0 .647v.454m.778-.778h-.454m-.646 0h-.455m-1.859-1.586v-.455m0-.646v-.455m-.778.778h.454m.647 0h.454m1.859.778v-.455m0-.646v-.455m.778.778h-.454m-.646 0h-.455m8.006 21.55h5.456v5.446m-5.456 0v-5.446l5.446 5.446m-5.436 0 5.446-5.446m-2.727 3.21v-.964m.481.482h-.964m8.666-2.728h-5.456m-5.456 0h-5.455m0 0v5.446"></path><path fill="none" stroke="#eebd7b" stroke-width=".25" stroke-linecap="round" stroke-linejoin="round" stroke-miterlimit="10" d="M15.312 71.822v6.342m0 1.046v6.706m0 0h1.727m.546-.591h1.364m0 0v-5.91m0-1.455v-5.502M15.312 101.1v7.08m0 1.046v6.501m3.637-7.761v-6.274m0 0h-1.364m-.545-.592h-1.728m0-7.615V85.63m0 7.787h1.727m.546 0h1.364m0-8.092v8.092m64.013 16.003v16.004m.91-16.004h-.91m-64.013 0H56.82m1.046 0H77.87m1.455 0h3.637m-.545-1.454H67.868m-1.045 0H18.949m-17.64 1.26h14.003m0-1.046H1.309m0 0v1.046M1.15 79.21h14.162m0-1.046H1.15m0 0v1.046m55.443 12.262V79.414m-1.046 0v13.104m26.87-1.046H76.96m.001 0v1.046m0 0h5.456m0 0v-1.046m-12.821 0H56.593m-1.046 1.046h11.276m1.045 0h1.728m0 0v-1.046M18.949 79.414h36.598m1.046 0h25.824m0-1.454h-13.64m-1.045 0H18.949m49.829 0V61.32m-1.046 1.045V77.96m-.909 14.558v1.273m0 0h1.045m0 0v-1.273m-1.045 9.547v5.9m1.045.001v-5.9m0-.001h-1.045m11.047 7.355v16.368m6.002-16.368v-7.365m0 0h-1.455m0 0v5.91m1.455-15.002V66.876m-1.455 0V77.96m0 1.454v13.549m0 0h1.455M56.82 109.42v18.672m1.046-2.304V109.42M1.672 79.664v-.454m0 0H.945m0 0v.454m0 0h.727m0 0v28.062M.945 79.664v28.062m.727 1.954v-.454m0 0H.945m0 0v.455m.727-1.501v-.454m0 0H.945m0 0v.454m0 0h.727m77.289-18.253v.909m2.91-.909h-2.91m2.91.909v-.91m-2.91.91h2.91m-2.91-5.001v3.637m2.91-3.637h-2.91m2.91 3.637v-3.637m-2.91 3.637h2.91m.364-5.456v7.275m-3.637-7.275h3.637m-3.637 7.274v-7.274m3.637 7.274h-3.637m3.273-5.91v-.91m-2.91.91h2.91m-2.91-.91v.91m2.91-.91h-2.91"></path><path d="M41.5 92.631h-.008l-.394.213-.06-.234.496-.266h.263v2.271H41.5v-1.984zm2.078 1.984v-.618h-1.054v-.203l1.012-1.45h.332v1.412h.319v.241h-.319v.618h-.29zm0-.859v-.759c0-.118.004-.237.011-.356h-.01c-.07.133-.127.231-.19.336l-.555.772v.007h.744zm.744 1.289c.078-.206.172-.58.21-.835l.343-.035a4.343 4.343 0 0 1-.332.85l-.22.02zm2.301-2.701v.203l-.989 2.068h-.317l.985-2.008v-.008H45.19v-.255h1.432zm1.677.259h-.866l-.087.584c.052-.008.1-.015.184-.015.175 0 .35.04.49.122a.648.648 0 0 1 .325.584c0 .443-.354.776-.846.776a1.11 1.11 0 0 1-.566-.14l.077-.235c.095.057.28.126.485.126.29 0 .538-.188.538-.492-.003-.294-.199-.503-.653-.503-.129 0-.23.014-.314.025l.147-1.091H48.3v.259zm23.777 6.157v-.188l.242-.234c.58-.552.841-.846.845-1.188 0-.23-.112-.444-.45-.444a.773.773 0 0 0-.483.193l-.098-.217a.997.997 0 0 1 .644-.23c.489 0 .695.334.695.66 0 .42-.305.758-.783 1.22l-.182.167v.007h1.02v.255h-1.45zm1.695.43c.077-.205.172-.58.21-.834l.342-.036a4.343 4.343 0 0 1-.332.85l-.22.02zm2.3-2.7v.203l-.989 2.068h-.317l.985-2.009v-.008H74.64v-.255h1.432zm.322 2.27v-.188l.24-.234c.581-.552.843-.846.847-1.188 0-.23-.113-.444-.452-.444a.773.773 0 0 0-.482.193l-.098-.217a.997.997 0 0 1 .644-.23c.49 0 .695.334.695.66 0 .42-.304.758-.783 1.22l-.182.167v.007h1.02v.255h-1.45zm-8.219-10.175c.088.056.29.143.503.143.395 0 .517-.251.514-.44-.003-.318-.29-.455-.587-.455h-.171v-.23h.17c.224 0 .508-.116.508-.384 0-.182-.116-.343-.399-.343a.83.83 0 0 0-.454.15l-.08-.223c.118-.088.35-.175.594-.175.447 0 .65.266.65.541 0 .235-.14.434-.42.535v.007c.28.056.507.266.507.584 0 .363-.283.68-.828.68a1.16 1.16 0 0 1-.591-.153l.084-.237zm1.621.782c.077-.206.172-.58.21-.835l.343-.035a4.343 4.343 0 0 1-.332.85l-.22.02zm1.776-.429v-.618h-1.054v-.204l1.012-1.45h.332v1.412h.319v.242h-.319v.618h-.29zm0-.86v-.758c0-.119.004-.238.011-.357h-.01c-.07.133-.127.232-.189.336l-.556.772v.007h.744zm.846.86v-.189l.241-.234c.58-.552.842-.846.846-1.189 0-.23-.112-.443-.451-.443a.773.773 0 0 0-.483.192l-.097-.216a.997.997 0 0 1 .643-.23c.49 0 .696.334.696.66 0 .418-.305.758-.784 1.219l-.181.168v.007h1.02v.255h-1.45zM3.633 98.76v-.617H2.578v-.203l1.013-1.45h.332v1.412h.318v.24h-.318v.619h-.29zm0-.858v-.76c0-.117.004-.237.01-.356h-.01c-.07.133-.126.232-.188.336l-.556.773v.007h.744zm.744 1.288c.077-.205.172-.58.21-.834l.343-.036a4.343 4.343 0 0 1-.332.85l-.22.02zm.798-1.005c0-.287.172-.49.451-.609l-.004-.01c-.25-.119-.36-.315-.36-.51 0-.36.305-.605.703-.605.44 0 .66.277.66.559 0 .192-.094.398-.374.531v.01c.283.112.458.311.458.588 0 .394-.339.66-.772.66-.475 0-.762-.282-.762-.614zm1.224-.015c0-.275-.193-.408-.5-.496-.266.077-.41.252-.41.469-.01.23.165.432.456.432.275 0 .454-.17.454-.405zm-.846-1.136c0 .228.17.35.434.42.195-.066.345-.206.345-.412 0-.181-.108-.37-.385-.37-.254 0-.394.167-.394.362zm2.113-.257H7.66l-.394.212-.06-.234.496-.266h.263v2.272h-.298v-1.984zm1.894-.441c-.255.342-.44.797-.44 1.429 0 .622.193 1.07.44 1.419h-.24c-.221-.29-.458-.738-.458-1.42.003-.688.237-1.135.458-1.428h.24zm.896.441h-.007l-.394.212-.06-.234.496-.266h.263v2.272h-.298v-1.984zm1.028 2.413c.077-.205.171-.58.21-.834l.342-.036a4.343 4.343 0 0 1-.332.85l-.22.02zm1.776-.43v-.617h-1.055v-.203l1.013-1.45h.332v1.412h.318v.24h-.318v.619h-.29zm0-.858v-.76c0-.117.004-.237.01-.356h-.01c-.07.133-.126.232-.189.336l-.555.773v.007h.744zm1.796.858v-.617H14v-.203l1.013-1.45h.332v1.412h.318v.24h-.318v.619h-.29zm0-.858v-.76c0-.117.004-.237.01-.356h-.01c-.07.133-.126.232-.189.336l-.555.773v.007h.744zm.759 1.282c.248-.346.44-.8.44-1.429 0-.626-.19-1.073-.44-1.419h.237c.224.286.458.734.458 1.422 0 .685-.234 1.129-.458 1.426h-.237z" fill="#eebd7b"></path></g></svg>